<svg width="114" height="114" viewBox="0 0 114 114" fill="none" xmlns="http://www.w3.org/2000/svg">
<g clip-path="url(#clip0_17_1033)">
<path d="M86.5215 39.5603C93.3989 41.9235 100.276 44.2867 107.154 46.65L104.869 41.124C100.364 47.1566 95.8595 53.1892 91.355 59.2218C90.1746 60.8025 91.0521 63.4916 92.7096 64.3607C94.6841 65.3959 96.5839 64.6996 97.8485 63.0061C102.353 56.9735 106.858 50.9409 111.362 44.9083C112.932 42.8052 111.131 40.0883 109.077 39.3824L88.4444 32.2927C86.5819 31.6527 84.26 33.081 83.8492 34.965C83.3897 37.0724 84.526 38.8746 86.5215 39.5603Z" fill="#31D499"/>
<path d="M78.2621 54.6668C86.2986 52.699 94.3351 50.7312 102.372 48.7634C104.285 48.295 105.641 46.0878 105.048 44.1718C104.436 42.1985 102.497 40.9962 100.456 41.4959C92.4194 43.4637 84.3829 45.4315 76.3464 47.3993C74.4335 47.8677 73.0769 50.075 73.6705 51.9909C74.282 53.9642 76.2211 55.1666 78.2621 54.6668Z" fill="#31D499"/>
<path d="M42.0895 64.3433C50.126 62.3755 58.1625 60.4077 66.199 58.4399C68.1119 57.9715 69.4686 55.7643 68.8749 53.8484C68.2635 51.875 66.3243 50.6727 64.2833 51.1724C56.2468 53.1402 48.2103 55.108 40.1738 57.0758C38.2609 57.5442 36.9043 59.7515 37.4979 61.6674C38.1093 63.6407 40.0485 64.8431 42.0895 64.3433Z" fill="#31D499"/>
<path d="M6.06886 73.7586C14.1054 71.7908 22.1419 69.823 30.1784 67.8552C32.0913 67.3868 33.4479 65.1796 32.8543 63.2636C32.2428 61.2903 30.3037 60.088 28.2627 60.5877C20.2262 62.5555 12.1897 64.5233 4.1532 66.4911C2.24025 66.9595 0.883628 69.1668 1.47728 71.0827C2.08872 73.056 4.02788 74.2584 6.06886 73.7586Z" fill="#31D499"/>
</g>
<defs>
<clipPath id="clip0_17_1033">
<rect width="82.8658" height="82.712" fill="white" transform="translate(41.6471) rotate(30.2332)"/>
</clipPath>
</defs>
</svg>
