<svg width="107" height="107" viewBox="0 0 107 107" fill="none" xmlns="http://www.w3.org/2000/svg">
<g clip-path="url(#clip0_17_1027)">
<path d="M94.6717 21.4238C70.7774 33.8418 50.1422 51.9546 35.2322 74.4271C30.8752 80.9941 27.0144 87.8713 23.6049 94.9756C22.5898 97.0909 19.6196 97.7108 17.6788 96.6058C15.5164 95.3746 15.0221 92.8006 16.0409 90.6776C28.3389 65.0521 46.8595 42.8754 69.9729 26.33C76.463 21.6841 83.2921 17.5401 90.3737 13.8598C95.3174 11.2905 99.653 18.835 94.6717 21.4238Z" fill="#31D499"/>
<path d="M16.6498 73.394L19.4567 82.5545L20.9003 87.2656L21.6221 89.6212C21.7159 89.9276 21.935 90.3497 21.9428 90.6681C21.9107 89.3717 17.5424 89.77 19.0669 89.0529C20.4128 88.4199 22.054 88.1381 23.4771 87.7023C25.0336 87.2256 26.5901 86.7489 28.1467 86.2722C31.2597 85.3188 34.3728 84.3654 37.4858 83.412C39.6622 82.7455 42.3124 84.2883 42.7954 86.5178C43.3108 88.897 42.0243 91.1104 39.6964 91.8233C36.0645 92.9356 32.4326 94.0479 28.8007 95.1602C27.0713 95.6899 25.3418 96.2195 23.6123 96.7492C21.4532 97.4105 19.3646 98.2613 17.1381 97.3551C14.8631 96.4292 13.9646 94.2718 13.2938 92.0826L11.6096 86.5863C10.4869 82.9221 9.36414 79.2579 8.24137 75.5937C7.57409 73.416 9.10999 70.7686 11.3403 70.2882C13.7171 69.7762 15.9361 71.0646 16.6498 73.394Z" fill="#31D499"/>
</g>
<defs>
<clipPath id="clip0_17_1027">
<rect width="114.255" height="36.4291" fill="white" transform="matrix(-0.707107 0.707107 0.707107 0.707107 80.7903 0)"/>
</clipPath>
</defs>
</svg>
