<svg width="125" height="123" viewBox="0 0 125 123" fill="none" xmlns="http://www.w3.org/2000/svg">
<g clip-path="url(#clip0_17_1017)">
<path d="M85.4716 55.3319C93.7014 57.4851 101.931 59.6382 110.161 61.7914L105.111 66.2738C103.795 59.1237 102.479 51.9736 101.162 44.8235C100.974 43.8024 100.786 42.7812 100.598 41.76C100.216 39.6815 101.57 37.5727 103.666 37.1573C105.719 36.7505 107.89 38.148 108.274 40.2361C109.591 47.3862 110.907 54.5363 112.223 61.6864C112.411 62.7076 112.599 63.7288 112.787 64.7499C113.342 67.7641 110.567 69.9728 107.737 69.2323C99.5071 67.0792 91.2773 64.926 83.0475 62.7728C81.0005 62.2373 79.9118 59.7536 80.5373 57.8317C81.2262 55.7153 83.4198 54.7951 85.4716 55.3319Z" fill="#31D499"/>
<path d="M3.2357 62.7841C16.0681 53.7167 33.0295 51.0395 47.9202 56.5181C55.9307 59.4652 64.3213 65.2692 65.8887 74.2733C67.2979 82.368 62.7578 91.44 53.9571 92.3504C45.0497 93.2719 38.0211 87.1364 34.0297 79.7225C31.9865 75.9272 30.457 71.8035 29.0026 67.7527C27.6868 64.0878 26.4682 60.3368 25.9901 56.4587C24.9927 48.3677 27.2286 40.3242 33.7737 35.0894C40.3793 29.8062 49.0779 28.1265 57.3384 29.4427C67.0223 30.9856 76.123 35.4847 84.524 40.3922C93.7471 45.7801 102.225 52.3713 109.89 59.8057C111.411 61.2811 111.062 64.0047 109.567 65.3322C107.886 66.8241 105.567 66.4765 104.041 64.9969C93.1951 54.4761 80.1632 45.4269 66.0348 39.9333C59.8176 37.5159 53.0229 35.8783 46.3987 37.4506C40.6407 38.8173 35.3749 42.6904 33.9318 48.6466C32.5659 54.2843 34.5589 60.4102 36.526 65.6697C38.8213 71.8065 41.191 79.662 47.1741 83.1994C51.6714 85.8583 57.2955 84.7037 58.2245 79.0448C59.311 72.4269 53.5095 67.5293 48.0955 65.0183C35.5394 59.1948 19.7131 60.6793 8.43856 68.6459C6.71407 69.8644 4.42955 70.0194 2.91284 68.3106C1.62676 66.8616 1.4999 64.0106 3.2357 62.7841Z" fill="#31D499"/>
</g>
<defs>
<clipPath id="clip0_17_1017">
<rect width="97.9615" height="76.5582" fill="white" transform="matrix(0.747892 -0.663821 -0.663821 -0.747892 50.8209 122.286)"/>
</clipPath>
</defs>
</svg>
