<svg width="116" height="41" viewBox="0 0 116 41" fill="none" xmlns="http://www.w3.org/2000/svg">
<g clip-path="url(#clip0_17_1038)">
<path d="M6.26305 29.0201C31.6184 19.9506 58.9315 17.1437 85.5464 21.4991C93.3238 22.7718 100.991 24.6194 108.518 26.9522C110.759 27.6468 113.234 25.8911 113.744 23.7169C114.312 21.2942 112.761 19.1811 110.512 18.484C83.3626 10.0693 54.5087 8.56195 26.6591 14.2516C18.839 15.8492 11.1562 18.0367 3.64162 20.7246C-1.60438 22.601 0.977277 30.9108 6.26305 29.0201Z" fill="#31D499"/>
<path d="M97.4281 7.17471L102.234 15.463L104.706 19.7256L105.942 21.8568C106.102 22.1341 106.263 22.5817 106.491 22.8041C105.562 21.8988 108.826 18.9675 107.263 19.5973C105.883 20.1533 104.561 21.1648 103.273 21.9115C101.865 22.7283 100.457 23.5451 99.0487 24.3618C96.2324 25.9954 93.4161 27.629 90.5998 29.2625C88.6309 30.4045 87.9593 33.3967 89.2651 35.2672C90.6586 37.2632 93.1562 37.8257 95.2622 36.6042C98.5478 34.6983 101.834 32.7925 105.119 30.8867C106.684 29.9792 108.248 29.0716 109.813 28.1641C111.766 27.0311 113.811 26.0788 114.661 23.8302C115.529 21.5328 114.559 19.4067 113.411 17.4259L110.527 12.453C108.605 9.13764 106.682 5.82233 104.76 2.507C103.617 0.536605 100.632 -0.138157 98.7628 1.17002C96.7709 2.56409 96.206 5.06708 97.4281 7.17471Z" fill="#31D499"/>
</g>
<defs>
<clipPath id="clip0_17_1038">
<rect width="114.255" height="36.4291" fill="white" transform="translate(0 4.27246) rotate(-2.14297)"/>
</clipPath>
</defs>
</svg>
