<svg width="30" height="40" viewBox="0 0 30 40" fill="none" xmlns="http://www.w3.org/2000/svg">
<g clip-path="url(#clip0_29_23)">
<path d="M1.25687 13.0958C8.52584 19.059 15.7948 25.0223 23.0638 30.9855C24.1068 31.8412 25.5786 32.0063 26.5993 30.9855C27.482 30.1028 27.6483 28.3106 26.5993 27.45C19.3303 21.4867 12.0614 15.5235 4.7924 9.56024C3.74935 8.70456 2.27761 8.5395 1.25687 9.56024C0.374158 10.4429 0.207838 12.2352 1.25687 13.0958Z" fill="#4831D4"/>
<path d="M4.27997 33.1873C12.4864 25.0993 20.6928 17.0113 28.8993 8.92328C31.1946 6.66106 27.6586 3.12595 25.3637 5.38775C17.1573 13.4758 8.95087 21.5638 0.744435 29.6518C-1.5509 31.914 1.98507 35.4491 4.27997 33.1873Z" fill="#4831D4"/>
<path d="M11.6317 2.41394C11.395 14.0514 11.1583 25.689 10.9217 37.3265C10.8562 40.5452 15.8562 40.5449 15.9217 37.3265C16.1583 25.689 16.395 14.0514 16.6317 2.41394C16.6972 -0.804807 11.6972 -0.804487 11.6317 2.41394Z" fill="#4831D4"/>
</g>
<defs>
<clipPath id="clip0_29_23">
<rect width="29.6437" height="39.7404" fill="white"/>
</clipPath>
</defs>
</svg>
