<svg width="35" height="38" viewBox="0 0 35 38" fill="none" xmlns="http://www.w3.org/2000/svg">
<g clip-path="url(#clip0_29_31)">
<path d="M0.167642 21.4997C0.463968 26.4081 0.7603 31.3165 1.05663 36.2249C1.11401 37.1753 1.76512 37.8314 2.69908 37.897C5.12211 38.0673 7.54567 38.0263 9.9618 37.774C10.7759 37.689 11.6988 37.0741 11.6043 36.1018C11.0985 30.9027 10.6865 25.6948 10.3683 20.4803C10.3164 19.6299 9.65652 18.7377 8.72586 18.8081C6.36473 18.9868 4.00359 19.1654 1.64246 19.3441C0.757758 19.411 0 20.0647 0 21.0162C0 21.8693 0.753028 22.7557 1.64246 22.6884C4.00359 22.5097 6.36473 22.3311 8.72586 22.1524L7.0834 20.4803C7.40159 25.6948 7.81363 30.9027 8.31934 36.1018L9.9618 34.4297C7.54568 34.682 5.12211 34.7231 2.69908 34.5527L4.34154 36.2249C4.04522 31.3165 3.74888 26.4081 3.45256 21.4997C3.39813 20.5982 2.73664 19.8276 1.8101 19.8276C0.963085 19.8276 0.112942 20.5937 0.167642 21.4997Z" fill="#4831D4"/>
<path d="M11.302 13.4007C11.5984 20.9889 11.8947 28.5771 12.191 36.1653C12.2291 37.1415 12.9178 37.7382 13.8335 37.8375C16.4145 38.1173 18.9719 38.0003 21.5328 37.5875C22.1985 37.4802 22.7808 36.6436 22.7387 35.9751C22.2319 27.9303 21.82 19.8795 21.5027 11.8246C21.4702 11.0002 20.7727 10.0458 19.8603 10.1525C17.4991 10.4287 15.138 10.7049 12.7769 10.9811C11.8957 11.0842 11.1344 11.6758 11.1344 12.6532C11.1344 13.4771 11.8898 14.4291 12.7769 14.3254C15.138 14.0492 17.4991 13.773 19.8603 13.4968L18.2178 11.8246C18.5351 19.8795 18.947 27.9303 19.4537 35.9751L20.6596 34.3627C18.4022 34.7266 16.1034 34.7393 13.8335 34.4932L15.4759 36.1653C15.1796 28.5771 14.8833 20.9889 14.587 13.4007C14.5032 11.2559 11.2179 11.245 11.302 13.4007Z" fill="#4831D4"/>
<path d="M23.5621 3.87293C23.8584 14.6136 24.1548 25.3543 24.4511 36.095C24.4694 36.7574 24.9432 37.5979 25.6569 37.7074C28.3956 38.1277 31.0859 38.0558 33.7929 37.4382C34.4659 37.2847 35.03 36.5289 34.9987 35.8258C34.4914 24.435 34.0796 13.04 33.7628 1.64208C33.7301 0.466952 32.7446 -0.145995 31.6837 0.0296669C29.3226 0.420607 26.9614 0.811546 24.6003 1.20249C23.7241 1.34757 23.2362 2.45587 23.4531 3.25942C23.7091 4.2076 24.5948 4.57281 25.4736 4.42731C27.8347 4.03637 30.1958 3.64543 32.557 3.25449L30.4779 1.64208C30.7947 13.04 31.2065 24.435 31.7138 35.8258L32.9196 34.2134C30.8277 34.6907 28.6552 34.8087 26.5302 34.4826L27.736 36.095C27.4397 25.3543 27.1434 14.6136 26.847 3.87293C26.7878 1.72535 23.5026 1.71658 23.5621 3.87293Z" fill="#4831D4"/>
</g>
<defs>
<clipPath id="clip0_29_31">
<rect width="35" height="38" fill="white"/>
</clipPath>
</defs>
</svg>
