<svg width="54" height="52" viewBox="0 0 54 52" fill="none" xmlns="http://www.w3.org/2000/svg">
<g clip-path="url(#clip0_29_20)">
<path d="M34.9252 34.0425C27.8908 35.2674 20.8564 36.4924 13.822 37.7173L16.7102 40.4249C17.8541 32.1882 18.9981 23.9515 20.142 15.7148C20.5856 12.5206 15.6072 12.052 15.165 15.2361C14.021 23.4728 12.8771 31.7095 11.7332 39.9462C11.5121 41.5381 13.0853 42.9213 14.6214 42.6538C21.6558 41.4288 28.6902 40.2039 35.7246 38.9789C38.8994 38.4261 38.0984 33.4899 34.9252 34.0425Z" fill="#4831D4"/>
<path d="M49.2916 22.197C42.2572 23.4219 35.2228 24.6469 28.1884 25.8719L31.0767 28.5794C32.2206 20.3427 33.3645 12.106 34.5085 3.8693C34.9521 0.675188 29.9736 0.206567 29.5314 3.39062C28.3875 11.6273 27.2436 19.864 26.0997 28.1008C25.8786 29.6927 27.4517 31.0758 28.9879 30.8083C36.0223 29.5834 43.0567 28.3584 50.0911 27.1335C53.2659 26.5806 52.4649 21.6444 49.2916 22.197Z" fill="#4831D4"/>
</g>
<defs>
<clipPath id="clip0_29_20">
<rect width="42.2143" height="32.4279" fill="white" transform="translate(0 26.8552) rotate(-39.5063)"/>
</clipPath>
</defs>
</svg>
