<svg width="66" height="37" viewBox="0 0 66 37" fill="none" xmlns="http://www.w3.org/2000/svg">
<g clip-path="url(#clip0_21_92)">
<path d="M4.0658 6.14966C9.35388 11.8995 14.642 17.6493 19.9301 23.3991L21.4868 17.4443C13.8044 20.4908 6.85761 24.9818 1.0319 30.9066C-2.17125 34.1642 2.8157 39.2052 6.02118 35.9452C10.9473 30.9353 16.8423 26.9011 23.3626 24.3154C25.8312 23.3365 26.8555 20.4658 24.9194 18.3605C19.6313 12.6107 14.3432 6.86087 9.05508 1.11103C5.95818 -2.25627 0.977285 2.79147 4.0658 6.14966Z" fill="#4831D4"/>
<path d="M24.4405 36.9887H62.5921C67.1323 36.9887 67.1398 29.863 62.5921 29.863H24.4405C19.9004 29.863 19.8929 36.9887 24.4405 36.9887Z" fill="#4831D4"/>
</g>
<defs>
<clipPath id="clip0_21_92">
<rect width="66" height="37" fill="white"/>
</clipPath>
</defs>
</svg>
