<svg width="27" height="77" viewBox="0 0 27 77" fill="none" xmlns="http://www.w3.org/2000/svg">
<g clip-path="url(#clip0_16_782)">
<path d="M11.7921 66.1891C12.2042 66.2441 12.5984 66.3462 12.9849 66.4966L12.1159 66.1373C12.5274 66.3084 12.9074 66.5255 13.2654 66.7876L12.5292 66.2304C12.9443 66.5475 13.3078 66.9103 13.6304 67.3177L13.0616 66.5964C13.3801 67.0139 13.6438 67.4595 13.8581 67.9365L13.4914 67.0852C13.7117 67.5997 13.866 68.1294 13.9512 68.6812L13.8213 67.7338C13.8902 68.2435 13.8966 68.75 13.8315 69.2605L13.9615 68.3131C13.8966 68.7467 13.782 69.1628 13.6104 69.5677L13.9771 68.7164C13.824 69.0546 13.6375 69.3688 13.4127 69.6661L13.9815 68.9448C13.7346 69.2552 13.4571 69.5297 13.1439 69.776L13.8802 69.2187C13.5069 69.4991 13.1051 69.7254 12.6729 69.9067L13.5419 69.5474C13.0676 69.7358 12.5793 69.8629 12.0731 69.9368L13.0402 69.8095C12.4545 69.885 11.8696 69.8863 11.2833 69.8156L12.2504 69.9429C11.704 69.868 11.1771 69.733 10.6653 69.5309L11.5343 69.8902C11.0665 69.6956 10.632 69.4517 10.2294 69.1475L10.9656 69.7047C10.6554 69.4599 10.3784 69.1885 10.131 68.8824L10.6998 69.6037C10.4494 69.2784 10.2458 68.9326 10.0833 68.5575L10.4501 69.4088C10.294 69.0216 10.1905 68.6263 10.1337 68.214L10.2636 69.1613C10.2124 68.7119 10.2187 68.2667 10.2761 67.8181L10.1462 68.7655C10.2249 68.2368 10.3707 67.7296 10.5783 67.2357L10.2116 68.087C10.43 67.5932 10.702 67.1332 11.0304 66.7018L10.4616 67.423C10.7957 67.0003 11.1723 66.6233 11.6009 66.292L10.8646 66.8493C11.2328 66.5762 11.6233 66.3477 12.0461 66.1654L11.1771 66.5246C11.5691 66.3659 11.9693 66.2547 12.3887 66.1916L11.4216 66.3189C11.6156 66.2946 11.8084 66.2802 12.0039 66.2754C12.9513 66.252 13.9001 65.894 14.5763 65.2316C15.2073 64.6135 15.6825 63.5994 15.6419 62.7117C15.5554 60.8211 14.042 59.0975 12.0039 59.1479C9.86718 59.2008 8.05048 59.9908 6.41077 61.2872C5.01538 62.3904 4.10371 63.9346 3.47539 65.5532C2.85161 67.1601 2.7971 69.0567 3.23488 70.714C3.75163 72.6702 5.01289 74.1909 6.64229 75.3662C8.04043 76.3747 9.74939 76.7947 11.4475 76.962C13.1782 77.1324 14.8802 76.714 16.4446 76.0194C19.5874 74.6239 21.5242 71.0642 21.0972 67.7338C20.9337 66.4585 20.6572 65.4629 20.1177 64.2883C19.7333 63.4513 19.1691 62.7167 18.5632 62.0199C17.3885 60.6688 15.5351 59.5578 13.7264 59.3162C12.7115 59.1807 11.8468 59.146 10.9231 59.6755C10.1685 60.1081 9.44879 60.9557 9.25125 61.8053C9.03914 62.7175 9.08504 63.7416 9.61798 64.5513C10.0916 65.271 10.8826 66.0676 11.7921 66.1891Z" fill="#01010C"/>
<path d="M15.0977 51.666C12.7574 44.2896 11.1138 36.6607 9.63865 29.0799C9.23841 27.023 8.86165 24.9615 8.51847 22.8947C8.18458 20.8838 7.92955 19.186 7.73736 17.59C7.54199 15.9676 7.37706 14.339 7.30574 12.7064C7.27903 12.0949 7.26344 11.4826 7.27542 10.8706C7.2806 10.6056 7.2978 10.3414 7.30574 10.0767C7.327 9.36816 7.45084 9.52033 7.29023 9.96329C7.35116 9.79525 7.3126 9.56765 7.40654 9.41199C7.7466 8.84861 7.12016 9.67898 7.24313 9.71012C7.24313 9.71012 8.65792 8.15785 8.64906 8.16446C9.22905 7.73153 9.49801 7.66121 10.3512 7.46748C11.1405 7.2883 12.1963 7.26086 13.2997 7.23014C15.456 7.17011 17.2595 7.04977 18.5808 7.98866C18.6075 8.00761 19.2943 8.67117 19.5182 8.885C19.7278 9.08514 19.912 9.15375 19.7775 9.15381C19.5838 9.15388 19.7455 8.95153 19.7588 9.13918C19.7747 9.3634 19.289 8.3048 19.6394 8.89019C19.8948 9.31684 19.6797 9.41336 19.6621 8.73834C19.6921 9.88839 19.7194 10.9976 19.6049 12.1493C19.572 12.48 19.5317 12.8098 19.4908 13.1395C19.4242 13.6765 19.5813 12.5377 19.496 13.0911C19.4721 13.2463 19.4506 13.4018 19.4249 13.5567C19.2776 14.4442 19.1232 15.3297 18.9486 16.2126C18.1834 20.0815 17.1832 23.9063 16.1107 27.7032C13.828 35.7836 11.2935 43.8872 8.08173 51.666C7.34476 53.451 8.88387 55.5818 10.6226 56.0498C12.7015 56.6094 14.358 55.3523 15.0977 53.5608C18.173 46.1126 20.6102 38.3645 22.8307 30.6368C24.052 26.3866 25.1935 22.101 26.0325 17.7608C26.6393 14.621 27.3042 11.2904 26.8498 8.09072C26.2043 3.54534 21.4675 0.667771 17.124 0.192298C11.9823 -0.370557 6.04272 0.117289 2.46105 4.17652C0.164071 6.77977 -0.122483 9.51159 0.0361754 12.8486C0.233003 16.9883 0.884412 21.1209 1.57197 25.2049C3.17454 34.7241 5.1556 44.3379 8.08172 53.5608C9.46696 57.927 16.4929 56.0637 15.0977 51.666Z" fill="#01010C"/>
</g>
<defs>
<clipPath id="clip0_16_782">
<rect width="27" height="77" fill="white"/>
</clipPath>
</defs>
</svg>
