<svg width="40" height="53" viewBox="0 0 40 53" fill="none" xmlns="http://www.w3.org/2000/svg">
<g clip-path="url(#clip0_29_37)">
<path d="M5.81698 49.8491C5.54479 34.0403 5.27261 18.2314 5.00042 2.42252L0.73265 4.19029C12.111 14.0697 23.4893 23.9491 34.8677 33.8285L37.3001 29.65C33.2815 28.6095 29.2595 27.5825 25.2337 26.5707C21.686 25.679 17.4465 24.1671 14.6924 27.5266C13.5125 28.9659 12.7126 30.7296 11.8084 32.3462C10.7538 34.2317 9.69929 36.1171 8.64474 38.0025C6.61674 41.6283 4.58875 45.2541 2.56075 48.8799C0.9883 51.6913 5.30547 54.2152 6.8781 51.4035C10.5282 44.8776 14.1352 38.3253 17.8293 31.8242C18.397 30.825 18.6321 30.2515 19.8532 30.4108C21.5357 30.6303 23.2276 31.2212 24.8706 31.6352C28.5738 32.5682 32.2738 33.5141 35.9709 34.4714C38.2623 35.0647 40.3633 31.9948 38.4032 30.2929C27.0249 20.4135 15.6465 10.5341 4.26819 0.654759C2.70198 -0.705131 -0.03897 0.134409 0.000419955 2.42252C0.27261 18.2314 0.54479 34.0403 0.81698 49.8491C0.87231 53.063 5.87249 53.0732 5.81698 49.8491Z" fill="#4831D4"/>
</g>
<defs>
<clipPath id="clip0_29_37">
<rect width="39.1795" height="52.6305" fill="white"/>
</clipPath>
</defs>
</svg>
