<svg width="51" height="59" viewBox="0 0 51 59" fill="none" xmlns="http://www.w3.org/2000/svg">
<g clip-path="url(#clip0_17_1020)">
<path d="M28.4633 44.5515C34.8252 34.8372 41.1871 25.1228 47.549 15.4084C49.0996 13.0406 50.3449 10.9267 50.2261 8.0123C50.1665 6.5498 50.2896 5.09129 49.9524 3.64838C49.0345 -0.279837 45.0188 -0.447407 41.782 0.442413C40.6485 0.754013 39.4941 0.975873 38.4282 1.52503C37.3527 2.07914 36.4138 2.95313 35.5832 3.82118C33.656 5.83545 31.7847 7.90564 29.8746 9.93641C25.9809 14.0759 22.0585 18.1884 18.1553 22.319C16.1475 24.4438 14.1447 26.5734 12.1535 28.7137C11.1767 29.7637 10.3549 30.5126 9.13724 31.2703C7.9766 31.9926 6.63763 32.6439 5.64141 33.5924C3.49291 35.6381 4.27237 38.4156 6.35785 40.1127C7.48592 41.0307 8.63109 41.9284 9.76996 42.8329C12.9013 45.32 16.0393 47.7987 19.1664 50.2911C20.9438 51.7077 23.0488 53.8592 25.4926 52.521C26.9087 51.7455 27.2837 50.2246 27.6093 48.7749C27.967 47.1821 28.3247 45.5893 28.6824 43.9964L28.0395 45.0996L28.0724 45.0575C28.9025 43.9944 29.1092 42.5588 28.0724 41.522C27.2081 40.6577 25.3725 40.4517 24.5368 41.522C23.6951 42.6 23.5648 43.9861 23.2708 45.2954C23.1277 45.9325 22.9846 46.5697 22.8416 47.2068C22.77 47.5253 22.7008 47.8445 22.6269 48.1625C22.3997 49.141 22.4254 48.2144 23.2209 48.0311H24.5501C23.8872 47.9406 22.9264 46.934 22.2035 46.3586C21.0802 45.4645 19.9556 44.5722 18.8308 43.6801C16.4453 41.788 14.0577 39.8985 11.6759 38.0017C11.4083 37.7886 9.45985 35.9241 9.20454 35.9984C9.07311 36.0366 9.1654 37.261 9.06701 37.2194C9.06416 37.2182 9.52613 36.9165 9.58848 36.8773C10.0704 36.5738 10.5556 36.2754 11.0391 35.9746C12.0949 35.3176 13.304 34.7252 14.1974 33.8573C17.5611 30.5893 20.6402 26.9608 23.8672 23.5548C27.1617 20.0777 30.4634 16.6074 33.7438 13.117C35.3569 11.4007 36.9624 9.67735 38.5641 7.95035C39.1417 7.32746 39.7204 6.63336 40.4215 6.14703C41.1248 5.65911 41.9236 5.61062 42.7339 5.37198C43.3842 5.18046 44.2154 4.96676 44.6289 4.93505C44.7524 4.92558 45.517 4.89403 45.2123 4.90449C44.826 4.91776 45.2982 4.90591 45.2692 4.92136C45.4896 4.99179 45.4998 4.98662 45.3 4.90585C45.1351 4.82771 45.1109 4.8192 45.2274 4.88035C45.2644 4.91494 44.9076 4.5433 45.2506 4.91996C45.0111 4.65699 45.0518 4.70192 45.0145 4.56643C45.0683 4.76196 45.119 4.95661 45.1672 5.15383C45.1995 5.2861 45.2058 5.61853 45.157 5.05446C45.1686 5.18912 45.1848 5.32442 45.1892 5.45958C45.2276 6.63946 45.4409 8.05992 45.2556 9.21073C45.1113 10.1063 44.5073 10.9219 44.0285 11.6663C43.3649 12.6977 42.6853 13.7191 42.0134 14.745C36.0576 23.8393 30.1018 32.9336 24.1459 42.0279C22.3779 44.7276 26.7055 47.2356 28.4633 44.5515Z" fill="white"/>
<path d="M22.1179 18.489C17.9365 18.6295 13.7551 18.7699 9.57371 18.9103C7.56065 18.9779 5.4621 19.0234 3.74392 20.2191C2.22253 21.2779 1.21714 22.8145 0.324395 24.4071C-0.164665 25.2795 -0.151375 26.7548 0.715305 27.4366C3.41182 29.5581 6.10836 31.6796 8.80488 33.8011C9.86499 34.6351 11.306 34.8355 12.3404 33.8011C13.2075 32.934 13.4074 31.105 12.3404 30.2656C9.64389 28.1441 6.94736 26.0226 4.25083 23.9011L4.64174 26.9307C5.20696 25.9223 5.84982 24.6315 6.76213 24.2244C7.98296 23.6797 9.77884 23.9034 11.1417 23.8577C14.8005 23.7348 18.4592 23.6119 22.1179 23.489C23.4678 23.4437 24.6179 22.3725 24.6179 20.989C24.6179 19.6696 23.4736 18.4435 22.1179 18.489Z" fill="white"/>
<path d="M32.181 31.2475L34.4027 41.602C34.581 42.4329 34.76 43.2637 34.9376 44.0947C35.084 44.78 35.3328 45.5824 35.19 46.2958C34.9891 47.2997 33.8149 48.2728 33.045 48.9988H36.5806C33.8685 46.8971 31.1565 44.7955 28.4444 42.6939C27.3783 41.8678 25.9482 41.6546 24.9089 42.6939C24.0474 43.5554 23.8355 45.3977 24.9089 46.2295C27.6209 48.3311 30.333 50.4327 33.045 52.5343C34.1383 53.3814 35.4952 53.5576 36.5806 52.5343C37.9608 51.2328 39.3059 49.7948 39.8935 47.9463C40.5404 45.9112 39.9859 43.8231 39.5533 41.8068C38.703 37.8439 37.8527 33.8811 37.0024 29.9183C36.7191 28.5976 35.1753 27.8291 33.9271 28.1722C32.5613 28.5475 31.8969 29.9229 32.181 31.2475Z" fill="white"/>
<path d="M13.6982 42.399C10.6148 42.8314 7.58845 43.6958 5.75359 46.4174C4.8748 47.7208 4.73906 49.2814 4.52728 50.7909C4.30797 52.3541 4.08867 53.9172 3.86936 55.4803C3.74083 56.3964 3.81998 57.2203 4.51229 57.9127C5.13336 58.5337 6.09379 58.8076 6.94466 58.5556C7.14815 58.4953 7.35166 58.4419 7.56 58.401C8.21493 58.2725 7.18459 58.3985 7.70642 58.3792C8.07479 58.3657 8.44133 58.3391 8.8104 58.3374C9.60861 58.3338 10.4078 58.3743 11.2053 58.3255C13.183 58.2046 15.1755 57.5982 16.5171 56.0527C17.8225 54.549 18.4755 52.7285 18.6183 50.756C18.7626 48.763 18.2379 46.7491 17.7251 44.8402C17.3859 43.5774 15.9291 42.6801 14.6498 43.0941C13.3541 43.5134 12.5401 44.816 12.9037 46.1694C13.1168 46.9626 13.3295 47.7569 13.4859 48.5637C13.5266 48.7735 13.5594 48.9843 13.5956 49.1948C13.6477 49.4981 13.5749 48.7791 13.5971 49.2695C13.6164 49.6959 13.6495 50.1155 13.6304 50.5431C13.6227 50.7159 13.5813 50.9163 13.5867 51.0893L13.6278 50.7576C13.609 50.8685 13.5874 50.9789 13.5631 51.0888C13.4956 51.3935 13.3933 51.6812 13.299 51.9779C13.2075 52.2657 13.543 51.5236 13.318 51.9197C13.2357 52.0647 13.1643 52.2151 13.0769 52.3575C13.034 52.4284 12.9889 52.4979 12.9416 52.5659C12.8354 52.7185 12.884 52.6603 13.0873 52.3913C12.9713 52.4827 12.8635 52.6512 12.7574 52.7568L12.639 52.8701C12.436 53.0443 12.4777 53.0179 12.764 52.7909C12.7655 52.8428 12.4554 52.9926 12.4166 53.015C12.3409 53.06 12.2634 53.1017 12.1841 53.1402C12.4826 53.024 12.5449 52.9987 12.3712 53.0641C12.2304 53.108 12.0927 53.161 11.9501 53.2C11.8862 53.2175 11.4964 53.3622 11.4313 53.3146C11.7728 53.2747 11.8471 53.2655 11.654 53.2872C11.5647 53.2977 11.4752 53.3063 11.3856 53.313C11.0218 53.3421 10.6566 53.349 10.2919 53.3496C8.72193 53.3522 7.14149 53.2823 5.61542 53.7342L8.69072 56.8095C8.88453 55.4281 9.07833 54.0468 9.27214 52.6654C9.36832 51.9799 9.45918 51.2934 9.5617 50.6088C9.60829 50.2977 9.65904 49.9864 9.73682 49.6813C9.75547 49.6081 9.89488 49.0366 9.79923 49.4033C9.71854 49.7127 9.85591 49.2963 9.8951 49.2264C9.94988 49.1287 10.0122 49.0363 10.0709 48.941C10.3458 48.4946 9.82346 49.1803 10.0399 48.9834C10.1594 48.8746 10.5389 48.5983 10.5839 48.4534C10.3208 48.6489 10.2641 48.6924 10.4139 48.5838C10.4596 48.5499 10.5062 48.5174 10.5537 48.4861C10.6715 48.4063 10.7916 48.33 10.9147 48.2585C11.013 48.2013 11.1129 48.1465 11.214 48.0944C11.2375 48.0822 11.7374 47.8498 11.3935 47.9996C11.0415 48.1529 11.5738 47.9385 11.647 47.9135C11.8067 47.8589 11.9682 47.8095 12.1305 47.7633C12.4233 47.68 12.7195 47.6094 13.0175 47.5472C13.6821 47.4083 14.3553 47.3147 15.0273 47.2204C15.6018 47.1399 16.2436 46.5463 16.5214 46.0715C16.835 45.5357 16.9678 44.7459 16.7734 44.1451C16.5777 43.5402 16.2028 42.9566 15.6245 42.6511C14.9883 42.3149 14.4037 42.3001 13.6982 42.399Z" fill="white"/>
<path d="M38.696 13.2645C38.9829 13.4472 39.2929 13.5462 39.6256 13.5613C39.9579 13.6357 40.2902 13.6208 40.6225 13.5166C40.9478 13.4393 41.2312 13.2901 41.4726 13.0692C41.7448 12.8929 41.9594 12.6591 42.1165 12.3677L42.3686 11.7705C42.4876 11.3275 42.4876 10.8844 42.3686 10.4413L42.1165 9.84413C41.8943 9.46846 41.5953 9.1695 41.2197 8.94725C40.9327 8.76456 40.6228 8.6656 40.2901 8.65051C39.9578 8.57609 39.6255 8.59098 39.2932 8.69516C38.9678 8.77251 38.6844 8.92167 38.443 9.14265C38.1708 9.31893 37.9562 9.55273 37.7991 9.84406L37.5471 10.4413C37.428 10.8843 37.428 11.3274 37.5471 11.7705L37.7991 12.3677C38.0213 12.7433 38.3203 13.0423 38.696 13.2645Z" fill="white"/>
</g>
<defs>
<clipPath id="clip0_17_1020">
<rect width="50.234" height="58.6489" fill="white"/>
</clipPath>
</defs>
</svg>
