<svg width="49" height="49" viewBox="0 0 49 49" fill="none" xmlns="http://www.w3.org/2000/svg">
<g clip-path="url(#clip0_18_2)">
<path d="M24.6536 5.52673e-07C14.6228 0.00629596 5.23896 6.42231 1.57697 15.745C-2.0406 24.9546 0.723899 36.4975 8.24956 42.9547C15.894 49.5138 27.3499 51.0069 36.2368 46.0923C45.0195 41.2353 50.17 31.0604 48.7727 21.1355C47.9544 15.3237 44.9734 9.70902 40.4234 5.9593C35.6858 2.05487 29.5993 -0.0483846 23.4477 0.327326C20.5597 0.503705 20.5397 5.02101 23.4477 4.8434C32.5744 4.28599 41.0242 10.0203 43.6608 18.8224C46.054 26.8119 43.0481 35.5252 36.4431 40.5839C29.8668 45.6206 20.6405 45.6758 13.6773 41.3739C6.65177 37.0335 3.21073 28.1431 4.96553 20.1364C6.94278 11.1146 15.4681 4.52184 24.6536 4.51607C27.5599 4.51425 27.5649 -0.00182394 24.6536 5.52673e-07Z" fill="white"/>
<path d="M12.8421 32.7276C15.8537 35.7961 20.0311 37.5356 24.3191 37.6566C28.8171 37.7835 33.0941 35.9383 36.2159 32.7277C38.2433 30.6426 35.0527 27.4459 33.022 29.5344C30.6834 31.9395 27.6568 33.2347 24.3191 33.1405C21.2246 33.0532 18.2202 31.7597 16.0359 29.5343C13.9967 27.4566 10.8035 30.6507 12.8421 32.7276Z" fill="white"/>
<path d="M16.8639 14.5242C16.4032 14.6417 16.0321 14.8826 15.6901 15.2049C15.5308 15.3549 15.3899 15.5383 15.2846 15.7311C15.2279 15.8349 15.1979 15.9236 15.1457 16.0472C15.1085 16.1355 15.0389 16.2715 15.0076 16.3835C14.9441 16.6107 14.9066 16.8549 14.9105 17.0889C14.9108 17.1128 14.9125 17.1355 14.9139 17.1595C14.9234 17.324 14.9561 17.6375 15.0008 17.7946C15.0596 18.0008 15.1608 18.234 15.2604 18.4224C15.3711 18.6319 15.5276 18.8211 15.6887 18.9925C15.8817 19.1978 16.1144 19.3831 16.3709 19.5022C16.5714 19.5953 16.7887 19.7076 17.0053 19.7602C17.1206 19.7882 17.2573 19.7979 17.3641 19.8123C17.4803 19.8279 17.6242 19.857 17.7515 19.8598C18.0612 19.8665 18.3854 19.8213 18.6799 19.7221C18.9385 19.6351 19.2701 19.5085 19.516 19.3447C19.9951 19.0254 20.4698 18.6135 20.7207 18.0818C20.944 17.6088 21.0798 17.2383 21.0739 16.6996C21.0728 16.5935 21.0361 16.3998 21.0304 16.3577C21.0174 16.2607 21.0061 16.1097 20.9787 15.9955C20.9226 15.7618 20.819 15.5276 20.6998 15.3233C20.6858 15.2993 20.671 15.2776 20.6557 15.2546C20.5532 15.1001 20.4015 14.9024 20.2771 14.7655C20.123 14.5959 19.8961 14.4469 19.7316 14.3258C19.6922 14.2968 19.6541 14.2689 19.6105 14.2458C19.5076 14.1914 19.3841 14.1469 19.2847 14.105C19.1741 14.0583 19.0495 13.9961 18.9283 13.9604C18.3345 13.7854 17.6305 13.8143 17.0404 13.9862C16.9841 14.0027 16.9295 14.0229 16.875 14.0443C16.6546 14.1307 16.4265 14.2167 16.2166 14.3277C16.1717 14.3515 16.1282 14.3779 16.0864 14.4068C15.89 14.543 15.687 14.6925 15.5105 14.8542C15.4673 14.8937 15.4297 14.9371 15.3926 14.9821C15.2497 15.1554 15.0932 15.3356 14.9784 15.5301C14.8265 15.7877 14.6977 16.0801 14.6387 16.3761C14.5994 16.5729 14.5666 16.8195 14.5523 17.0194C14.5502 17.0483 14.5479 17.0765 14.5481 17.1057C14.5498 17.335 14.595 17.5897 14.6381 17.8134C14.6665 17.9609 14.73 18.081 14.7905 18.2243C14.8487 18.362 14.8954 18.5014 14.9755 18.6269C15.2196 19.0092 15.3851 19.1732 15.711 19.4249C16.0674 19.7002 16.2519 19.7922 16.7106 19.9654C16.8973 20.0359 17.072 20.0515 17.2741 20.0787C17.5056 20.1098 17.7021 20.1429 17.9305 20.1172C18.2368 20.0827 18.5542 20.0561 18.8503 19.9621C19.1573 19.8645 19.4532 19.726 19.7468 19.5956C19.9573 19.5021 20.168 19.4019 20.3569 19.2689C20.582 19.1105 20.8182 18.9457 21.014 18.7496C21.1135 18.6501 21.1955 18.5298 21.2803 18.4201C21.3644 18.3113 21.472 18.1932 21.5383 18.0654C21.7792 17.6008 21.8911 17.1975 21.9217 16.6753C21.9394 16.3735 21.8991 16.054 21.7938 15.7704C21.6087 15.272 21.4345 14.9433 21.063 14.5473C20.8597 14.3307 20.6114 14.1393 20.3488 14.0002C20.0954 13.866 19.8102 13.7264 19.5219 13.6708C19.2747 13.623 19.0114 13.5835 18.7593 13.5712C18.6825 13.5675 18.6055 13.5704 18.5291 13.5782C18.1938 13.6127 17.8496 13.6472 17.5243 13.7426C17.3655 13.7892 17.2106 13.8477 17.056 13.9066C16.7621 13.9765 16.5061 14.1112 16.288 14.3108C16.0421 14.47 15.8483 14.6812 15.7063 14.9443C15.5413 15.2035 15.452 15.4834 15.4383 15.7839C15.3711 16.084 15.3846 16.3841 15.4787 16.6843C15.6555 17.2306 15.9942 17.7578 16.5166 18.0337L17.056 18.2614C17.4563 18.3689 17.8565 18.3689 18.2568 18.2614C18.5167 18.1623 18.7775 18.0674 19.0531 18.023L18.4527 18.1037C18.5899 18.0855 18.7243 18.0815 18.862 18.0964L18.2616 18.0157C18.3569 18.03 18.4456 18.0552 18.5348 18.0918L17.9953 17.8642C18.0703 17.8985 18.1396 17.9386 18.2066 17.9869L17.7495 17.6338C17.8131 17.6838 17.8693 17.738 17.9205 17.8007L17.5674 17.3437C17.6065 17.3966 17.6388 17.4505 17.666 17.5104L17.4383 16.971C17.4572 17.0197 17.4711 17.0675 17.4809 17.1188L17.4002 16.5186C17.4086 16.5847 17.4084 16.6474 17.4002 16.7135L17.4808 16.1132C17.4717 16.1632 17.4589 16.2101 17.4414 16.2578L17.6691 15.7184C17.6392 15.7884 17.6021 15.8511 17.5567 15.9123L17.9098 15.4553C17.8434 15.5377 17.7683 15.6085 17.6855 15.6743L18.1426 15.3212C17.9089 15.4976 17.6411 15.6222 17.373 15.7369L17.9125 15.5092C17.7238 15.5873 17.5325 15.6507 17.3301 15.6818L17.9305 15.6011C17.8108 15.6155 17.6938 15.6185 17.5742 15.603L18.1746 15.6836C18.0834 15.6685 17.9973 15.6448 17.9113 15.6106L18.4508 15.8383C18.3673 15.8015 18.2917 15.7576 18.2193 15.7019L18.6763 16.055C18.6276 16.014 18.5845 15.9704 18.5446 15.9209L18.8977 16.3779C18.8601 16.3261 18.8299 16.2733 18.8045 16.2147L19.0322 16.7541C19.0125 16.7005 18.9992 16.6478 18.9901 16.5915L19.0708 17.1918C19.0636 17.1186 19.0652 17.0491 19.0748 16.9763L18.9941 17.5766C19.0078 17.5039 19.0281 17.436 19.056 17.3676L18.8284 17.907C18.8597 17.8398 18.896 17.7784 18.9396 17.7185L18.5864 18.1755C18.6417 18.1069 18.7022 18.0471 18.7706 17.9916L18.3135 18.3447C18.4076 18.2742 18.5073 18.2181 18.6152 18.1714L18.0757 18.399C18.2054 18.3474 18.338 18.3119 18.476 18.2905L17.8756 18.3711C17.9778 18.3589 18.0771 18.3562 18.1797 18.3659L17.5793 18.2852C17.6609 18.2971 17.7375 18.3159 17.8142 18.3459L17.2747 18.1183C17.3388 18.1478 17.3961 18.1823 17.4519 18.2253L16.9948 17.8722C17.037 17.9089 17.0739 17.9472 17.1087 17.991L16.7555 17.534C16.7793 17.5684 16.7991 17.6016 16.8179 17.639L16.5902 17.0996C16.6118 17.152 16.6258 17.2022 16.6346 17.2581L16.5539 16.6578C16.5571 16.7006 16.5571 16.7395 16.5537 16.7823L16.6344 16.182C16.6259 16.2377 16.6123 16.289 16.5929 16.3418L16.8205 15.8024C16.7916 15.8686 16.7567 15.9283 16.7148 15.987L17.0679 15.53C17.0034 15.6121 16.9319 15.6824 16.8503 15.7474L17.3074 15.3943C17.2068 15.4688 17.0999 15.529 16.9847 15.5779L17.5242 15.3503C17.4484 15.379 17.3733 15.4005 17.2936 15.4149L17.894 15.3342C17.8164 15.3439 17.7418 15.3456 17.6642 15.3365L18.2646 15.4172C18.2114 15.4076 18.1617 15.394 18.111 15.375L18.6505 15.6026C18.6013 15.5808 18.5565 15.5558 18.5122 15.5252L18.9693 15.8783C18.9275 15.8451 18.8917 15.8103 18.8578 15.769L19.2109 16.226C19.1878 16.193 19.1695 16.1618 19.152 16.1255L19.3797 16.6649C19.3661 16.6289 19.3568 16.597 19.35 16.5592L19.4307 17.1595C19.4273 17.1229 19.4272 17.0901 19.4299 17.0534L19.3493 17.6537C19.3568 17.6057 19.3689 17.5624 19.3873 17.5175L19.1597 18.0569C19.176 18.0245 19.193 17.9966 19.2143 17.9673L18.8612 18.4243C18.8848 18.3972 18.9074 18.3754 18.9356 18.3531L18.4785 18.7062C18.4971 18.6928 18.5169 18.6814 18.5378 18.6722L17.9983 18.8998C18.0196 18.8904 18.0417 18.8834 18.0646 18.8789C18.3585 18.8091 18.6145 18.6744 18.8326 18.4748C19.0784 18.3156 19.2723 18.1044 19.4143 17.8412C19.5793 17.5821 19.6686 17.3022 19.6823 17.0017C19.7495 16.7016 19.736 16.4014 19.6419 16.1013C19.4651 15.5549 19.1264 15.0278 18.604 14.7518C18.0605 14.4647 17.4688 14.3698 16.8639 14.5242Z" fill="white"/>
<path d="M29.5959 14.5242C29.1352 14.6417 28.7641 14.8826 28.4221 15.2049C28.2629 15.3549 28.122 15.5383 28.0166 15.7311C27.9599 15.8349 27.93 15.9236 27.8778 16.0472C27.8405 16.1355 27.7709 16.2715 27.7396 16.3835C27.6761 16.6107 27.6387 16.8549 27.6425 17.0889C27.6429 17.1128 27.6445 17.1355 27.6459 17.1595C27.6555 17.324 27.6882 17.6375 27.7329 17.7946C27.7916 18.0008 27.8929 18.234 27.9924 18.4224C28.1031 18.6319 28.2596 18.8211 28.4207 18.9925C28.6138 19.1978 28.8465 19.3831 29.1029 19.5022C29.3034 19.5953 29.5207 19.7076 29.7374 19.7602C29.8527 19.7882 29.9893 19.7979 30.0961 19.8123C30.2123 19.8279 30.3563 19.857 30.4835 19.8598C30.7933 19.8665 31.1174 19.8213 31.4119 19.7221C31.6706 19.6351 32.0022 19.5085 32.248 19.3447C32.7271 19.0254 33.2018 18.6135 33.4528 18.0818C33.6761 17.6088 33.8119 17.2383 33.806 16.6996C33.8048 16.5935 33.7681 16.3998 33.7625 16.3577C33.7495 16.2607 33.7382 16.1097 33.7108 15.9955C33.6546 15.7618 33.551 15.5276 33.4319 15.3233C33.4179 15.2993 33.403 15.2776 33.3878 15.2546C33.2852 15.1001 33.1335 14.9024 33.0091 14.7655C32.855 14.5959 32.6282 14.4469 32.4637 14.3258C32.4243 14.2968 32.3861 14.2689 32.3426 14.2458C32.2397 14.1914 32.1161 14.1469 32.0168 14.105C31.9062 14.0583 31.7816 13.9961 31.6604 13.9604C31.0666 13.7854 30.3625 13.8143 29.7725 13.9862C29.7162 14.0027 29.6616 14.0229 29.607 14.0443C29.3867 14.1307 29.1586 14.2167 28.9487 14.3277C28.9037 14.3515 28.8602 14.3779 28.8185 14.4068C28.6221 14.543 28.4191 14.6925 28.2425 14.8542C28.1994 14.8937 28.1617 14.9371 28.1246 14.9821C27.9818 15.1554 27.8252 15.3356 27.7105 15.5301C27.5585 15.7877 27.4298 16.0801 27.3707 16.3761C27.3315 16.5729 27.2987 16.8195 27.2844 17.0194C27.2823 17.0483 27.2799 17.0765 27.2802 17.1057C27.2818 17.335 27.327 17.5897 27.3701 17.8134C27.3986 17.9609 27.4621 18.081 27.5226 18.2243C27.5807 18.362 27.6275 18.5014 27.7076 18.6269C27.9517 19.0092 28.1172 19.1732 28.4431 19.4249C28.7994 19.7002 28.9839 19.7922 29.4427 19.9654C29.6294 20.0359 29.804 20.0515 30.0061 20.0787C30.2376 20.1098 30.4341 20.1429 30.6625 20.1172C30.9688 20.0827 31.2863 20.0561 31.5824 19.9621C31.8894 19.8645 32.1852 19.726 32.4788 19.5956C32.6893 19.5021 32.9 19.4019 33.089 19.2689C33.314 19.1105 33.5503 18.9457 33.7461 18.7496C33.8455 18.6501 33.9276 18.5298 34.0123 18.4201C34.0964 18.3113 34.2041 18.1932 34.2704 18.0654C34.5113 17.6008 34.6232 17.1975 34.6538 16.6753C34.6715 16.3735 34.6312 16.054 34.5259 15.7704C34.3407 15.272 34.1665 14.9433 33.795 14.5473C33.5918 14.3307 33.3435 14.1393 33.0808 14.0002C32.8274 13.866 32.5423 13.7264 32.254 13.6708C32.0068 13.623 31.7434 13.5835 31.4913 13.5712C31.4145 13.5675 31.3376 13.5704 31.2612 13.5782C30.9259 13.6127 30.5816 13.6472 30.2563 13.7426C30.0975 13.7892 29.9426 13.8477 29.7881 13.9066C29.4942 13.9765 29.2382 14.1112 29.0201 14.3108C28.7742 14.47 28.5803 14.6812 28.4384 14.9443C28.2734 15.2035 28.184 15.4834 28.1704 15.7839C28.1032 16.084 28.1166 16.3841 28.2107 16.6843C28.3876 17.2306 28.7262 17.7578 29.2486 18.0337L29.7881 18.2614C30.1884 18.3689 30.5886 18.3689 30.9889 18.2614C31.2487 18.1623 31.5095 18.0674 31.7852 18.023L31.1848 18.1037C31.322 18.0855 31.4563 18.0815 31.594 18.0964L30.9937 18.0157C31.089 18.03 31.1777 18.0552 31.2668 18.0918L30.7273 17.8642C30.8024 17.8985 30.8717 17.9386 30.9386 17.9869L30.4815 17.6338C30.5452 17.6838 30.6013 17.738 30.6526 17.8007L30.2994 17.3437C30.3386 17.3966 30.3708 17.4505 30.398 17.5104L30.1704 16.971C30.1893 17.0197 30.2031 17.0675 30.2129 17.1188L30.1323 16.5186C30.1407 16.5847 30.1404 16.6474 30.1322 16.7135L30.2129 16.1132C30.2037 16.1632 30.1909 16.2101 30.1735 16.2578L30.4012 15.7184C30.3713 15.7884 30.3341 15.8511 30.2888 15.9123L30.6419 15.4553C30.5755 15.5377 30.5003 15.6085 30.4176 15.6743L30.8746 15.3212C30.6409 15.4976 30.3732 15.6222 30.1051 15.7369L30.6446 15.5092C30.4558 15.5873 30.2646 15.6507 30.0622 15.6818L30.6625 15.6011C30.5429 15.6155 30.4259 15.6185 30.3063 15.603L30.9067 15.6836C30.8154 15.6685 30.7294 15.6448 30.6434 15.6106L31.1829 15.8383C31.0993 15.8015 31.0237 15.7576 30.9513 15.7019L31.4084 16.055C31.3597 16.014 31.3166 15.9704 31.2766 15.9209L31.6297 16.3779C31.5922 16.3261 31.5619 16.2733 31.5366 16.2147L31.7642 16.7541C31.7446 16.7005 31.7312 16.6478 31.7222 16.5915L31.8028 17.1918C31.7956 17.1186 31.7972 17.0491 31.8069 16.9763L31.7262 17.5766C31.7398 17.5039 31.7601 17.436 31.7881 17.3676L31.5604 17.907C31.5918 17.8398 31.628 17.7784 31.6716 17.7185L31.3185 18.1755C31.3737 18.1069 31.4342 18.0471 31.5026 17.9916L31.0456 18.3447C31.1397 18.2742 31.2394 18.2181 31.3472 18.1714L30.8077 18.399C30.9375 18.3474 31.07 18.3119 31.208 18.2905L30.6077 18.3711C30.7098 18.3589 30.8092 18.3562 30.9117 18.3659L30.3114 18.2852C30.3929 18.2971 30.4696 18.3159 30.5462 18.3459L30.0068 18.1183C30.0709 18.1478 30.1282 18.1823 30.1839 18.2253L29.7269 17.8722C29.7691 17.9089 29.806 17.9472 29.8407 17.991L29.4876 17.534C29.5114 17.5684 29.5312 17.6016 29.5499 17.639L29.3223 17.0996C29.3439 17.152 29.3579 17.2022 29.3666 17.2581L29.286 16.6578C29.2892 16.7006 29.2892 16.7395 29.2858 16.7823L29.3665 16.182C29.3579 16.2377 29.3444 16.289 29.3249 16.3418L29.5526 15.8024C29.5236 15.8686 29.4888 15.9283 29.4468 15.987L29.7999 15.53C29.7355 15.6121 29.664 15.6824 29.5824 15.7474L30.0394 15.3943C29.9388 15.4688 29.832 15.529 29.7168 15.5779L30.2562 15.3503C30.1805 15.379 30.1054 15.4005 30.0257 15.4149L30.626 15.3342C30.5484 15.3439 30.4739 15.3456 30.3963 15.3365L30.9966 15.4172C30.9434 15.4076 30.8937 15.394 30.8431 15.375L31.3826 15.6026C31.3333 15.5808 31.2886 15.5558 31.2442 15.5252L31.7013 15.8783C31.6595 15.8451 31.6237 15.8103 31.5899 15.769L31.943 16.226C31.9199 16.193 31.9016 16.1618 31.8841 16.1255L32.1118 16.6649C32.0981 16.6289 32.0889 16.597 32.082 16.5592L32.1627 17.1595C32.1594 17.1229 32.1592 17.0901 32.162 17.0534L32.0813 17.6537C32.0889 17.6057 32.101 17.5624 32.1194 17.5175L31.8917 18.0569C31.9081 18.0245 31.925 17.9966 31.9464 17.9673L31.5933 18.4243C31.6169 18.3972 31.6395 18.3754 31.6676 18.3531L31.2105 18.7062C31.2291 18.6928 31.2489 18.6814 31.2698 18.6722L30.7304 18.8998C30.7517 18.8904 30.7738 18.8834 30.7966 18.8789C31.0905 18.8091 31.3465 18.6744 31.5646 18.4748C31.8105 18.3156 32.0044 18.1044 32.1463 17.8412C32.3113 17.5821 32.4007 17.3022 32.4143 17.0017C32.4815 16.7016 32.4681 16.4014 32.374 16.1013C32.1971 15.5549 31.8585 15.0278 31.3361 14.7518C30.7925 14.4647 30.2009 14.3698 29.5959 14.5242Z" fill="white"/>
</g>
<defs>
<clipPath id="clip0_18_2">
<rect width="49" height="49" fill="white"/>
</clipPath>
</defs>
</svg>
