<svg width="50" height="50" viewBox="0 0 50 50" fill="none" xmlns="http://www.w3.org/2000/svg">
<g clip-path="url(#clip0_82_2)">
<path d="M-73 68.0741H123.466V-131H-73V68.0741Z" fill="#91DDF7"/>
<mask id="mask0_82_2" style="mask-type:luminance" maskUnits="userSpaceOnUse" x="-73" y="-131" width="197" height="200">
<path d="M-73 -131H123.466V68.0741H-73V-131Z" fill="white"/>
</mask>
<g mask="url(#mask0_82_2)">
<path d="M-1.79537 -5.10628C-1.35686 -6.64632 -1.77848 -8.26041 -3.52152 -9.3605C-5.4123 -10.5537 -8.05752 -10.455 -9.97855 -9.28326C-10.4135 -10.1341 -11.2465 -10.8559 -12.0352 -11.3397C-12.511 -11.6315 -12.9927 -11.7522 -13.4407 -11.7275C-13.3483 -13.2301 -13.7994 -14.7534 -14.865 -15.7958C-15.6635 -16.5777 -16.6564 -17.0089 -17.6721 -17.1192C-17.8902 -18.1763 -18.4297 -19.2015 -19.1708 -19.7924C-19.8792 -20.357 -21.0081 -20.7499 -21.9394 -20.5234C-23.3182 -22.2199 -26.1312 -22.4819 -28.1685 -22.2171C-30.9615 -21.854 -32.4526 -20.126 -32.956 -17.7483C-33.9191 -18.3328 -35.1882 -18.2575 -36.1391 -17.4242C-37.0047 -16.6661 -37.4095 -15.3956 -37.1847 -14.2732C-38.389 -14.6591 -39.7376 -14.5209 -40.9608 -13.6951C-41.7309 -13.1752 -42.285 -12.437 -42.6441 -11.6017C-44.5101 -12.8897 -47.1758 -13.2878 -49.1015 -12.6006C-52.2399 -11.4814 -53.434 -8.76765 -53.2151 -5.84445C-53.7884 -5.99415 -54.3774 -5.94041 -54.9189 -5.47577C-55.3621 -5.09553 -55.5562 -4.46885 -55.5279 -3.84814C-59.0529 -3.50055 -61.7618 0.460226 -61.1166 3.93646C-60.7759 5.77073 -59.6022 7.30758 -57.8603 7.96492C-57.6427 8.04694 -57.4034 8.11741 -57.1539 8.17554C-57.0328 9.35605 -56.6501 10.4904 -55.922 11.4463C-54.3668 13.4884 -51.7082 12.7686 -49.9538 11.42C-49.7389 11.7867 -49.3943 12.0567 -48.8536 12.1347C-47.9404 12.2661 -47.0209 11.6753 -46.4913 10.8901C-46.098 12.2924 -45.4068 13.5772 -44.0979 14.3632C-42.8217 15.1296 -41.2716 15.0587 -39.914 14.5041C-39.3238 16.3061 -37.4908 17.96 -35.8861 18.2869C-33.2157 18.8316 -30.9226 17.1032 -29.4451 14.9257C-27.7111 16.641 -25.4062 17.6861 -22.8502 17.7032C-20.8348 17.7168 -18.3979 16.7242 -17.3492 14.9859C-16.2203 15.1937 -14.757 14.7044 -14.065 14.0494C-13.5012 13.5167 -13.065 12.4043 -12.953 11.2926C-11.6029 11.4849 -10.1695 11.3261 -9.0866 10.9307C-6.79542 10.095 -4.80837 7.95138 -4.39815 5.49322C-2.4445 5.04689 -0.517951 3.38422 0.128813 1.70961C0.943752 -0.400173 0.298951 -4.08902 -1.79537 -5.10628Z" fill="#00B34F"/>
<path d="M52.0572 18.8067C51.6042 18.4126 51.0246 18.0276 50.3963 17.7266C51.9032 14.6903 50.7928 10.6427 47.9464 8.62092C46.135 7.3341 43.8618 7.05381 41.7773 7.58056C41.5832 6.57205 41.01 5.6794 39.9538 5.24701C39.2068 4.94123 38.4618 4.95676 37.7679 5.18012C37.0618 2.48784 35.4641 0.12165 32.8048 -0.974054C29.7819 -2.21946 26.598 -1.07638 24.2507 1.03022C23.1021 -0.198861 21.6223 -1.02303 19.9457 -0.406695C18.4207 0.1535 17.3076 1.25757 16.6137 2.62122C14.3787 1.90854 11.7543 2.28041 10.0242 3.86663C7.84147 5.86732 6.84303 8.60459 6.67289 11.449C5.84106 10.9756 4.91217 10.886 3.99664 11.5995C2.79427 12.5371 2.72118 13.9501 3.15616 15.2545C3.08897 15.2457 3.02256 15.2302 2.95459 15.2266C1.16714 15.1362 -0.732284 16.5453 -1.79595 17.8663C-3.60382 20.1119 -3.83762 22.9972 -2.7547 25.4275C-5.66278 28.8986 -4.70207 34.7072 -0.531106 36.7421C2.35144 38.1488 5.85835 37.8983 8.31534 36.1799C8.8348 37.2402 9.67371 38.1384 10.7653 38.6516C12.616 39.522 14.3292 38.8216 15.3952 37.4142C15.8714 39.4842 18.8534 40.4071 20.7178 40.2514C22.2349 40.1248 23.5261 39.2895 24.5355 38.1611C26.2864 39.383 28.6672 39.8385 30.7336 39.567C32.3549 39.3536 34.0531 38.3654 35.1545 36.9806C35.4629 37.7291 36.2688 38.187 37.1081 38.0715C37.9184 37.9601 38.7388 37.2828 39.085 36.4722C40.6579 37.2661 42.7522 37.3811 44.2021 36.897C45.6638 36.4081 46.7664 35.4398 47.5605 34.2314C48.1185 34.231 48.6914 34.1422 49.2768 33.9419C52.1947 32.943 54.2702 29.628 54.7724 26.6837C55.2655 23.7939 54.2706 20.733 52.0572 18.8067Z" fill="#81C541"/>
<path d="M54.7724 26.6838C54.8294 26.3509 54.8639 26.0153 54.8816 25.68C52.893 27.875 49.3161 26.5341 49.3161 26.5341C49.3161 26.5341 48.2847 30.9137 43.1719 30.8456C38.0587 30.7779 36.9023 23.0833 36.9023 23.0833C36.9023 23.0833 35.1789 28.1804 30.78 26.0153C26.3816 23.8505 26.3831 18.2992 26.3831 18.2992C26.3831 18.2992 24.8397 21.3581 21.6507 21.4828C18.4608 21.6066 16.7972 15.9166 16.7972 15.9166C16.7972 15.9166 11.48 17.5092 10.0006 11.6035C9.01793 7.68175 11.6085 4.25967 13.5347 2.32347C12.2349 2.47477 10.99 2.98122 10.0242 3.8663C7.84149 5.86739 6.84305 8.60466 6.67291 11.4486C5.84108 10.9756 4.91219 10.886 3.99666 11.5995C2.79429 12.5372 2.72121 13.9502 3.15618 15.2545C3.08899 15.2454 3.02259 15.2298 2.95461 15.2267C1.16717 15.1363 -0.732262 16.5453 -1.79593 17.8664C-3.6038 20.1119 -3.8376 22.9973 -2.75468 25.4276C-5.66276 28.8983 -4.70204 34.7068 -0.531473 36.7422C2.35107 38.1488 5.85837 37.8984 8.31537 36.18C8.83482 37.2403 9.67373 38.1385 10.7649 38.6517C12.616 39.5221 14.3292 38.8213 15.3952 37.4143C15.8714 39.4838 18.8534 40.4071 20.7178 40.2515C22.2349 40.1248 23.5261 39.2895 24.5356 38.1612C26.2865 39.3831 28.6668 39.8386 30.7337 39.5666C32.3549 39.3536 34.0531 38.3654 35.1545 36.9807C35.4626 37.7292 36.2689 38.1871 37.1082 38.0716C37.918 37.9601 38.7388 37.2829 39.085 36.4722C40.6579 37.2661 42.7522 37.3812 44.2022 36.8967C45.6635 36.4081 46.7664 35.4398 47.5605 34.2315C48.1181 34.2311 48.691 34.1419 49.2769 33.9416C52.1944 32.9431 54.2702 29.6281 54.7724 26.6838Z" fill="#76A42B"/>
<path d="M18.1241 53.7407H34.3376C30.9965 51.0309 29.094 46.9961 28.3906 42.7252C27.7521 38.8476 27.3482 32.8762 30.2841 29.7842C32.0209 27.9555 34.5254 28.1267 36.8209 28.2453C38.8858 28.3512 40.9369 28.2919 42.9656 27.8543C46.3645 27.1225 49.7814 25.4085 50.5476 21.6838C50.6148 21.3573 50.1358 21.2172 50.0501 21.5453C48.6945 26.7371 42.6752 27.0473 37.9463 26.9159C38.3895 26.72 38.8115 26.4815 39.1942 26.1769C40.8139 24.8861 41.1872 22.6852 43.1157 21.6974C43.2316 21.6376 43.1511 21.4513 43.0281 21.4867C41.5801 21.9052 40.7448 23.1211 39.6886 24.1277C37.9616 25.7748 36.006 26.1522 33.738 26.4724C31.9364 26.7264 30.1588 27.0198 28.5737 27.9793C28.3124 28.137 28.0712 28.3198 27.8374 28.5129C27.1733 26.6018 26.7619 24.7822 27.7926 22.7672C28.8983 20.6052 30.8673 19.5939 33.1341 19.15C35.8473 18.6181 38.4929 18.1487 39.6567 15.3039C39.7239 15.1403 39.4811 15.0674 39.3931 15.1912C37.9184 17.2708 35.0178 17.3667 32.7663 17.7991C32.6559 17.8202 32.5478 17.8473 32.439 17.8708C32.5922 17.6996 32.7427 17.5244 32.8814 17.3372C34.2017 15.5603 34.4186 13.4211 34.7549 11.293C34.7734 11.1771 34.606 11.1237 34.5773 11.2432C33.9085 14.0171 32.5934 16.324 30.312 18.0288C28.8272 19.1381 27.1572 20.1072 26.1226 21.7113C25.0872 23.3162 24.9265 25.2015 25.0016 27.0708C25.0307 27.7878 25.0605 28.4683 25.0758 29.1328C24.9462 28.9994 24.8149 28.8636 24.6884 28.7338C22.8731 26.8765 20.8664 25.1628 19.6554 22.805C18.143 19.8603 18.93 17.5435 20.6982 15.0176C21.9108 13.2857 22.8012 11.4542 22.5442 9.27952C22.523 9.10195 22.2542 9.0908 22.2617 9.27952C22.3788 12.2366 19.4679 13.9514 18.1705 16.3152C17.2927 17.9138 17.1296 19.6429 17.5272 21.347C15.3532 18.7324 13.4191 15.9147 12.9009 12.5865C12.8844 12.4786 12.7087 12.5045 12.7138 12.612C12.9559 17.7067 15.5716 21.3948 18.7626 25.1477C19.3787 25.8723 19.9862 26.6002 20.5748 27.3407C20.6334 27.6262 20.7068 27.9097 20.7811 28.1888C20.6778 28.0888 20.5721 27.9921 20.4613 27.9025C19.6451 27.2404 18.9292 26.6268 17.9634 26.3015C17.44 25.985 16.7657 25.913 16.1646 25.723C11.5885 24.2778 6.43912 27.7711 2.94597 23.1526C2.7884 22.9444 2.46462 23.0582 2.51963 23.3345C3.04577 25.985 6.2513 26.7136 8.54091 26.7335C9.18296 26.7395 9.82697 26.6933 10.4706 26.6396C10.4451 26.6535 10.4191 26.6659 10.3936 26.6802C9.11459 27.4 8.00692 28.3867 6.72007 29.1033C5.1951 29.9526 3.55854 30.5836 1.87483 31.0236C1.79232 31.0455 1.80804 31.1797 1.89527 31.1765C3.98409 31.1032 5.95582 30.6653 7.8191 29.6723C10.1696 28.4197 12.1303 26.5982 14.9905 27.0744C16.4514 27.318 17.7544 28.0052 18.853 28.9548C19.4919 29.6484 20.0282 30.4455 20.4483 31.2888C22.3599 35.1309 22.2483 40.1085 21.7041 44.2831C21.2365 47.8684 20.0239 50.8864 18.1241 53.7407Z" fill="#7E4F2E"/>
<path d="M41.4738 22.8512C41.8895 22.3073 42.587 21.904 43.1681 21.6337C43.1882 21.558 43.1198 21.4605 43.0282 21.4867C41.5803 21.9052 40.7449 23.1211 39.6887 24.1277C37.9618 25.7748 36.0062 26.1522 33.7382 26.4724C31.9366 26.7264 30.159 27.0198 28.5739 27.9793C28.3126 28.137 28.0713 28.3198 27.8375 28.5129C28.1621 29.5305 27.9177 30.5486 27.9177 30.5486C29.0639 27.5955 36.1366 26.6997 37.348 26.4676C38.5598 26.2355 40.6879 23.8796 41.4738 22.8512ZM32.4391 17.8708L31.4871 18.7367C31.4871 18.7367 36.071 18.0069 37.3154 17.3102C38.1759 16.828 39.1457 15.8072 39.6624 15.2231C39.6353 15.1212 39.4648 15.0909 39.3932 15.1912C37.9186 17.2708 35.0176 17.3667 32.7665 17.7991C32.656 17.8202 32.548 17.8473 32.4391 17.8708ZM50.0503 21.5453C48.6947 26.7371 42.6754 27.0473 37.9461 26.9159L36.6934 27.3304C36.6934 27.3304 42.2597 27.662 44.1591 27.1313C46.0581 26.6002 48.6122 24.8085 49.3654 23.8796C49.9006 23.2191 50.2747 22.0418 50.4468 21.4147C50.3155 21.3183 50.1045 21.3374 50.0503 21.5453ZM26.1876 27.0318C26.0285 25.4057 26.346 23.6141 27.2957 21.6898C28.2454 19.7656 31.5197 17.8079 32.7967 16.5469C33.7291 15.6264 34.2946 12.8509 34.5319 11.4184C33.8509 14.1142 32.5448 16.3602 30.3122 18.0288C28.8269 19.1381 27.157 20.1072 26.1228 21.7113C25.0874 23.3162 24.9263 25.2015 25.0017 27.0708C25.0304 27.7878 25.0607 28.4683 25.076 29.1328L26.2202 30.7807C26.2202 30.7807 26.346 28.6574 26.1876 27.0318ZM21.7369 44.3166C22.2811 40.1416 22.3927 35.1639 20.4807 31.3218C20.061 30.4785 19.5247 29.6818 18.8858 28.9879C17.7871 28.0383 16.4842 27.3511 15.0233 27.1074C12.1631 26.6312 10.2024 28.4527 7.85188 29.7057C5.9886 30.6987 4.01688 31.1363 1.92805 31.2095C1.89976 31.2107 1.88169 31.1952 1.86951 31.1757C3.21058 30.8894 5.85343 30.152 6.79765 29.6858C8.07467 29.0555 11.382 26.6396 11.382 26.6396H10.4708L10.3273 26.6854C9.74227 26.7327 9.1572 26.7722 8.57409 26.767C6.28409 26.7467 3.07895 26.0181 2.55242 23.368C2.53238 23.2665 2.56342 23.1876 2.61843 23.1379C3.04437 24.0321 3.77797 25.09 4.96384 25.5387C7.15797 26.368 10.1376 26.2355 11.7093 26.0364C13.281 25.8373 15.7368 26.1025 17.2759 26.8327C18.8147 27.5625 21.4017 29.4867 21.4017 29.4867L20.8139 28.2218C20.7392 27.9431 20.3086 27.498 20.1247 27.1643C19.5023 26.1359 19.4115 25.9054 18.7954 25.1808C15.6044 21.4282 12.9887 17.7402 12.7466 12.6451C12.7423 12.5559 12.8582 12.528 12.9085 12.5814C12.9254 13.5616 13.0845 14.7453 13.5757 15.9167C14.6889 18.5711 18.4547 23.415 18.4547 23.415L17.56 21.3804C17.162 19.676 17.3254 17.9468 18.2033 16.3482C19.5011 13.9848 22.4115 12.2696 22.2945 9.31257C22.2917 9.23931 22.3302 9.19711 22.3797 9.18198C22.1946 10.8319 21.773 12.9688 20.8123 14.0919C19.1094 16.0827 17.9486 18.5377 18.0704 20.3958C18.1926 22.254 20.1404 25.4284 21.3361 26.7662C22.9078 28.5248 25.0591 32.4482 25.0917 34.3394C25.1141 35.6413 23.3762 47.0717 24.7467 50.5886C25.1632 51.6584 25.6898 52.7589 26.2202 53.7738H18.1569C20.0567 50.9198 21.2693 47.9015 21.7369 44.3166Z" fill="#6A3F23"/>
</g>
</g>
<defs>
<clipPath id="clip0_82_2">
<rect width="50" height="50" rx="25" fill="white"/>
</clipPath>
</defs>
</svg>
