<svg width="388" height="88" viewBox="0 0 388 88" fill="none" xmlns="http://www.w3.org/2000/svg">
<g filter="url(#filter0_d_50_4)">
<rect x="4" y="4" width="368" height="68" rx="9" fill="white"/>
<rect x="2" y="2" width="372" height="72" rx="11" stroke="black" stroke-width="4"/>
</g>
<g clip-path="url(#clip0_50_4)">
<path d="M46.9617 28.2426C44.0424 31.3857 41.1231 34.5289 38.2037 37.672C37.1349 38.8229 37.7004 40.3921 39.0632 40.9273C42.6627 42.3407 45.9171 44.5461 48.6366 47.2847C50.4054 49.066 53.16 46.3119 51.3909 44.5304C48.1748 41.2915 44.3399 38.8366 40.0987 37.1712L40.9581 40.4264C43.8774 37.2832 46.7967 34.1401 49.7161 30.9969C51.4204 29.162 48.6721 26.4011 46.9617 28.2426Z" fill="#01010C"/>
<path d="M70.5755 30.997C73.4948 34.1401 76.4141 37.2833 79.3334 40.4264C79.6199 39.3413 79.9064 38.2563 80.1929 37.1712C75.9517 38.8366 72.1167 41.2916 68.9006 44.5304C67.1323 46.3111 69.8854 49.0668 71.655 47.2847C74.3744 44.5461 77.6288 42.3407 81.2284 40.9273C82.5912 40.3921 83.1567 38.8229 82.0878 37.6721C79.1685 34.5289 76.2492 31.3858 73.3298 28.2426C71.6202 26.4019 68.8704 29.1612 70.5755 30.997Z" fill="#01010C"/>
<path d="M56.8809 52.9932C60.7103 43.1854 64.5398 33.3775 68.3692 23.5697C68.7519 22.5896 67.9484 21.4321 67.0089 21.1739C65.9058 20.8708 64.9972 21.5505 64.6131 22.5342C60.7836 32.342 56.9542 42.1498 53.1248 51.9577C52.7421 52.9378 53.5456 54.0953 54.4851 54.3535C55.5881 54.6566 56.4968 53.9769 56.8809 52.9932Z" fill="#01010C"/>
</g>
<g clip-path="url(#clip1_50_4)">
<path d="M131.698 28.3321C131.685 32.4591 131.739 36.6974 133.377 40.5565C134.87 44.0735 137.573 46.9078 141.295 48.0164C143.221 48.5902 145.28 48.7158 147.279 48.7467C149.297 48.7779 151.362 48.6995 153.324 48.186C156.994 47.2259 159.852 44.5272 161.423 41.1214C163.399 36.8398 163.386 32.1197 163.254 27.4994C163.221 26.3466 162.005 25.1133 160.767 25.6052C152.405 28.9285 143.106 28.8592 134.789 25.4251C133.808 25.02 132.629 25.8635 132.373 26.7971C132.063 27.9257 132.76 28.8069 133.745 29.2136C142.608 32.8737 152.901 32.9349 161.811 29.3936L159.325 27.4994C159.484 33.0579 159.689 41.404 153.465 44.0152C151.995 44.6318 150.375 44.7802 148.799 44.8156C147.158 44.8525 145.461 44.8541 143.84 44.5762C140.794 44.0542 138.631 42.3716 137.249 39.6272C135.511 36.1768 135.615 32.0934 135.627 28.3321C135.635 25.8038 131.706 25.8003 131.698 28.3321Z" fill="#01010C"/>
<path d="M163.073 34.2656C162.751 34.5255 163.326 34.1324 163.394 34.0902C163.599 33.992 163.601 33.9873 163.4 34.076C163.481 34.0451 163.563 34.0175 163.647 33.9934C163.74 33.965 164.342 33.8504 163.889 33.9059C164.09 33.8813 164.293 33.8774 164.495 33.8853C164.582 33.8875 164.668 33.8934 164.755 33.903C164.522 33.872 164.516 33.8775 164.738 33.9197C164.827 33.951 165.456 34.2013 165.048 33.9979C165.196 34.0719 165.335 34.1628 165.483 34.2374C165.665 34.3646 165.667 34.3587 165.489 34.2196C165.575 34.2892 165.658 34.362 165.738 34.4381C165.858 34.5522 165.972 34.6735 166.077 34.8011C165.795 34.4593 166.183 35.0126 166.228 35.0917C166.47 35.5126 166.169 34.7903 166.295 35.2553C166.319 35.344 166.463 36.0448 166.402 35.5669C166.424 35.7366 166.431 35.9091 166.432 36.0802C166.432 36.1773 166.349 36.8772 166.431 36.4173C166.4 36.5884 166.365 36.7583 166.32 36.9262C166.299 37.0038 166.054 37.6715 166.226 37.2763C166.065 37.6458 165.853 37.9975 165.614 38.3208C165.861 37.9878 165.484 38.4545 165.426 38.5164C165.288 38.6626 165.145 38.8028 164.996 38.9369C164.91 39.0136 164.823 39.0883 164.734 39.161C164.907 39.0324 164.902 39.0349 164.721 39.1685C164.577 39.2658 164.436 39.3655 164.289 39.4578C163.945 39.6744 163.585 39.8573 163.22 40.0367C163.012 40.1292 163.009 40.1325 163.212 40.0465C163.105 40.09 162.997 40.1319 162.889 40.172C162.695 40.2442 162.499 40.3111 162.301 40.3741C161.841 40.5209 161.373 40.6423 160.901 40.7478C159.887 40.9747 158.858 41.1229 157.831 41.2713C156.81 41.4188 156.16 42.766 156.459 43.6878C156.82 44.8046 157.781 45.2178 158.875 45.0598C162.667 44.5121 166.546 43.6199 168.954 40.3724C171.252 37.2737 170.694 32.2912 166.955 30.5715C164.666 29.5187 162.234 29.9222 160.295 31.4876C159.492 32.1359 159.57 33.6 160.295 34.2656C161.147 35.0485 162.216 34.9573 163.073 34.2656Z" fill="#01010C"/>
<path d="M135.503 28.3022C138.008 24.6556 143.938 25.2181 147.758 25.2204C152.091 25.223 156.813 25.738 159.857 29.1735C161.537 31.0697 164.307 28.2827 162.635 26.3954C158.811 22.0803 152.833 21.2686 147.38 21.2925C141.903 21.3165 135.554 21.307 132.11 26.3193C131.509 27.1941 131.947 28.4991 132.815 29.007C133.788 29.5764 134.9 29.1791 135.503 28.3022Z" fill="#01010C"/>
<path d="M135.321 40.6006C132.478 40.2585 129.467 40.1957 127.178 42.1882C125.204 43.9071 124.504 46.8179 126.015 49.0743C127.285 50.9703 129.561 51.8705 131.698 52.3795C134.617 53.0749 137.603 53.5356 140.586 53.8514C146.4 54.4667 152.253 54.3287 158.042 53.5363C160.808 53.1576 163.658 52.711 166.329 51.8763C168.624 51.1593 170.934 49.9064 171.851 47.5509C172.914 44.8197 171.405 41.9976 169.081 40.5016C166.208 38.6524 162.622 39.3898 159.537 40.1828C157.09 40.8117 158.127 44.602 160.582 43.9713C162.423 43.498 164.773 42.7503 166.611 43.6147C167.674 44.1144 168.766 45.3354 168.027 46.4761C167.312 47.5798 165.599 48.0307 164.375 48.3424C162.188 48.899 159.961 49.3198 157.729 49.645C153.161 50.3104 148.501 50.4638 143.896 50.1944C141.615 50.0609 139.341 49.8207 137.086 49.4492C135.094 49.121 132.973 48.8276 131.078 48.1027C129.965 47.6771 128.473 46.7982 129.416 45.5109C130.693 43.769 133.504 44.3107 135.321 44.5294C136.376 44.6563 137.285 43.5356 137.285 42.565C137.285 41.3977 136.379 40.7279 135.321 40.6006Z" fill="#01010C"/>
</g>
<g clip-path="url(#clip2_50_4)">
<path d="M233.367 19.2637C225.792 19.2684 218.706 24.1132 215.941 31.1528C213.21 38.107 215.297 46.823 220.98 51.6988C226.752 56.6517 235.402 57.7791 242.113 54.0681C248.745 50.4006 252.634 42.7174 251.579 35.2231C250.961 30.8346 248.71 26.595 245.274 23.7636C241.697 20.8153 237.101 19.2271 232.456 19.5108C230.275 19.644 230.26 23.055 232.456 22.9209C239.347 22.5 245.728 26.83 247.719 33.4765C249.526 39.5094 247.256 46.0888 242.269 49.9087C237.303 53.7119 230.336 53.7535 225.078 50.5052C219.773 47.2277 217.175 40.5146 218.5 34.4687C219.993 27.6564 226.43 22.6781 233.367 22.6738C235.561 22.6724 235.565 19.2623 233.367 19.2637Z" fill="#01010C"/>
<path d="M224.448 43.9763C226.722 46.2933 229.876 47.6068 233.114 47.6982C236.51 47.794 239.74 46.4007 242.097 43.9764C243.628 42.4019 241.219 39.9881 239.686 41.5651C237.92 43.3812 235.634 44.3592 233.114 44.2881C230.777 44.2221 228.509 43.2454 226.859 41.565C225.319 39.9961 222.908 42.408 224.448 43.9763Z" fill="#01010C"/>
<path d="M227.484 30.2308C227.136 30.3196 226.856 30.5015 226.598 30.7448C226.478 30.8581 226.371 30.9966 226.292 31.1422C226.249 31.2205 226.226 31.2875 226.187 31.3809C226.159 31.4475 226.106 31.5503 226.083 31.6348C226.035 31.8064 226.006 31.9907 226.009 32.1674C226.01 32.1855 226.011 32.2026 226.012 32.2208C226.019 32.345 226.044 32.5817 226.078 32.7003C226.122 32.8561 226.198 33.0322 226.274 33.1744C226.357 33.3326 226.475 33.4754 226.597 33.6049C226.743 33.7599 226.918 33.8998 227.112 33.9897C227.263 34.06 227.428 34.1449 227.591 34.1846C227.678 34.2057 227.781 34.2131 227.862 34.2239C227.95 34.2357 228.059 34.2577 228.155 34.2598C228.388 34.2648 228.633 34.2307 228.856 34.1558C229.051 34.0901 229.301 33.9945 229.487 33.8708C229.849 33.6297 230.207 33.3187 230.397 32.9172C230.565 32.56 230.668 32.2803 230.663 31.8735C230.663 31.7934 230.635 31.6471 230.631 31.6153C230.621 31.5421 230.612 31.428 230.591 31.3418C230.549 31.1653 230.471 30.9885 230.381 30.8342C230.37 30.8161 230.359 30.7997 230.348 30.7824C230.27 30.6657 230.156 30.5164 230.062 30.413C229.945 30.285 229.774 30.1725 229.65 30.081C229.62 30.0591 229.591 30.038 229.558 30.0206C229.481 29.9795 229.387 29.946 229.312 29.9143C229.229 29.8791 229.135 29.8321 229.043 29.8051C228.595 29.673 228.063 29.6948 227.618 29.8246C227.575 29.837 227.534 29.8523 227.493 29.8685C227.326 29.9337 227.154 29.9987 226.996 30.0825C226.962 30.1004 226.929 30.1203 226.897 30.1422C226.749 30.2451 226.596 30.3579 226.462 30.48C226.43 30.5099 226.401 30.5426 226.373 30.5766C226.266 30.7075 226.147 30.8435 226.061 30.9904C225.946 31.1849 225.849 31.4057 225.804 31.6292C225.774 31.7778 225.75 31.964 225.739 32.1149C225.737 32.1368 225.736 32.1581 225.736 32.1802C225.737 32.3533 225.771 32.5456 225.804 32.7145C225.825 32.8259 225.873 32.9166 225.919 33.0248C225.963 33.1288 225.998 33.2341 226.058 33.3288C226.243 33.6174 226.368 33.7413 226.614 33.9314C226.883 34.1392 227.022 34.2087 227.369 34.3395C227.51 34.3927 227.642 34.4046 227.794 34.4251C227.969 34.4485 228.117 34.4735 228.29 34.4541C228.521 34.4281 228.761 34.408 228.984 34.337C229.216 34.2633 229.44 34.1588 229.661 34.0603C229.82 33.9896 229.979 33.914 230.122 33.8136C230.292 33.694 230.47 33.5695 230.618 33.4215C230.693 33.3463 230.755 33.2555 230.819 33.1727C230.883 33.0905 230.964 33.0013 231.014 32.9048C231.196 32.554 231.28 32.2495 231.304 31.8551C231.317 31.6272 231.287 31.386 231.207 31.1719C231.067 30.7955 230.936 30.5473 230.655 30.2483C230.502 30.0848 230.314 29.9402 230.116 29.8351C229.924 29.7338 229.709 29.6284 229.491 29.5864C229.305 29.5504 229.106 29.5205 228.916 29.5112C228.858 29.5084 228.8 29.5106 228.742 29.5165C228.489 29.5426 228.229 29.5686 227.983 29.6406C227.863 29.6758 227.746 29.72 227.629 29.7645C227.408 29.8173 227.214 29.919 227.05 30.0697C226.864 30.1899 226.717 30.3494 226.61 30.5481C226.486 30.7438 226.418 30.9551 226.408 31.182C226.357 31.4087 226.367 31.6353 226.438 31.8619C226.572 32.2745 226.828 32.6725 227.222 32.8809L227.629 33.0528C227.932 33.134 228.234 33.134 228.536 33.0528C228.732 32.978 228.929 32.9063 229.137 32.8728L228.684 32.9337C228.788 32.92 228.889 32.917 228.993 32.9282L228.54 32.8673C228.612 32.8781 228.679 32.8971 228.746 32.9248L228.339 32.7529C228.395 32.7788 228.448 32.8091 228.498 32.8455L228.153 32.5789C228.201 32.6167 228.244 32.6576 228.282 32.7049L228.016 32.3599C228.045 32.3998 228.069 32.4405 228.09 32.4857L227.918 32.0784C227.932 32.1152 227.943 32.1513 227.95 32.1901L227.889 31.7368C227.896 31.7868 227.896 31.8341 227.889 31.884L227.95 31.4307C227.943 31.4684 227.934 31.5039 227.92 31.5399L228.092 31.1326C228.07 31.1854 228.042 31.2328 228.008 31.279L228.274 30.9339C228.224 30.9961 228.167 31.0496 228.105 31.0993L228.45 30.8326C228.273 30.9659 228.071 31.06 227.869 31.1465L228.276 30.9747C228.134 31.0336 227.989 31.0815 227.836 31.1049L228.29 31.044C228.199 31.0549 228.111 31.0572 228.021 31.0454L228.474 31.1063C228.405 31.0949 228.34 31.077 228.275 31.0512L228.683 31.2231C228.62 31.1953 228.562 31.1622 228.508 31.1202L228.853 31.3868C228.816 31.3558 228.784 31.3229 228.753 31.2855L229.02 31.6306C228.992 31.5915 228.969 31.5516 228.95 31.5073L229.122 31.9146C229.107 31.8742 229.097 31.8344 229.09 31.7919L229.151 32.2451C229.145 32.1899 229.147 32.1374 229.154 32.0825L229.093 32.5357C229.103 32.4808 229.119 32.4296 229.14 32.3779L228.968 32.7852C228.991 32.7345 229.019 32.6881 229.052 32.6428L228.785 32.9879C228.827 32.9361 228.872 32.891 228.924 32.8491L228.579 33.1157C228.65 33.0625 228.725 33.0201 228.807 32.9849L228.399 33.1567C228.497 33.1177 228.597 33.0909 228.702 33.0748L228.248 33.1357C228.325 33.1264 228.4 33.1244 228.478 33.1317L228.025 33.0708C228.086 33.0797 228.144 33.0939 228.202 33.1166L227.795 32.9448C227.843 32.967 227.886 32.9931 227.928 33.0256L227.583 32.759C227.615 32.7866 227.643 32.8155 227.669 32.8486L227.403 32.5035C227.421 32.5295 227.435 32.5546 227.45 32.5828L227.278 32.1755C227.294 32.2151 227.305 32.253 227.311 32.2952L227.25 31.8419C227.253 31.8742 227.253 31.9036 227.25 31.9359L227.311 31.4827C227.305 31.5247 227.294 31.5634 227.28 31.6033L227.452 31.196C227.43 31.246 227.403 31.2911 227.372 31.3354L227.638 30.9903C227.59 31.0523 227.536 31.1054 227.474 31.1545L227.819 30.8878C227.743 30.9441 227.663 30.9896 227.576 31.0265L227.983 30.8546C227.926 30.8763 227.869 30.8926 227.809 30.9034L228.262 30.8425C228.204 30.8498 228.147 30.8511 228.089 30.8442L228.542 30.9052C228.502 30.8979 228.464 30.8876 228.426 30.8733L228.833 31.0452C228.796 31.0287 228.762 31.0098 228.729 30.9867L229.074 31.2533C229.043 31.2283 229.016 31.202 228.99 31.1708L229.257 31.5159C229.239 31.491 229.225 31.4674 229.212 31.44L229.384 31.8473C229.374 31.8201 229.367 31.796 229.362 31.7675L229.423 32.2208C229.42 32.1931 229.42 32.1683 229.422 32.1407L229.361 32.5939C229.367 32.5577 229.376 32.525 229.39 32.4911L229.218 32.8984C229.23 32.8739 229.243 32.8529 229.259 32.8308L228.993 33.1758C229.01 33.1554 229.027 33.1389 229.049 33.122L228.704 33.3886C228.718 33.3785 228.733 33.37 228.748 33.363L228.341 33.5349C228.357 33.5278 228.374 33.5225 228.391 33.5191C228.613 33.4664 228.806 33.3646 228.971 33.2139C229.157 33.0937 229.303 32.9342 229.41 32.7355C229.535 32.5398 229.602 32.3285 229.613 32.1016C229.663 31.875 229.653 31.6483 229.582 31.4217C229.449 31.0091 229.193 30.6111 228.798 30.4027C228.388 30.1859 227.941 30.1143 227.484 30.2308Z" fill="#01010C"/>
<path d="M237.098 30.2308C236.751 30.3196 236.47 30.5015 236.212 30.7448C236.092 30.8581 235.985 30.9966 235.906 31.1422C235.863 31.2205 235.84 31.2875 235.801 31.3809C235.773 31.4475 235.72 31.5503 235.697 31.6348C235.649 31.8064 235.62 31.9907 235.623 32.1674C235.624 32.1855 235.625 32.2026 235.626 32.2208C235.633 32.345 235.658 32.5817 235.692 32.7003C235.736 32.8561 235.812 33.0322 235.888 33.1744C235.971 33.3326 236.089 33.4754 236.211 33.6049C236.357 33.7599 236.532 33.8998 236.726 33.9897C236.877 34.06 237.042 34.1449 237.205 34.1846C237.292 34.2057 237.395 34.2131 237.476 34.2239C237.564 34.2357 237.673 34.2577 237.769 34.2598C238.002 34.2648 238.247 34.2307 238.47 34.1558C238.665 34.0901 238.915 33.9945 239.101 33.8708C239.463 33.6297 239.821 33.3187 240.011 32.9172C240.179 32.56 240.282 32.2803 240.277 31.8735C240.277 31.7934 240.249 31.6471 240.245 31.6153C240.235 31.5421 240.226 31.428 240.205 31.3418C240.163 31.1653 240.085 30.9885 239.995 30.8342C239.984 30.8161 239.973 30.7997 239.962 30.7824C239.884 30.6657 239.77 30.5164 239.676 30.413C239.559 30.285 239.388 30.1725 239.264 30.081C239.234 30.0591 239.205 30.038 239.172 30.0206C239.095 29.9795 239.001 29.946 238.926 29.9143C238.843 29.8791 238.749 29.8321 238.657 29.8051C238.209 29.673 237.677 29.6948 237.232 29.8246C237.189 29.837 237.148 29.8523 237.107 29.8685C236.94 29.9337 236.768 29.9987 236.61 30.0825C236.576 30.1004 236.543 30.1203 236.511 30.1422C236.363 30.2451 236.21 30.3579 236.076 30.48C236.044 30.5099 236.015 30.5426 235.987 30.5766C235.88 30.7075 235.761 30.8435 235.675 30.9904C235.56 31.1849 235.463 31.4057 235.418 31.6292C235.388 31.7778 235.364 31.964 235.353 32.1149C235.351 32.1368 235.35 32.1581 235.35 32.1802C235.351 32.3533 235.385 32.5456 235.418 32.7145C235.439 32.8259 235.487 32.9166 235.533 33.0248C235.577 33.1288 235.612 33.2341 235.672 33.3288C235.857 33.6174 235.982 33.7413 236.228 33.9314C236.497 34.1392 236.636 34.2087 236.983 34.3395C237.124 34.3927 237.256 34.4046 237.408 34.4251C237.583 34.4485 237.731 34.4735 237.904 34.4541C238.135 34.4281 238.375 34.408 238.598 34.337C238.83 34.2633 239.054 34.1588 239.275 34.0603C239.434 33.9896 239.593 33.914 239.736 33.8136C239.906 33.694 240.084 33.5695 240.232 33.4215C240.307 33.3463 240.369 33.2555 240.433 33.1727C240.497 33.0905 240.578 33.0013 240.628 32.9048C240.81 32.554 240.894 32.2495 240.918 31.8551C240.931 31.6272 240.901 31.386 240.821 31.1719C240.681 30.7955 240.55 30.5473 240.269 30.2483C240.116 30.0848 239.928 29.9402 239.73 29.8351C239.538 29.7338 239.323 29.6284 239.105 29.5864C238.919 29.5504 238.72 29.5205 238.53 29.5112C238.472 29.5084 238.414 29.5106 238.356 29.5165C238.103 29.5426 237.843 29.5686 237.597 29.6406C237.477 29.6758 237.36 29.72 237.243 29.7645C237.022 29.8173 236.828 29.919 236.664 30.0697C236.478 30.1899 236.331 30.3494 236.224 30.5481C236.1 30.7438 236.032 30.9551 236.022 31.182C235.971 31.4087 235.981 31.6353 236.052 31.8619C236.186 32.2745 236.442 32.6725 236.836 32.8809L237.243 33.0528C237.546 33.134 237.848 33.134 238.15 33.0528C238.346 32.978 238.543 32.9063 238.751 32.8728L238.298 32.9337C238.402 32.92 238.503 32.917 238.607 32.9282L238.154 32.8673C238.226 32.8781 238.293 32.8971 238.36 32.9248L237.953 32.7529C238.009 32.7788 238.062 32.8091 238.112 32.8455L237.767 32.5789C237.815 32.6167 237.858 32.6576 237.896 32.7049L237.63 32.3599C237.659 32.3998 237.683 32.4405 237.704 32.4857L237.532 32.0784C237.546 32.1152 237.557 32.1513 237.564 32.1901L237.503 31.7368C237.51 31.7868 237.51 31.8341 237.503 31.884L237.564 31.4307C237.557 31.4684 237.548 31.5039 237.534 31.5399L237.706 31.1326C237.684 31.1854 237.656 31.2328 237.622 31.279L237.888 30.9339C237.838 30.9961 237.781 31.0496 237.719 31.0993L238.064 30.8326C237.887 30.9659 237.685 31.06 237.483 31.1465L237.89 30.9747C237.748 31.0336 237.603 31.0815 237.45 31.1049L237.904 31.044C237.813 31.0549 237.725 31.0572 237.635 31.0454L238.088 31.1063C238.019 31.0949 237.954 31.077 237.889 31.0512L238.297 31.2231C238.234 31.1953 238.177 31.1622 238.122 31.1202L238.467 31.3868C238.43 31.3558 238.398 31.3229 238.367 31.2855L238.634 31.6306C238.606 31.5915 238.583 31.5516 238.564 31.5073L238.736 31.9146C238.721 31.8742 238.711 31.8344 238.704 31.7919L238.765 32.2451C238.759 32.1899 238.761 32.1374 238.768 32.0825L238.707 32.5357C238.717 32.4808 238.733 32.4296 238.754 32.3779L238.582 32.7852C238.605 32.7345 238.633 32.6881 238.666 32.6428L238.399 32.9879C238.441 32.9361 238.486 32.891 238.538 32.8491L238.193 33.1157C238.264 33.0625 238.339 33.0201 238.421 32.9849L238.013 33.1567C238.111 33.1177 238.211 33.0909 238.316 33.0748L237.862 33.1357C237.939 33.1264 238.015 33.1244 238.092 33.1317L237.639 33.0708C237.7 33.0797 237.758 33.0939 237.816 33.1166L237.409 32.9448C237.457 32.967 237.5 32.9931 237.542 33.0256L237.197 32.759C237.229 32.7866 237.257 32.8155 237.283 32.8486L237.017 32.5035C237.035 32.5295 237.049 32.5546 237.064 32.5828L236.892 32.1755C236.908 32.2151 236.919 32.253 236.925 32.2952L236.864 31.8419C236.867 31.8742 236.867 31.9036 236.864 31.9359L236.925 31.4827C236.919 31.5247 236.908 31.5634 236.894 31.6033L237.066 31.196C237.044 31.246 237.017 31.2911 236.986 31.3354L237.252 30.9903C237.204 31.0523 237.15 31.1054 237.088 31.1545L237.433 30.8878C237.357 30.9441 237.277 30.9896 237.19 31.0265L237.597 30.8546C237.54 30.8763 237.483 30.8926 237.423 30.9034L237.876 30.8425C237.818 30.8498 237.761 30.8511 237.703 30.8442L238.156 30.9052C238.116 30.8979 238.078 30.8876 238.04 30.8733L238.447 31.0452C238.41 31.0287 238.377 31.0098 238.343 30.9867L238.688 31.2533C238.657 31.2283 238.63 31.202 238.604 31.1708L238.871 31.5159C238.853 31.491 238.839 31.4674 238.826 31.44L238.998 31.8473C238.988 31.8201 238.981 31.796 238.976 31.7675L239.037 32.2208C239.034 32.1931 239.034 32.1683 239.036 32.1407L238.975 32.5939C238.981 32.5577 238.99 32.525 239.004 32.4911L238.832 32.8984C238.844 32.8739 238.857 32.8529 238.873 32.8308L238.607 33.1758C238.624 33.1554 238.641 33.1389 238.663 33.122L238.318 33.3886C238.332 33.3785 238.347 33.37 238.362 33.363L237.955 33.5349C237.971 33.5278 237.988 33.5225 238.005 33.5191C238.227 33.4664 238.42 33.3646 238.585 33.2139C238.771 33.0937 238.917 32.9342 239.024 32.7355C239.149 32.5398 239.216 32.3285 239.227 32.1016C239.277 31.875 239.267 31.6483 239.196 31.4217C239.063 31.0091 238.807 30.6111 238.412 30.4027C238.002 30.1859 237.555 30.1143 237.098 30.2308Z" fill="#01010C"/>
</g>
<g clip-path="url(#clip3_50_4)">
<path d="M323.617 53.7096H333.732C334.544 53.7096 335.108 53.168 335.38 52.456C338.467 44.3876 337.784 35.1234 333.716 27.5253C333.436 27.0007 332.825 26.6796 332.241 26.6796C321.282 26.6796 310.324 26.6796 299.365 26.6796C298.781 26.6796 298.17 27.0007 297.889 27.5253C293.822 35.1234 293.139 44.3876 296.226 52.456C296.498 53.1684 297.07 53.7096 297.874 53.7096H309.35C311.55 53.7096 311.553 50.2945 309.35 50.2945H297.874L299.522 51.5481C296.756 44.3185 297.177 36.0923 300.841 29.249L299.365 30.0947C310.324 30.0947 321.282 30.0947 332.241 30.0947L330.765 29.249C334.429 36.0923 334.85 44.3186 332.084 51.5481L333.732 50.2945H323.617C321.418 50.2945 321.414 53.7096 323.617 53.7096Z" fill="#01010C"/>
<path d="M317.156 56.4252C321.389 56.471 325.393 53.4893 326.49 49.3832C327.576 45.3175 325.826 40.8801 322.399 38.5041C318.938 36.1046 313.909 36.1298 310.469 38.5484C306.857 41.0882 304.964 45.6951 306.452 49.9804C307.996 54.4269 312.973 57.2525 317.61 56.3642C318.517 56.1905 319.034 55.1022 318.804 54.2637C318.543 53.3153 317.611 52.8968 316.701 53.071C314.222 53.546 311.088 51.9029 309.971 49.6032C308.7 46.9864 309.503 43.9436 311.579 42.0098C313.689 40.0441 316.985 39.5634 319.586 40.8155C322.135 42.0422 323.669 44.813 323.36 47.6315C323.026 50.6939 320.19 53.0429 317.156 53.01C314.956 52.9863 314.954 56.4014 317.156 56.4252Z" fill="#01010C"/>
<path d="M326.573 47.4923C328.91 42.1431 327.521 35.3953 322.122 32.5117C316.664 29.596 309.712 31.2955 306.375 36.5509C304.35 39.7402 304.279 43.7324 305.862 47.1058C306.254 47.9408 307.455 48.1539 308.201 47.7184C309.057 47.218 309.207 46.2202 308.814 45.3822C306.852 41.2027 309.415 36.2916 313.669 34.8975C317.45 33.6585 322.381 35.232 323.765 39.2174C324.483 41.288 324.509 43.7371 323.622 45.7686C323.253 46.6131 323.373 47.6012 324.235 48.1049C324.959 48.528 326.202 48.3419 326.573 47.4923Z" fill="#01010C"/>
<path d="M303.549 27.9208C303.397 27.5045 303.254 27.0892 303.19 26.6491L303.251 27.1031C303.23 26.9045 303.228 26.7121 303.248 26.5132L303.187 26.9672C303.201 26.8721 303.228 26.7794 303.242 26.6851C303.298 26.5146 303.274 26.5615 303.169 26.8258L303.212 26.7415C303.418 26.4818 302.91 26.9889 303.168 26.784C303.433 26.5729 302.812 26.9913 303.106 26.8198C303.187 26.7726 303.266 26.7282 303.349 26.6847C303.649 26.5273 302.964 26.8174 303.289 26.7148C303.482 26.6541 303.674 26.5931 303.869 26.5388C304.754 26.2919 305.656 26.1085 306.566 25.981L306.112 26.042C306.53 25.9859 306.948 25.9417 307.368 25.9093L305.659 24.2017C305.747 25.5257 305.835 26.8496 305.922 28.1736C305.981 29.063 306.666 29.9243 307.631 29.8811C308.506 29.842 309.403 29.1281 309.34 28.1736C309.252 26.8496 309.165 25.5257 309.077 24.2017C309.02 23.3357 308.339 22.4193 307.368 22.4942C306.415 22.5676 305.463 22.6929 304.525 22.8759C303.747 23.0275 302.942 23.1956 302.204 23.4881C301.116 23.9192 300.193 24.6718 299.924 25.87C299.695 26.8885 299.904 27.8676 300.253 28.8287C300.407 29.2536 300.637 29.6146 301.038 29.8492C301.405 30.0634 301.944 30.1541 302.355 30.0213C303.179 29.755 303.875 28.8197 303.549 27.9208Z" fill="#01010C"/>
<path d="M331.65 26.6796C329.613 26.4141 327.655 25.1865 326.481 23.5162C325.71 22.4204 325.055 21.2923 323.952 20.4882C322.992 19.7877 321.842 19.428 320.676 19.2597C318.211 18.9039 315.223 18.8104 312.855 19.6565C311.64 20.0905 310.535 20.7688 309.724 21.7819C309.314 22.294 309.022 22.8551 308.71 23.4272C308.484 23.8406 308.303 24.2923 307.818 24.4069C305.679 24.9135 306.585 28.2073 308.727 27.7001C310.096 27.3761 311.011 26.3407 311.661 25.1508C312.196 24.1703 312.638 23.4109 313.717 22.9667C314.814 22.5149 316.043 22.5024 317.209 22.4958C318.31 22.4896 319.463 22.4435 320.544 22.6863C321.537 22.9095 322.225 23.3363 322.818 24.1726C323.515 25.1568 324.132 26.1736 325.01 27.0172C326.848 28.7846 329.143 29.7681 331.65 30.0947C332.566 30.2142 333.358 29.2244 333.358 28.3872C333.358 27.3652 332.569 26.7994 331.65 26.6796Z" fill="#01010C"/>
</g>
<defs>
<filter id="filter0_d_50_4" x="0" y="0" width="388" height="88" filterUnits="userSpaceOnUse" color-interpolation-filters="sRGB">
<feFlood flood-opacity="0" result="BackgroundImageFix"/>
<feColorMatrix in="SourceAlpha" type="matrix" values="0 0 0 0 0 0 0 0 0 0 0 0 0 0 0 0 0 0 127 0" result="hardAlpha"/>
<feOffset dx="12" dy="12"/>
<feComposite in2="hardAlpha" operator="out"/>
<feColorMatrix type="matrix" values="0 0 0 0 0 0 0 0 0 0 0 0 0 0 0 0 0 0 1 0"/>
<feBlend mode="normal" in2="BackgroundImageFix" result="effect1_dropShadow_50_4"/>
<feBlend mode="normal" in="SourceGraphic" in2="effect1_dropShadow_50_4" result="shape"/>
</filter>
<clipPath id="clip0_50_4">
<rect width="45" height="33.3252" fill="white" transform="translate(37.6458 21.1011)"/>
</clipPath>
<clipPath id="clip1_50_4">
<rect width="47" height="32.9434" fill="white" transform="translate(125.198 21.292)"/>
</clipPath>
<clipPath id="clip2_50_4">
<rect width="37" height="37" fill="white" transform="translate(214.75 19.2637)"/>
</clipPath>
<clipPath id="clip3_50_4">
<rect width="43" height="37.5273" fill="white" transform="translate(294.303 19)"/>
</clipPath>
</defs>
</svg>
