<svg width="121" height="27" viewBox="0 0 121 27" fill="none" xmlns="http://www.w3.org/2000/svg">
<g filter="url(#filter0_d_10_142)">
<mask id="path-1-outside-1_10_142" maskUnits="userSpaceOnUse" x="-2" y="-2" width="122" height="28" fill="black">
<rect fill="white" x="-2" y="-2" width="122" height="28"/>
<path d="M0.0227273 24V0.727272H15.7045V4.78409H4.94318V10.3295H14.8977V14.3864H4.94318V19.9432H15.75V24H0.0227273ZM27.8665 24H19.6165V0.727272H27.9347C30.2756 0.727272 32.2907 1.19318 33.9801 2.125C35.6695 3.04924 36.9688 4.37879 37.8778 6.11364C38.7945 7.84848 39.2528 9.92424 39.2528 12.3409C39.2528 14.7652 38.7945 16.8485 37.8778 18.5909C36.9688 20.3333 35.6619 21.6705 33.9574 22.6023C32.2604 23.5341 30.2301 24 27.8665 24ZM24.5369 19.7841H27.6619C29.1165 19.7841 30.34 19.5265 31.3324 19.0114C32.3324 18.4886 33.0824 17.6818 33.5824 16.5909C34.09 15.4924 34.3438 14.0758 34.3438 12.3409C34.3438 10.6212 34.09 9.21591 33.5824 8.125C33.0824 7.03409 32.3362 6.23106 31.3438 5.71591C30.3513 5.20076 29.1278 4.94318 27.6733 4.94318H24.5369V19.7841ZM42.8977 24V0.727272H58.5795V4.78409H47.8182V10.3295H57.7727V14.3864H47.8182V19.9432H58.625V24H42.8977ZM62.4915 24V0.727272H71.6733C73.4309 0.727272 74.9309 1.04167 76.1733 1.67045C77.4233 2.29167 78.3741 3.17424 79.0256 4.31818C79.6847 5.45454 80.0142 6.79167 80.0142 8.32955C80.0142 9.875 79.6809 11.2045 79.0142 12.3182C78.3475 13.4242 77.3816 14.2727 76.1165 14.8636C74.8589 15.4545 73.3362 15.75 71.5483 15.75H65.4006V11.7955H70.7528C71.6922 11.7955 72.4725 11.6667 73.0938 11.4091C73.715 11.1515 74.1771 10.7652 74.4801 10.25C74.7907 9.73485 74.946 9.0947 74.946 8.32955C74.946 7.55682 74.7907 6.9053 74.4801 6.375C74.1771 5.8447 73.7112 5.44318 73.0824 5.17045C72.4612 4.89015 71.6771 4.75 70.7301 4.75H67.4119V24H62.4915ZM75.0597 13.4091L80.8438 24H75.4119L69.7528 13.4091H75.0597ZM83.4915 24V0.727272H98.9006V4.78409H88.4119V10.3295H97.8778V14.3864H88.4119V24H83.4915ZM102.21 24V0.727272H117.619V4.78409H107.131V10.3295H116.597V14.3864H107.131V24H102.21Z"/>
</mask>
<path d="M0.0227273 24V0.727272H15.7045V4.78409H4.94318V10.3295H14.8977V14.3864H4.94318V19.9432H15.75V24H0.0227273ZM27.8665 24H19.6165V0.727272H27.9347C30.2756 0.727272 32.2907 1.19318 33.9801 2.125C35.6695 3.04924 36.9688 4.37879 37.8778 6.11364C38.7945 7.84848 39.2528 9.92424 39.2528 12.3409C39.2528 14.7652 38.7945 16.8485 37.8778 18.5909C36.9688 20.3333 35.6619 21.6705 33.9574 22.6023C32.2604 23.5341 30.2301 24 27.8665 24ZM24.5369 19.7841H27.6619C29.1165 19.7841 30.34 19.5265 31.3324 19.0114C32.3324 18.4886 33.0824 17.6818 33.5824 16.5909C34.09 15.4924 34.3438 14.0758 34.3438 12.3409C34.3438 10.6212 34.09 9.21591 33.5824 8.125C33.0824 7.03409 32.3362 6.23106 31.3438 5.71591C30.3513 5.20076 29.1278 4.94318 27.6733 4.94318H24.5369V19.7841ZM42.8977 24V0.727272H58.5795V4.78409H47.8182V10.3295H57.7727V14.3864H47.8182V19.9432H58.625V24H42.8977ZM62.4915 24V0.727272H71.6733C73.4309 0.727272 74.9309 1.04167 76.1733 1.67045C77.4233 2.29167 78.3741 3.17424 79.0256 4.31818C79.6847 5.45454 80.0142 6.79167 80.0142 8.32955C80.0142 9.875 79.6809 11.2045 79.0142 12.3182C78.3475 13.4242 77.3816 14.2727 76.1165 14.8636C74.8589 15.4545 73.3362 15.75 71.5483 15.75H65.4006V11.7955H70.7528C71.6922 11.7955 72.4725 11.6667 73.0938 11.4091C73.715 11.1515 74.1771 10.7652 74.4801 10.25C74.7907 9.73485 74.946 9.0947 74.946 8.32955C74.946 7.55682 74.7907 6.9053 74.4801 6.375C74.1771 5.8447 73.7112 5.44318 73.0824 5.17045C72.4612 4.89015 71.6771 4.75 70.7301 4.75H67.4119V24H62.4915ZM75.0597 13.4091L80.8438 24H75.4119L69.7528 13.4091H75.0597ZM83.4915 24V0.727272H98.9006V4.78409H88.4119V10.3295H97.8778V14.3864H88.4119V24H83.4915ZM102.21 24V0.727272H117.619V4.78409H107.131V10.3295H116.597V14.3864H107.131V24H102.21Z" fill="white"/>
<path d="M0.0227273 24H-1.97727V26H0.0227273V24ZM0.0227273 0.727272V-1.27273H-1.97727V0.727272H0.0227273ZM15.7045 0.727272H17.7045V-1.27273H15.7045V0.727272ZM15.7045 4.78409V6.78409H17.7045V4.78409H15.7045ZM4.94318 4.78409V2.78409H2.94318V4.78409H4.94318ZM4.94318 10.3295H2.94318V12.3295H4.94318V10.3295ZM14.8977 10.3295H16.8977V8.32955H14.8977V10.3295ZM14.8977 14.3864V16.3864H16.8977V14.3864H14.8977ZM4.94318 14.3864V12.3864H2.94318V14.3864H4.94318ZM4.94318 19.9432H2.94318V21.9432H4.94318V19.9432ZM15.75 19.9432H17.75V17.9432H15.75V19.9432ZM15.75 24V26H17.75V24H15.75ZM2.02273 24V0.727272H-1.97727V24H2.02273ZM0.0227273 2.72727H15.7045V-1.27273H0.0227273V2.72727ZM13.7045 0.727272V4.78409H17.7045V0.727272H13.7045ZM15.7045 2.78409H4.94318V6.78409H15.7045V2.78409ZM2.94318 4.78409V10.3295H6.94318V4.78409H2.94318ZM4.94318 12.3295H14.8977V8.32955H4.94318V12.3295ZM12.8977 10.3295V14.3864H16.8977V10.3295H12.8977ZM14.8977 12.3864H4.94318V16.3864H14.8977V12.3864ZM2.94318 14.3864V19.9432H6.94318V14.3864H2.94318ZM4.94318 21.9432H15.75V17.9432H4.94318V21.9432ZM13.75 19.9432V24H17.75V19.9432H13.75ZM15.75 22H0.0227273V26H15.75V22ZM19.6165 24H17.6165V26H19.6165V24ZM19.6165 0.727272V-1.27273H17.6165V0.727272H19.6165ZM33.9801 2.125L33.0142 3.87628L33.0202 3.87959L33.9801 2.125ZM37.8778 6.11364L36.1063 7.04194L36.1095 7.04799L37.8778 6.11364ZM37.8778 18.5909L36.1078 17.6597L36.1047 17.6658L37.8778 18.5909ZM33.9574 22.6023L32.998 20.8474L32.9948 20.8492L33.9574 22.6023ZM24.5369 19.7841H22.5369V21.7841H24.5369V19.7841ZM31.3324 19.0114L32.2538 20.7865L32.2589 20.7838L31.3324 19.0114ZM33.5824 16.5909L31.7668 15.752L31.7643 15.7576L33.5824 16.5909ZM33.5824 8.125L31.7642 8.95832L31.7691 8.9687L33.5824 8.125ZM31.3438 5.71591L32.2652 3.94081L31.3438 5.71591ZM24.5369 4.94318V2.94318H22.5369V4.94318H24.5369ZM27.8665 22H19.6165V26H27.8665V22ZM21.6165 24V0.727272H17.6165V24H21.6165ZM19.6165 2.72727H27.9347V-1.27273H19.6165V2.72727ZM27.9347 2.72727C30.0094 2.72727 31.6775 3.13902 33.0142 3.87627L34.9461 0.37373C32.9039 -0.752654 30.5418 -1.27273 27.9347 -1.27273V2.72727ZM33.0202 3.87959C34.3573 4.61106 35.377 5.65018 36.1063 7.04194L39.6494 5.18533C38.5605 3.10739 36.9818 1.48742 34.94 0.370412L33.0202 3.87959ZM36.1095 7.04799C36.8427 8.43564 37.2528 10.1756 37.2528 12.3409H41.2528C41.2528 9.67293 40.7463 7.26133 39.6462 5.17928L36.1095 7.04799ZM37.2528 12.3409C37.2528 14.5147 36.8424 16.2634 36.1078 17.6597L39.6478 19.5221C40.7466 17.4335 41.2528 15.0157 41.2528 12.3409H37.2528ZM36.1047 17.6658C35.3765 19.0615 34.3509 20.1078 32.998 20.8474L34.9167 24.3572C36.973 23.2331 38.561 21.6051 39.651 19.516L36.1047 17.6658ZM32.9948 20.8492C31.6513 21.5869 29.9673 22 27.8665 22V26C30.493 26 32.8696 25.4813 34.92 24.3554L32.9948 20.8492ZM24.5369 21.7841H27.6619V17.7841H24.5369V21.7841ZM27.6619 21.7841C29.3439 21.7841 30.9041 21.4871 32.2538 20.7865L30.411 17.2363C29.7758 17.5659 28.889 17.7841 27.6619 17.7841V21.7841ZM32.2589 20.7838C33.6779 20.042 34.7282 18.891 35.4005 17.4242L31.7643 15.7576C31.4365 16.4726 30.9868 16.9352 30.4059 17.2389L32.2589 20.7838ZM35.3979 17.4298C36.0679 15.98 36.3438 14.249 36.3438 12.3409H32.3438C32.3438 13.9025 32.1121 15.0049 31.7668 15.752L35.3979 17.4298ZM36.3438 12.3409C36.3438 10.4459 36.0673 8.72467 35.3957 7.2813L31.7691 8.9687C32.1126 9.70715 32.3438 10.7966 32.3438 12.3409H36.3438ZM35.4005 7.29169C34.7294 5.8274 33.6829 4.67673 32.2652 3.94081L30.4223 7.49101C30.9894 7.78539 31.4354 8.24078 31.7643 8.95831L35.4005 7.29169ZM32.2652 3.94081C30.9155 3.24019 29.3553 2.94318 27.6733 2.94318V6.94318C28.9004 6.94318 29.7872 7.16132 30.4223 7.49101L32.2652 3.94081ZM27.6733 2.94318H24.5369V6.94318H27.6733V2.94318ZM22.5369 4.94318V19.7841H26.5369V4.94318H22.5369ZM42.8977 24H40.8977V26H42.8977V24ZM42.8977 0.727272V-1.27273H40.8977V0.727272H42.8977ZM58.5795 0.727272H60.5795V-1.27273H58.5795V0.727272ZM58.5795 4.78409V6.78409H60.5795V4.78409H58.5795ZM47.8182 4.78409V2.78409H45.8182V4.78409H47.8182ZM47.8182 10.3295H45.8182V12.3295H47.8182V10.3295ZM57.7727 10.3295H59.7727V8.32955H57.7727V10.3295ZM57.7727 14.3864V16.3864H59.7727V14.3864H57.7727ZM47.8182 14.3864V12.3864H45.8182V14.3864H47.8182ZM47.8182 19.9432H45.8182V21.9432H47.8182V19.9432ZM58.625 19.9432H60.625V17.9432H58.625V19.9432ZM58.625 24V26H60.625V24H58.625ZM44.8977 24V0.727272H40.8977V24H44.8977ZM42.8977 2.72727H58.5795V-1.27273H42.8977V2.72727ZM56.5795 0.727272V4.78409H60.5795V0.727272H56.5795ZM58.5795 2.78409H47.8182V6.78409H58.5795V2.78409ZM45.8182 4.78409V10.3295H49.8182V4.78409H45.8182ZM47.8182 12.3295H57.7727V8.32955H47.8182V12.3295ZM55.7727 10.3295V14.3864H59.7727V10.3295H55.7727ZM57.7727 12.3864H47.8182V16.3864H57.7727V12.3864ZM45.8182 14.3864V19.9432H49.8182V14.3864H45.8182ZM47.8182 21.9432H58.625V17.9432H47.8182V21.9432ZM56.625 19.9432V24H60.625V19.9432H56.625ZM58.625 22H42.8977V26H58.625V22ZM62.4915 24H60.4915V26H62.4915V24ZM62.4915 0.727272V-1.27273H60.4915V0.727272H62.4915ZM76.1733 1.67045L75.2702 3.45494L75.2767 3.45823L75.2832 3.46147L76.1733 1.67045ZM79.0256 4.31818L77.2877 5.30798L77.2916 5.31481L77.2955 5.32162L79.0256 4.31818ZM79.0142 12.3182L80.7271 13.3506L80.7302 13.3455L79.0142 12.3182ZM76.1165 14.8636L75.2701 13.0515L75.2659 13.0535L76.1165 14.8636ZM65.4006 15.75H63.4006V17.75H65.4006V15.75ZM65.4006 11.7955V9.79545H63.4006V11.7955H65.4006ZM73.0938 11.4091L73.8598 13.2566V13.2566L73.0938 11.4091ZM74.4801 10.25L72.7674 9.21731L72.7617 9.2266L72.7562 9.23596L74.4801 10.25ZM74.4801 6.375L72.7436 7.36728L72.7489 7.37657L72.7543 7.38581L74.4801 6.375ZM73.0824 5.17045L72.2598 6.99346L72.2731 6.99948L72.2866 7.0053L73.0824 5.17045ZM67.4119 4.75V2.75H65.4119V4.75H67.4119ZM67.4119 24V26H69.4119V24H67.4119ZM75.0597 13.4091L76.8149 12.4505L76.2462 11.4091H75.0597V13.4091ZM80.8438 24V26H84.2149L82.599 23.0414L80.8438 24ZM75.4119 24L73.648 24.9426L74.213 26H75.4119V24ZM69.7528 13.4091V11.4091H66.4166L67.9889 14.3516L69.7528 13.4091ZM64.4915 24V0.727272H60.4915V24H64.4915ZM62.4915 2.72727H71.6733V-1.27273H62.4915V2.72727ZM71.6733 2.72727C73.1973 2.72727 74.3714 3.00008 75.2702 3.45494L77.0764 -0.114027C75.4903 -0.916749 73.6645 -1.27273 71.6733 -1.27273V2.72727ZM75.2832 3.46147C76.1999 3.91703 76.845 4.53073 77.2877 5.30798L80.7635 3.32839C79.9031 1.81776 78.6467 0.666306 77.0634 -0.120566L75.2832 3.46147ZM77.2955 5.32162C77.7496 6.1046 78.0142 7.08339 78.0142 8.32955H82.0142C82.0142 6.49994 81.6197 4.80449 80.7556 3.31474L77.2955 5.32162ZM78.0142 8.32955C78.0142 9.58265 77.7463 10.5423 77.2982 11.2909L80.7302 13.3455C81.6154 11.8668 82.0142 10.1674 82.0142 8.32955H78.0142ZM77.3013 11.2857C76.8564 12.0238 76.206 12.6144 75.2701 13.0515L76.9628 16.6757C78.5572 15.931 79.8386 14.8247 80.7271 13.3506L77.3013 11.2857ZM75.2659 13.0535C74.3393 13.4889 73.1234 13.75 71.5483 13.75V17.75C73.549 17.75 75.3785 17.4202 76.967 16.6738L75.2659 13.0535ZM71.5483 13.75H65.4006V17.75H71.5483V13.75ZM67.4006 15.75V11.7955H63.4006V15.75H67.4006ZM65.4006 13.7955H70.7528V9.79545H65.4006V13.7955ZM70.7528 13.7955C71.8581 13.7955 72.9198 13.6463 73.8598 13.2566L72.3277 9.56161C72.0253 9.68702 71.5264 9.79545 70.7528 9.79545V13.7955ZM73.8598 13.2566C74.8296 12.8545 75.6534 12.2 76.204 11.264L72.7562 9.23596C72.7008 9.33026 72.6003 9.44858 72.3277 9.56161L73.8598 13.2566ZM76.1929 11.2827C76.7361 10.3817 76.946 9.36103 76.946 8.32955H72.946C72.946 8.82836 72.8453 9.088 72.7674 9.21731L76.1929 11.2827ZM76.946 8.32955C76.946 7.29179 76.7368 6.2706 76.2059 5.36419L72.7543 7.38581C72.8447 7.54001 72.946 7.82184 72.946 8.32955H76.946ZM76.2166 5.38272C75.6733 4.43197 74.8525 3.7582 73.8782 3.33561L72.2866 7.0053C72.5698 7.12816 72.6809 7.25743 72.7436 7.36728L76.2166 5.38272ZM73.905 3.34744C72.9452 2.91436 71.8573 2.75 70.7301 2.75V6.75C71.4968 6.75 71.9772 6.86594 72.2598 6.99346L73.905 3.34744ZM70.7301 2.75H67.4119V6.75H70.7301V2.75ZM65.4119 4.75V24H69.4119V4.75H65.4119ZM67.4119 22H62.4915V26H67.4119V22ZM73.3044 14.3677L79.0885 24.9586L82.599 23.0414L76.8149 12.4505L73.3044 14.3677ZM80.8438 22H75.4119V26H80.8438V22ZM77.1759 23.0574L71.5168 12.4665L67.9889 14.3516L73.648 24.9426L77.1759 23.0574ZM69.7528 15.4091H75.0597V11.4091H69.7528V15.4091ZM83.4915 24H81.4915V26H83.4915V24ZM83.4915 0.727272V-1.27273H81.4915V0.727272H83.4915ZM98.9006 0.727272H100.901V-1.27273H98.9006V0.727272ZM98.9006 4.78409V6.78409H100.901V4.78409H98.9006ZM88.4119 4.78409V2.78409H86.4119V4.78409H88.4119ZM88.4119 10.3295H86.4119V12.3295H88.4119V10.3295ZM97.8778 10.3295H99.8778V8.32955H97.8778V10.3295ZM97.8778 14.3864V16.3864H99.8778V14.3864H97.8778ZM88.4119 14.3864V12.3864H86.4119V14.3864H88.4119ZM88.4119 24V26H90.4119V24H88.4119ZM85.4915 24V0.727272H81.4915V24H85.4915ZM83.4915 2.72727H98.9006V-1.27273H83.4915V2.72727ZM96.9006 0.727272V4.78409H100.901V0.727272H96.9006ZM98.9006 2.78409H88.4119V6.78409H98.9006V2.78409ZM86.4119 4.78409V10.3295H90.4119V4.78409H86.4119ZM88.4119 12.3295H97.8778V8.32955H88.4119V12.3295ZM95.8778 10.3295V14.3864H99.8778V10.3295H95.8778ZM97.8778 12.3864H88.4119V16.3864H97.8778V12.3864ZM86.4119 14.3864V24H90.4119V14.3864H86.4119ZM88.4119 22H83.4915V26H88.4119V22ZM102.21 24H100.21V26H102.21V24ZM102.21 0.727272V-1.27273H100.21V0.727272H102.21ZM117.619 0.727272H119.619V-1.27273H117.619V0.727272ZM117.619 4.78409V6.78409H119.619V4.78409H117.619ZM107.131 4.78409V2.78409H105.131V4.78409H107.131ZM107.131 10.3295H105.131V12.3295H107.131V10.3295ZM116.597 10.3295H118.597V8.32955H116.597V10.3295ZM116.597 14.3864V16.3864H118.597V14.3864H116.597ZM107.131 14.3864V12.3864H105.131V14.3864H107.131ZM107.131 24V26H109.131V24H107.131ZM104.21 24V0.727272H100.21V24H104.21ZM102.21 2.72727H117.619V-1.27273H102.21V2.72727ZM115.619 0.727272V4.78409H119.619V0.727272H115.619ZM117.619 2.78409H107.131V6.78409H117.619V2.78409ZM105.131 4.78409V10.3295H109.131V4.78409H105.131ZM107.131 12.3295H116.597V8.32955H107.131V12.3295ZM114.597 10.3295V14.3864H118.597V10.3295H114.597ZM116.597 12.3864H107.131V16.3864H116.597V12.3864ZM105.131 14.3864V24H109.131V14.3864H105.131ZM107.131 22H102.21V26H107.131V22Z" fill="black" mask="url(#path-1-outside-1_10_142)"/>
</g>
<defs>
<filter id="filter0_d_10_142" x="0.0227051" y="0.727264" width="120.597" height="26.2727" filterUnits="userSpaceOnUse" color-interpolation-filters="sRGB">
<feFlood flood-opacity="0" result="BackgroundImageFix"/>
<feColorMatrix in="SourceAlpha" type="matrix" values="0 0 0 0 0 0 0 0 0 0 0 0 0 0 0 0 0 0 127 0" result="hardAlpha"/>
<feOffset dx="3" dy="3"/>
<feComposite in2="hardAlpha" operator="out"/>
<feColorMatrix type="matrix" values="0 0 0 0 0 0 0 0 0 0 0 0 0 0 0 0 0 0 1 0"/>
<feBlend mode="normal" in2="BackgroundImageFix" result="effect1_dropShadow_10_142"/>
<feBlend mode="normal" in="SourceGraphic" in2="effect1_dropShadow_10_142" result="shape"/>
</filter>
</defs>
</svg>
