<svg width="87" height="396" viewBox="0 0 87 396" fill="none" xmlns="http://www.w3.org/2000/svg">
<mask id="path-1-outside-1_132_10" maskUnits="userSpaceOnUse" x="29" y="1" width="39" height="396" fill="black">
<rect fill="white" x="29" y="1" width="39" height="396"/>
<path d="M31 15.5455V2.64205L65.9091 2.64205V15.5284C65.9091 19.0852 65.2102 22.1477 63.8125 24.7159C62.4261 27.2955 60.4261 29.2841 57.8125 30.6818C55.2102 32.0795 52.0966 32.7784 48.4716 32.7784C44.8352 32.7784 41.7102 32.0795 39.0966 30.6818C36.483 29.2955 34.4773 27.3125 33.0795 24.733C31.6932 22.1534 31 19.0909 31 15.5455ZM38.1932 11.0795V15.2216C38.1932 17.1761 38.5227 18.8295 39.1818 20.1818C39.8523 21.5455 40.9375 22.5739 42.4375 23.267C43.9489 23.9716 45.9602 24.3239 48.4716 24.3239C50.983 24.3239 52.983 23.9716 54.4716 23.267C55.9716 22.5625 57.0511 21.5227 57.7102 20.1477C58.3807 18.7841 58.7159 17.1023 58.7159 15.1023V11.0795H38.1932ZM31 37.7045H65.9091V62.0455H59.0568V46.142H51.8977V60.8011H45.0284V46.142H37.8523L37.8523 62.0455H31L31 37.7045ZM65.9091 75.2557L40.3409 83.0625V83.3523L65.9091 91.1591V100.602L31 88.8239V77.5909L65.9091 65.8125V75.2557ZM31 114.673H65.9091L65.9091 138.503H59.0568V123.111H51.8977V136.986H45.0284V123.111H31V114.673ZM65.9091 163.871V172.291H43.392C40.7898 172.291 38.5227 171.672 36.5909 170.433C34.6705 169.195 33.1818 167.467 32.125 165.251C31.0795 163.036 30.5568 160.462 30.5568 157.53C30.5568 154.564 31.0795 151.973 32.125 149.757C33.1818 147.541 34.6705 145.82 36.5909 144.592C38.5227 143.365 40.7898 142.751 43.392 142.751H65.9091V151.189H44.125C42.9205 151.189 41.8466 151.45 40.9034 151.973C39.9602 152.507 39.2216 153.251 38.6875 154.206C38.1534 155.161 37.8864 156.268 37.8864 157.53C37.8864 158.791 38.1534 159.893 38.6875 160.837C39.2216 161.791 39.9602 162.536 40.9034 163.07C41.8466 163.604 42.9205 163.871 44.125 163.871H65.9091ZM31 177.58H65.9091V186.017H37.8523V200.54H31V177.58ZM31 204.908H65.9091V213.345H37.8523V227.868H31V204.908ZM55.4432 251.105C56.6932 250.991 57.6648 250.486 58.358 249.588C59.0625 248.702 59.4148 247.435 59.4148 245.787C59.4148 244.696 59.2727 243.787 58.9886 243.06C58.7045 242.332 58.3125 241.787 57.8125 241.423C57.3239 241.06 56.7614 240.872 56.125 240.861C55.6023 240.838 55.142 240.94 54.7443 241.168C54.3466 241.406 53.9943 241.747 53.6875 242.19C53.392 242.645 53.1307 243.19 52.9034 243.827C52.6761 244.463 52.4773 245.179 52.3068 245.974L51.625 248.974C51.25 250.702 50.75 252.224 50.125 253.543C49.5 254.872 48.7557 255.986 47.892 256.884C47.0284 257.793 46.0341 258.48 44.9091 258.946C43.7841 259.412 42.5227 259.651 41.125 259.662C38.9205 259.651 37.0284 259.094 35.4489 257.991C33.8693 256.889 32.6591 255.304 31.8182 253.236C30.9773 251.179 30.5568 248.696 30.5568 245.787C30.5568 242.866 30.9943 240.321 31.8693 238.151C32.7443 235.98 34.0739 234.293 35.858 233.088C37.642 231.884 39.8977 231.264 42.625 231.23V239.31C41.5 239.378 40.5625 239.679 39.8125 240.213C39.0625 240.747 38.4943 241.48 38.108 242.412C37.7216 243.355 37.5284 244.446 37.5284 245.685C37.5284 246.821 37.6818 247.787 37.9886 248.582C38.2955 249.389 38.7216 250.009 39.267 250.44C39.8125 250.872 40.4375 251.094 41.142 251.105C41.8011 251.094 42.3636 250.889 42.8295 250.491C43.3068 250.094 43.7159 249.48 44.0568 248.651C44.4091 247.832 44.733 246.787 45.0284 245.514L45.8807 241.866C46.5739 238.844 47.6932 236.463 49.2386 234.724C50.7955 232.986 52.8977 232.122 55.5455 232.134C57.7045 232.122 59.5966 232.702 61.2216 233.872C62.8466 235.043 64.1136 236.662 65.0227 238.73C65.9318 240.798 66.3864 243.156 66.3864 245.804C66.3864 248.509 65.9261 250.855 65.0057 252.844C64.0966 254.844 62.8182 256.395 61.1705 257.497C59.5227 258.599 57.6136 259.162 55.4432 259.185V251.105ZM59.0568 262.781H65.9091V292.287H59.0568V281.702H31V273.384H59.0568V262.781ZM31 299.599V290.531L65.9091 302.31V313.543L31 325.321V316.253L57.1136 308.054V307.781L31 299.599ZM44.7386 298.389V317.344H38.3295V298.389H44.7386ZM53.2614 359.126V350.604C54.1364 350.49 54.9261 350.257 55.6307 349.905C56.3352 349.553 56.9375 349.087 57.4375 348.507C57.9375 347.928 58.3182 347.24 58.5795 346.445C58.8523 345.661 58.9886 344.791 58.9886 343.837C58.9886 342.143 58.5739 340.683 57.7443 339.456C56.9148 338.24 55.7159 337.303 54.1477 336.643C52.5795 335.996 50.6818 335.672 48.4545 335.672C46.1364 335.672 44.1932 336.001 42.625 336.661C41.0682 337.331 39.892 338.268 39.0966 339.473C38.3125 340.689 37.9205 342.126 37.9205 343.786C37.9205 344.717 38.0398 345.564 38.2784 346.325C38.517 347.098 38.8636 347.774 39.3182 348.354C39.7841 348.945 40.3466 349.428 41.0057 349.803C41.6761 350.189 42.4318 350.456 43.2727 350.604L43.2216 359.126C41.6761 358.979 40.1534 358.53 38.6534 357.78C37.1534 357.041 35.7841 356.024 34.5455 354.729C33.3182 353.433 32.3409 351.854 31.6136 349.99C30.8864 348.138 30.5227 346.013 30.5227 343.615C30.5227 340.456 31.2159 337.626 32.6023 335.126C34 332.638 36.0341 330.672 38.7045 329.229C41.375 327.786 44.625 327.064 48.4545 327.064C52.2955 327.064 55.5511 327.797 58.2216 329.263C60.892 330.729 62.9205 332.712 64.3068 335.212C65.6932 337.712 66.3864 340.513 66.3864 343.615C66.3864 345.729 66.0909 347.683 65.5 349.479C64.9205 351.274 64.0682 352.854 62.9432 354.217C61.8295 355.581 60.4602 356.689 58.8352 357.541C57.2102 358.393 55.3523 358.922 53.2614 359.126ZM31 363.955H65.9091V372.392H51.1477V372.852L65.9091 384.392V394.33L50.3295 381.955L31 394.551V384.46L44.7216 375.767L40.4602 372.392H31V363.955Z"/>
</mask>
<path d="M31 2.64205V1.64205H30V2.64205H31ZM65.9091 2.64205L66.9091 2.64205V1.64205H65.9091V2.64205ZM63.8125 24.7159L62.9341 24.2379L62.9317 24.2425L63.8125 24.7159ZM57.8125 30.6818L57.3409 29.8L57.3393 29.8009L57.8125 30.6818ZM39.0966 30.6818L39.5682 29.8L39.5652 29.7984L39.0966 30.6818ZM33.0795 24.733L32.1987 25.2064L32.2003 25.2094L33.0795 24.733ZM38.1932 11.0795V10.0795H37.1932V11.0795H38.1932ZM39.1818 20.1818L38.2829 20.6199L38.2844 20.623L39.1818 20.1818ZM42.4375 23.267L42.86 22.3607L42.857 22.3593L42.4375 23.267ZM54.4716 23.267L54.0465 22.3619L54.0438 22.3632L54.4716 23.267ZM57.7102 20.1477L56.8128 19.7065L56.8085 19.7155L57.7102 20.1477ZM58.7159 11.0795H59.7159V10.0795H58.7159V11.0795ZM32 15.5455V2.64205H30V15.5455H32ZM31 3.64205L65.9091 3.64205V1.64205L31 1.64205V3.64205ZM64.9091 2.64205V15.5284H66.9091V2.64205L64.9091 2.64205ZM64.9091 15.5284C64.9091 18.9541 64.2365 21.8449 62.9342 24.2379L64.6908 25.1939C66.1839 22.4505 66.9091 19.2164 66.9091 15.5284H64.9091ZM62.9317 24.2425C61.6397 26.6464 59.7831 28.4939 57.3409 29.8L58.2841 31.5636C61.0691 30.0742 63.2126 27.9445 64.6933 25.1893L62.9317 24.2425ZM57.3393 29.8009C54.912 31.1046 51.9685 31.7784 48.4716 31.7784V33.7784C52.2247 33.7784 55.5084 33.0545 58.2857 31.5628L57.3393 29.8009ZM48.4716 31.7784C44.9629 31.7784 42.0074 31.1044 39.5682 29.8L38.625 31.5636C41.4131 33.0547 44.7076 33.7784 48.4716 33.7784V31.7784ZM39.5652 29.7984C37.124 28.5035 35.2618 26.6614 33.9588 24.2565L32.2003 25.2094C33.6927 27.9636 35.842 30.0874 38.628 31.5652L39.5652 29.7984ZM33.9604 24.2595C32.6671 21.8532 32 18.9602 32 15.5455H30C30 19.2216 30.7193 22.4536 32.1987 25.2064L33.9604 24.2595ZM37.1932 11.0795V15.2216H39.1932V11.0795H37.1932ZM37.1932 15.2216C37.1932 17.2842 37.5405 19.0967 38.2829 20.6199L40.0807 19.7437C39.505 18.5624 39.1932 17.0681 39.1932 15.2216H37.1932ZM38.2844 20.623C39.0651 22.2108 40.3294 23.3945 42.018 24.1748L42.857 22.3593C41.5456 21.7533 40.6395 20.8801 40.0792 19.7406L38.2844 20.623ZM42.015 24.1734C43.7084 24.9628 45.8815 25.3239 48.4716 25.3239V23.3239C46.039 23.3239 44.1893 22.9804 42.86 22.3607L42.015 24.1734ZM48.4716 25.3239C51.0605 25.3239 53.2254 24.9632 54.8994 24.1709L54.0438 22.3632C52.7405 22.98 50.9054 23.3239 48.4716 23.3239V25.3239ZM54.8967 24.1722C56.586 23.3788 57.8444 22.1814 58.612 20.58L56.8085 19.7155C56.2579 20.8641 55.3572 21.7463 54.0465 22.3619L54.8967 24.1722ZM58.6076 20.5889C59.3634 19.0517 59.7159 17.2089 59.7159 15.1023H57.7159C57.7159 16.9957 57.3979 18.5165 56.8128 19.7065L58.6076 20.5889ZM59.7159 15.1023V11.0795H57.7159V15.1023H59.7159ZM58.7159 10.0795H38.1932V12.0795H58.7159V10.0795ZM31 37.7045V36.7045H30V37.7045H31ZM65.9091 37.7045H66.9091V36.7045H65.9091V37.7045ZM65.9091 62.0455V63.0455H66.9091V62.0455H65.9091ZM59.0568 62.0455H58.0568V63.0455H59.0568V62.0455ZM59.0568 46.142H60.0568V45.142H59.0568V46.142ZM51.8977 46.142V45.142H50.8977V46.142H51.8977ZM51.8977 60.8011V61.8011H52.8977V60.8011H51.8977ZM45.0284 60.8011H44.0284V61.8011H45.0284V60.8011ZM45.0284 46.142H46.0284V45.142H45.0284V46.142ZM37.8523 46.142V45.142H36.8523V46.142H37.8523ZM37.8523 62.0455V63.0455H38.8523V62.0455H37.8523ZM31 62.0455H30V63.0455H31V62.0455ZM31 38.7045H65.9091V36.7045H31V38.7045ZM64.9091 37.7045V62.0455H66.9091V37.7045H64.9091ZM65.9091 61.0455H59.0568V63.0455H65.9091V61.0455ZM60.0568 62.0455V46.142H58.0568V62.0455H60.0568ZM59.0568 45.142H51.8977V47.142H59.0568V45.142ZM50.8977 46.142V60.8011H52.8977V46.142H50.8977ZM51.8977 59.8011H45.0284V61.8011H51.8977V59.8011ZM46.0284 60.8011V46.142H44.0284L44.0284 60.8011H46.0284ZM45.0284 45.142H37.8523V47.142H45.0284V45.142ZM36.8523 46.142L36.8523 62.0455H38.8523L38.8523 46.142H36.8523ZM37.8523 61.0455H31V63.0455H37.8523V61.0455ZM32 62.0455L32 37.7045H30L30 62.0455H32ZM65.9091 75.2557L66.2011 76.2121L66.9091 75.9959V75.2557H65.9091ZM40.3409 83.0625L40.0489 82.1061L39.3409 82.3223V83.0625H40.3409ZM40.3409 83.3523H39.3409V84.0925L40.0489 84.3087L40.3409 83.3523ZM65.9091 91.1591H66.9091V90.4188L66.2011 90.2027L65.9091 91.1591ZM65.9091 100.602L65.5894 101.55L66.9091 101.995V100.602H65.9091ZM31 88.8239H30V89.5418L30.6803 89.7714L31 88.8239ZM31 77.5909L30.6803 76.6434L30 76.8729V77.5909H31ZM65.9091 65.8125H66.9091V64.4197L65.5894 64.865L65.9091 65.8125ZM65.6171 74.2993L40.0489 82.1061L40.6329 84.0189L66.2011 76.2121L65.6171 74.2993ZM39.3409 83.0625V83.3523H41.3409V83.0625H39.3409ZM40.0489 84.3087L65.6171 92.1155L66.2011 90.2027L40.6329 82.3959L40.0489 84.3087ZM64.9091 91.1591V100.602H66.9091V91.1591H64.9091ZM66.2288 99.6548L31.3197 87.8763L30.6803 89.7714L65.5894 101.55L66.2288 99.6548ZM32 88.8239V77.5909H30V88.8239H32ZM31.3197 78.5384L66.2288 66.76L65.5894 64.865L30.6803 76.6434L31.3197 78.5384ZM64.9091 65.8125V75.2557H66.9091V65.8125H64.9091ZM31 114.673V113.673H30V114.673H31ZM65.9091 114.673H66.9091V113.673H65.9091V114.673ZM65.9091 138.503V139.503H66.9091V138.503H65.9091ZM59.0568 138.503H58.0568V139.503H59.0568V138.503ZM59.0568 123.111H60.0568V122.111H59.0568V123.111ZM51.8977 123.111V122.111H50.8977V123.111H51.8977ZM51.8977 136.986V137.986H52.8977V136.986H51.8977ZM45.0284 136.986H44.0284V137.986H45.0284V136.986ZM45.0284 123.111H46.0284V122.111H45.0284V123.111ZM31 123.111H30V124.111H31V123.111ZM31 115.673H65.9091V113.673H31V115.673ZM64.9091 114.673L64.9091 138.503H66.9091L66.9091 114.673H64.9091ZM65.9091 137.503H59.0568V139.503H65.9091V137.503ZM60.0568 138.503V123.111H58.0568V138.503H60.0568ZM59.0568 122.111H51.8977V124.111H59.0568V122.111ZM50.8977 123.111V136.986H52.8977V123.111H50.8977ZM51.8977 135.986H45.0284V137.986H51.8977V135.986ZM46.0284 136.986V123.111H44.0284V136.986H46.0284ZM45.0284 122.111H31V124.111H45.0284V122.111ZM32 123.111V114.673H30V123.111H32ZM65.9091 163.871H66.9091V162.871H65.9091V163.871ZM65.9091 172.291V173.291H66.9091V172.291H65.9091ZM36.5909 170.433L36.0489 171.274L36.0512 171.275L36.5909 170.433ZM32.125 165.251L31.2206 165.678L31.2224 165.682L32.125 165.251ZM32.125 149.757L31.2224 149.327L31.2206 149.33L32.125 149.757ZM36.5909 144.592L36.0547 143.748L36.0524 143.75L36.5909 144.592ZM65.9091 142.751H66.9091V141.751H65.9091V142.751ZM65.9091 151.189V152.189H66.9091V151.189H65.9091ZM40.9034 151.973L40.4186 151.098L40.4107 151.103L40.9034 151.973ZM38.6875 154.206L39.5602 154.694L39.5602 154.694L38.6875 154.206ZM38.6875 160.837L39.5602 160.348L39.5577 160.344L38.6875 160.837ZM64.9091 163.871V172.291H66.9091V163.871H64.9091ZM65.9091 171.291H43.392V173.291H65.9091V171.291ZM43.392 171.291C40.9548 171.291 38.8806 170.713 37.1307 169.591L36.0512 171.275C38.1649 172.63 40.6248 173.291 43.392 173.291V171.291ZM37.1329 169.593C35.38 168.462 34.0107 166.882 33.0276 164.821L31.2224 165.682C32.3529 168.052 33.9609 169.927 36.0489 171.274L37.1329 169.593ZM33.0294 164.825C32.0581 162.766 31.5568 160.343 31.5568 157.53H29.5568C29.5568 160.581 30.101 163.305 31.2206 165.678L33.0294 164.825ZM31.5568 157.53C31.5568 154.681 32.0587 152.241 33.0294 150.184L31.2206 149.33C30.1003 151.705 29.5568 154.447 29.5568 157.53H31.5568ZM33.0276 150.188C34.0104 148.127 35.3786 146.554 37.1294 145.435L36.0524 143.75C33.9623 145.085 32.3532 146.956 31.2224 149.327L33.0276 150.188ZM37.1271 145.436C38.8775 144.324 40.953 143.751 43.392 143.751V141.751C40.6266 141.751 38.168 142.406 36.0547 143.748L37.1271 145.436ZM43.392 143.751H65.9091V141.751H43.392V143.751ZM64.9091 142.751V151.189H66.9091V142.751H64.9091ZM65.9091 150.189H44.125V152.189H65.9091V150.189ZM44.125 150.189C42.7711 150.189 41.5269 150.484 40.4187 151.098L41.3882 152.848C42.1663 152.416 43.0698 152.189 44.125 152.189V150.189ZM40.4107 151.103C39.3068 151.728 38.4374 152.605 37.8148 153.718L39.5602 154.694C40.0058 153.898 40.6137 153.286 41.3962 152.843L40.4107 151.103ZM37.8148 153.718C37.1852 154.843 36.8864 156.124 36.8864 157.53H38.8864C38.8864 156.413 39.1216 155.478 39.5602 154.694L37.8148 153.718ZM36.8864 157.53C36.8864 158.935 37.1851 160.213 37.8173 161.329L39.5577 160.344C39.1217 159.574 38.8864 158.647 38.8864 157.53H36.8864ZM37.8148 161.325C38.4374 162.438 39.3068 163.315 40.4107 163.94L41.3962 162.199C40.6137 161.756 40.0058 161.145 39.5602 160.348L37.8148 161.325ZM40.4107 163.94C41.5204 164.568 42.7674 164.871 44.125 164.871V162.871C43.0735 162.871 42.1728 162.639 41.3962 162.199L40.4107 163.94ZM44.125 164.871H65.9091V162.871H44.125V164.871ZM31 177.58V176.58H30V177.58H31ZM65.9091 177.58H66.9091V176.58H65.9091V177.58ZM65.9091 186.017V187.017H66.9091V186.017H65.9091ZM37.8523 186.017V185.017H36.8523V186.017H37.8523ZM37.8523 200.54V201.54H38.8523V200.54H37.8523ZM31 200.54H30V201.54H31V200.54ZM31 178.58H65.9091V176.58H31V178.58ZM64.9091 177.58V186.017H66.9091V177.58H64.9091ZM65.9091 185.017H37.8523V187.017H65.9091V185.017ZM36.8523 186.017V200.54H38.8523V186.017H36.8523ZM37.8523 199.54H31V201.54H37.8523V199.54ZM32 200.54V177.58H30V200.54H32ZM31 204.908V203.908H30V204.908H31ZM65.9091 204.908H66.9091V203.908H65.9091V204.908ZM65.9091 213.345V214.345H66.9091V213.345H65.9091ZM37.8523 213.345V212.345H36.8523V213.345H37.8523ZM37.8523 227.868V228.868H38.8523V227.868H37.8523ZM31 227.868H30V228.868H31V227.868ZM31 205.908H65.9091V203.908H31V205.908ZM64.9091 204.908V213.345H66.9091V204.908H64.9091ZM65.9091 212.345H37.8523V214.345H65.9091V212.345ZM36.8523 213.345V227.868H38.8523V213.345H36.8523ZM37.8523 226.868H31V228.868H37.8523V226.868ZM32 227.868V204.908H30V227.868H32ZM55.4432 251.105L55.3526 250.109L54.4432 250.192V251.105H55.4432ZM58.358 249.588L57.5751 248.966L57.5664 248.977L58.358 249.588ZM58.9886 243.06L59.9201 242.696L59.9201 242.696L58.9886 243.06ZM57.8125 241.423L57.2155 242.226L57.2243 242.232L57.8125 241.423ZM56.125 240.861L56.0816 241.86L56.0943 241.86L56.1071 241.861L56.125 240.861ZM54.7443 241.168L54.2482 240.299L54.2389 240.305L54.2298 240.31L54.7443 241.168ZM53.6875 242.19L52.8653 241.621L52.857 241.633L52.8491 241.645L53.6875 242.19ZM52.9034 243.827L53.8452 244.163L53.8452 244.163L52.9034 243.827ZM52.3068 245.974L53.282 246.196L53.2846 246.184L52.3068 245.974ZM51.625 248.974L50.6498 248.753L50.6478 248.762L51.625 248.974ZM50.125 253.543L49.2214 253.114L49.22 253.117L50.125 253.543ZM47.892 256.884L47.1714 256.19L47.167 256.195L47.892 256.884ZM44.9091 258.946L44.5265 258.022L44.5265 258.022L44.9091 258.946ZM41.125 259.662L41.1198 260.662L41.1331 260.662L41.125 259.662ZM35.4489 257.991L36.0211 257.171L36.0211 257.171L35.4489 257.991ZM31.8182 253.236L32.7445 252.859L32.7438 252.857L31.8182 253.236ZM31.8693 238.151L32.7968 238.524L32.7968 238.524L31.8693 238.151ZM42.625 231.23H43.625V230.218L42.6125 230.23L42.625 231.23ZM42.625 239.31L42.6855 240.308L43.625 240.251V239.31H42.625ZM39.8125 240.213L39.2324 239.399L39.2324 239.399L39.8125 240.213ZM38.108 242.412L37.1842 242.029L37.1826 242.033L38.108 242.412ZM37.9886 248.582L38.9233 248.227L38.9216 248.223L37.9886 248.582ZM39.267 250.44L39.8877 249.656L39.8877 249.656L39.267 250.44ZM41.142 251.105L41.1259 252.105L41.1426 252.105L41.1593 252.105L41.142 251.105ZM42.8295 250.491L42.1893 249.723L42.1803 249.731L42.8295 250.491ZM44.0568 248.651L43.1383 248.255L43.135 248.263L43.1319 248.27L44.0568 248.651ZM45.0284 245.514L44.0546 245.287L44.0543 245.288L45.0284 245.514ZM45.8807 241.866L46.8545 242.094L46.8554 242.09L45.8807 241.866ZM49.2386 234.724L48.4936 234.057L48.4912 234.06L49.2386 234.724ZM55.5455 232.134L55.5412 233.134L55.5507 233.134L55.5455 232.134ZM61.2216 233.872L61.806 233.061L61.806 233.061L61.2216 233.872ZM65.0227 238.73L64.1073 239.133L64.1073 239.133L65.0227 238.73ZM65.0057 252.844L64.0982 252.424L64.0953 252.43L65.0057 252.844ZM61.1705 257.497L61.7265 258.328L61.7265 258.328L61.1705 257.497ZM55.4432 259.185H54.4432V260.195L55.4537 260.185L55.4432 259.185ZM55.5337 252.101C57.0279 251.965 58.2672 251.342 59.1495 250.199L57.5664 248.977C57.0624 249.63 56.3584 250.018 55.3526 250.109L55.5337 252.101ZM59.1408 250.21C60.0374 249.082 60.4148 247.561 60.4148 245.787H58.4148C58.4148 247.308 58.0876 248.321 57.5751 248.966L59.1408 250.21ZM60.4148 245.787C60.4148 244.617 60.2636 243.575 59.9201 242.696L58.0572 243.424C58.2818 243.999 58.4148 244.775 58.4148 245.787H60.4148ZM59.9201 242.696C59.5846 241.837 59.0912 241.117 58.4007 240.615L57.2243 242.232C57.5338 242.457 57.8245 242.828 58.0572 243.424L59.9201 242.696ZM58.4095 240.621C57.7454 240.127 56.9782 239.876 56.1429 239.861L56.1071 241.861C56.5445 241.868 56.9024 241.993 57.2155 242.226L58.4095 240.621ZM56.1684 239.862C55.4846 239.832 54.8322 239.966 54.2482 240.299L55.2405 242.036C55.4519 241.915 55.72 241.844 56.0816 241.86L56.1684 239.862ZM54.2298 240.31C53.692 240.633 53.24 241.08 52.8653 241.621L54.5097 242.76C54.7486 242.414 55.0012 242.18 55.2588 242.025L54.2298 240.31ZM52.8491 241.645C52.5023 242.179 52.209 242.798 51.9617 243.49L53.8452 244.163C54.0524 243.583 54.2818 243.111 54.5259 242.735L52.8491 241.645ZM51.9617 243.49C51.717 244.175 51.5069 244.935 51.329 245.765L53.2846 246.184C53.4476 245.423 53.6353 244.751 53.8452 244.163L51.9617 243.49ZM51.3317 245.753L50.6499 248.753L52.6001 249.196L53.282 246.196L51.3317 245.753ZM50.6478 248.762C50.2857 250.43 49.8077 251.878 49.2214 253.114L51.0286 253.971C51.6923 252.571 52.2143 250.973 52.6022 249.187L50.6478 248.762ZM49.22 253.117C48.6333 254.365 47.9472 255.384 47.1714 256.19L48.6127 257.577C49.5642 256.588 50.3667 255.379 51.03 253.968L49.22 253.117ZM47.167 256.195C46.3969 257.005 45.5182 257.611 44.5265 258.022L45.2917 259.87C46.5499 259.349 47.6599 258.58 48.617 257.572L47.167 256.195ZM44.5265 258.022C43.5365 258.432 42.4049 258.651 41.1169 258.662L41.1331 260.662C42.6406 260.65 44.0317 260.392 45.2917 259.87L44.5265 258.022ZM41.1302 258.662C39.0982 258.651 37.411 258.141 36.0211 257.171L34.8766 258.812C36.6458 260.046 38.7427 260.65 41.1198 260.662L41.1302 258.662ZM36.0211 257.171C34.6239 256.196 33.5245 254.778 32.7445 252.859L30.8918 253.612C31.7936 255.83 33.1147 257.582 34.8766 258.812L36.0211 257.171ZM32.7438 252.857C31.9646 250.952 31.5568 248.604 31.5568 245.787H29.5568C29.5568 248.788 29.9899 251.406 30.8926 253.614L32.7438 252.857ZM31.5568 245.787C31.5568 242.964 31.98 240.551 32.7968 238.524L30.9418 237.777C30.0087 240.091 29.5568 242.769 29.5568 245.787H31.5568ZM32.7968 238.524C33.604 236.522 34.8131 235 36.4175 233.917L35.2984 232.259C33.3346 233.585 31.8846 235.438 30.9418 237.777L32.7968 238.524ZM36.4175 233.917C38.0016 232.847 40.0535 232.262 42.6375 232.23L42.6125 230.23C39.742 230.266 37.2825 230.92 35.2984 232.259L36.4175 233.917ZM41.625 231.23V239.31H43.625V231.23H41.625ZM42.5645 238.311C41.2945 238.388 40.166 238.734 39.2324 239.399L40.3926 241.028C40.959 240.624 41.7055 240.367 42.6855 240.308L42.5645 238.311ZM39.2324 239.399C38.3152 240.052 37.6353 240.941 37.1842 242.029L39.0317 242.795C39.3533 242.019 39.8098 241.443 40.3926 241.028L39.2324 239.399ZM37.1826 242.033C36.7376 243.119 36.5284 244.343 36.5284 245.685H38.5284C38.5284 244.549 38.7056 243.591 39.0333 242.791L37.1826 242.033ZM36.5284 245.685C36.5284 246.905 36.6925 248.001 37.0556 248.942L38.9216 248.223C38.6711 247.573 38.5284 246.737 38.5284 245.685H36.5284ZM37.0539 248.938C37.4095 249.873 37.9291 250.657 38.6463 251.224L39.8877 249.656C39.5141 249.36 39.1814 248.906 38.9233 248.227L37.0539 248.938ZM38.6463 251.224C39.3665 251.795 40.2047 252.09 41.1259 252.105L41.1582 250.105C40.6703 250.097 40.2585 249.95 39.8877 249.656L38.6463 251.224ZM41.1593 252.105C42.0315 252.09 42.8225 251.812 43.4788 251.252L42.1803 249.731C41.9048 249.966 41.5708 250.098 41.1248 250.105L41.1593 252.105ZM43.4697 251.26C44.1153 250.722 44.6046 249.949 44.9818 249.031L43.1319 248.27C42.8273 249.012 42.4984 249.466 42.1894 249.723L43.4697 251.26ZM44.9753 249.046C45.3592 248.154 45.6992 247.047 46.0025 245.74L44.0543 245.288C43.7667 246.527 43.459 247.51 43.1383 248.255L44.9753 249.046ZM46.0022 245.742L46.8545 242.094L44.9069 241.639L44.0546 245.287L46.0022 245.742ZM46.8554 242.09C47.5231 239.178 48.5832 236.967 49.986 235.389L48.4912 234.06C46.8032 235.959 45.6247 238.509 44.906 241.643L46.8554 242.09ZM49.9836 235.392C51.323 233.896 53.1366 233.123 55.5412 233.134L55.5497 231.134C52.6589 231.121 50.2679 232.076 48.4937 234.057L49.9836 235.392ZM55.5507 233.134C57.5157 233.123 59.1975 233.647 60.6371 234.684L61.806 233.061C59.9957 231.757 57.8934 231.121 55.5402 231.134L55.5507 233.134ZM60.6371 234.684C62.0994 235.737 63.2606 237.206 64.1073 239.133L65.9382 238.328C64.9667 236.117 63.5938 234.348 61.806 233.061L60.6371 234.684ZM64.1073 239.133C64.9518 241.054 65.3864 243.271 65.3864 245.804H67.3864C67.3864 243.041 66.9118 240.543 65.9382 238.328L64.1073 239.133ZM65.3864 245.804C65.3864 248.397 64.9452 250.594 64.0982 252.424L65.9132 253.264C66.9071 251.116 67.3864 248.62 67.3864 245.804H65.3864ZM64.0953 252.43C63.2546 254.279 62.0911 255.678 60.6144 256.666L61.7265 258.328C63.5452 257.112 64.9386 255.408 65.9161 253.258L64.0953 252.43ZM60.6144 256.666C59.1435 257.65 57.428 258.164 55.4327 258.185L55.4537 260.185C57.7993 260.16 59.9019 259.549 61.7265 258.328L60.6144 256.666ZM56.4432 259.185V251.105H54.4432V259.185H56.4432ZM59.0568 262.781V261.781H58.0568V262.781H59.0568ZM65.9091 262.781H66.9091V261.781H65.9091V262.781ZM65.9091 292.287V293.287H66.9091V292.287H65.9091ZM59.0568 292.287H58.0568V293.287H59.0568V292.287ZM59.0568 281.702H60.0568V280.702H59.0568V281.702ZM31 281.702H30V282.702H31V281.702ZM31 273.384V272.384H30V273.384H31ZM59.0568 273.384V274.384H60.0568V273.384H59.0568ZM59.0568 263.781H65.9091V261.781H59.0568V263.781ZM64.9091 262.781V292.287H66.9091V262.781H64.9091ZM65.9091 291.287H59.0568V293.287H65.9091V291.287ZM60.0568 292.287V281.702H58.0568V292.287H60.0568ZM59.0568 280.702H31V282.702H59.0568V280.702ZM32 281.702V273.384H30V281.702H32ZM31 274.384H59.0568V272.384H31V274.384ZM60.0568 273.384V262.781H58.0568V273.384H60.0568ZM31 299.599H30V300.334L30.701 300.554L31 299.599ZM31 290.531L31.3197 289.584L30 289.138L30 290.531H31ZM65.9091 302.31H66.9091V301.592L66.2288 301.362L65.9091 302.31ZM65.9091 313.543L66.2288 314.49L66.9091 314.261V313.543H65.9091ZM31 325.321H30V326.714L31.3197 326.269L31 325.321ZM31 316.253L30.7004 315.299L30 315.519V316.253H31ZM57.1136 308.054L57.4132 309.008L58.1136 308.788V308.054H57.1136ZM57.1136 307.781H58.1136V307.047L57.4126 306.827L57.1136 307.781ZM44.7386 298.389H45.7386V297.389H44.7386V298.389ZM44.7386 317.344V318.344H45.7386V317.344H44.7386ZM38.3295 317.344H37.3295V318.344H38.3295V317.344ZM38.3295 298.389V297.389H37.3295V298.389H38.3295ZM32 299.599V290.531H30V299.599H32ZM30.6803 291.479L65.5894 303.257L66.2288 301.362L31.3197 289.584L30.6803 291.479ZM64.9091 302.31V313.543H66.9091V302.31H64.9091ZM65.5894 312.595L30.6803 324.374L31.3197 326.269L66.2288 314.49L65.5894 312.595ZM32 325.321V316.253H30V325.321H32ZM31.2996 317.207L57.4132 309.008L56.8141 307.1L30.7004 315.299L31.2996 317.207ZM58.1136 308.054V307.781H56.1136V308.054H58.1136ZM57.4126 306.827L31.299 298.645L30.701 300.554L56.8147 308.736L57.4126 306.827ZM43.7386 298.389V317.344H45.7386V298.389H43.7386ZM44.7386 316.344H38.3295V318.344H44.7386V316.344ZM39.3295 317.344V298.389H37.3295V317.344H39.3295ZM38.3295 299.389H44.7386V297.389H38.3295V299.389ZM53.2614 359.126H52.2614V360.229L53.3587 360.122L53.2614 359.126ZM53.2614 350.604L53.1326 349.612L52.2614 349.725V350.604H53.2614ZM55.6307 349.905L55.1835 349.01L55.1835 349.01L55.6307 349.905ZM57.4375 348.507L58.1947 349.16L58.1947 349.16L57.4375 348.507ZM58.5795 346.445L57.635 346.116L57.6322 346.124L57.6295 346.132L58.5795 346.445ZM57.7443 339.456L58.5728 338.896L58.5704 338.892L57.7443 339.456ZM54.1477 336.643L54.5352 335.722L54.5295 335.719L54.1477 336.643ZM42.625 336.661L42.2375 335.739L42.2295 335.742L42.625 336.661ZM39.0966 339.473L38.2621 338.922L38.2562 338.931L39.0966 339.473ZM38.2784 346.325L39.2339 346.03L39.2326 346.026L38.2784 346.325ZM39.3182 348.354L38.5313 348.971L38.5329 348.973L39.3182 348.354ZM41.0057 349.803L41.505 348.936L41.5002 348.933L41.0057 349.803ZM43.2727 350.604L44.2727 350.61L44.2778 349.765L43.4458 349.619L43.2727 350.604ZM43.2216 359.126L43.1264 360.122L44.215 360.226L44.2216 359.132L43.2216 359.126ZM38.6534 357.78L39.1006 356.885L39.0952 356.883L38.6534 357.78ZM34.5455 354.729L33.8195 355.416L33.8227 355.42L34.5455 354.729ZM31.6136 349.99L32.5452 349.627L32.5445 349.625L31.6136 349.99ZM32.6023 335.126L31.7304 334.637L31.7277 334.641L32.6023 335.126ZM38.7045 329.229L39.18 330.108L38.7045 329.229ZM58.2216 329.263L58.7028 328.386L58.7028 328.386L58.2216 329.263ZM65.5 349.479L64.5501 349.166L64.5483 349.172L65.5 349.479ZM62.9432 354.217L62.1718 353.581L62.1687 353.585L62.9432 354.217ZM54.2614 359.126V350.604H52.2614V359.126H54.2614ZM53.3902 351.595C54.3628 351.469 55.2621 351.207 56.0779 350.799L55.1835 349.01C54.5901 349.307 53.9099 349.511 53.1326 349.612L53.3902 351.595ZM56.0779 350.799C56.8972 350.39 57.6058 349.843 58.1947 349.16L56.6803 347.854C56.2692 348.33 55.7733 348.715 55.1835 349.01L56.0779 350.799ZM58.1947 349.16C58.7886 348.472 59.2309 347.666 59.5296 346.757L57.6295 346.132C57.4054 346.814 57.0864 347.383 56.6803 347.854L58.1947 349.16ZM59.524 346.773C59.8386 345.869 59.9886 344.887 59.9886 343.837H57.9886C57.9886 344.696 57.866 345.452 57.635 346.116L59.524 346.773ZM59.9886 343.837C59.9886 341.973 59.5296 340.311 58.5728 338.896L56.9158 340.016C57.6182 341.055 57.9886 342.314 57.9886 343.837H59.9886ZM58.5704 338.892C57.6161 337.494 56.2527 336.443 54.5352 335.722L53.7603 337.565C55.1791 338.162 56.2134 338.986 56.9183 340.02L58.5704 338.892ZM54.5295 335.719C52.8088 335.008 50.7739 334.672 48.4545 334.672V336.672C50.5897 336.672 52.3503 336.983 53.766 337.568L54.5295 335.719ZM48.4545 334.672C46.0486 334.672 43.9642 335.013 42.2375 335.739L43.0125 337.582C44.4222 336.99 46.2241 336.672 48.4545 336.672V334.672ZM42.2295 335.742C40.5255 336.476 39.1826 337.528 38.2621 338.922L39.9311 340.024C40.6015 339.009 41.6109 338.186 43.0205 337.579L42.2295 335.742ZM38.2562 338.931C37.3533 340.331 36.9205 341.963 36.9205 343.786H38.9205C38.9205 342.29 39.2717 341.047 39.937 340.015L38.2562 338.931ZM36.9205 343.786C36.9205 344.802 37.0506 345.752 37.3242 346.624L39.2326 346.026C39.0289 345.376 38.9205 344.632 38.9205 343.786H36.9205ZM37.3229 346.62C37.5941 347.498 37.9943 348.286 38.5313 348.971L40.105 347.737C39.733 347.262 39.44 346.698 39.2339 346.03L37.3229 346.62ZM38.5329 348.973C39.0793 349.666 39.7408 350.233 40.5112 350.672L41.5002 348.933C40.9524 348.622 40.4888 348.223 40.1035 347.735L38.5329 348.973ZM40.5064 350.669C41.2878 351.119 42.1558 351.423 43.0997 351.589L43.4458 349.619C42.7078 349.489 42.0645 349.259 41.505 348.936L40.5064 350.669ZM42.2727 350.598L42.2216 359.12L44.2216 359.132L44.2727 350.61L42.2727 350.598ZM43.3167 358.131C41.9034 357.996 40.4994 357.585 39.1006 356.885L38.2062 358.674C39.8074 359.475 41.4489 359.962 43.1264 360.122L43.3167 358.131ZM39.0952 356.883C37.7075 356.199 36.4318 355.255 35.2682 354.038L33.8227 355.42C35.1364 356.794 36.5993 357.883 38.2116 358.677L39.0952 356.883ZM35.2714 354.041C34.1431 352.85 33.2312 351.384 32.5452 349.627L30.6821 350.354C31.4506 352.323 32.4933 354.017 33.8195 355.416L35.2714 354.041ZM32.5445 349.625C31.8712 347.91 31.5227 345.913 31.5227 343.615H29.5227C29.5227 346.113 29.9015 348.366 30.6828 350.356L32.5445 349.625ZM31.5227 343.615C31.5227 340.607 32.1811 337.948 33.4768 335.611L31.7277 334.641C30.2507 337.305 29.5227 340.305 29.5227 343.615H31.5227ZM33.4742 335.616C34.7733 333.303 36.6649 331.468 39.18 330.108L38.2291 328.349C35.4033 329.876 33.2267 331.973 31.7304 334.637L33.4742 335.616ZM39.18 330.108C41.6711 328.762 44.7485 328.064 48.4545 328.064V326.064C44.5015 326.064 41.0789 326.809 38.2291 328.349L39.18 330.108ZM48.4545 328.064C52.1703 328.064 55.251 328.773 57.7404 330.139L58.7028 328.386C55.8512 326.821 52.4206 326.064 48.4545 326.064V328.064ZM57.7404 330.139C60.2568 331.521 62.1435 333.373 63.4323 335.697L65.1814 334.727C63.6974 332.051 61.5273 329.937 58.7028 328.386L57.7404 330.139ZM63.4323 335.697C64.7294 338.036 65.3864 340.668 65.3864 343.615H67.3864C67.3864 340.358 66.6569 337.388 65.1814 334.727L63.4323 335.697ZM65.3864 343.615C65.3864 345.635 65.1042 347.483 64.5501 349.166L66.4499 349.791C67.0777 347.884 67.3864 345.822 67.3864 343.615H65.3864ZM64.5483 349.172C64.0049 350.855 63.2112 352.321 62.1718 353.581L63.7146 354.854C64.9252 353.386 65.836 351.693 66.4517 349.786L64.5483 349.172ZM62.1687 353.585C61.1439 354.84 59.8815 355.863 58.3708 356.656L59.2997 358.427C61.0389 357.515 62.5152 356.322 63.7177 354.85L62.1687 353.585ZM58.3708 356.656C56.8752 357.44 55.1451 357.937 53.164 358.131L53.3587 360.122C55.5595 359.906 57.5452 359.347 59.2997 358.427L58.3708 356.656ZM31 363.955V362.955H30V363.955H31ZM65.9091 363.955H66.9091V362.955H65.9091V363.955ZM65.9091 372.392V373.392H66.9091V372.392H65.9091ZM51.1477 372.392V371.392H50.1477V372.392H51.1477ZM51.1477 372.852H50.1477V373.34L50.5318 373.64L51.1477 372.852ZM65.9091 384.392H66.9091V383.904L66.525 383.604L65.9091 384.392ZM65.9091 394.33L65.2871 395.113L66.9091 396.401V394.33H65.9091ZM50.3295 381.955L50.9515 381.172L50.3873 380.723L49.7836 381.117L50.3295 381.955ZM31 394.551H30V396.396L31.546 395.389L31 394.551ZM31 384.46L30.4648 383.615L30 383.91V384.46H31ZM44.7216 375.767L45.2568 376.612L46.4469 375.858L45.3425 374.983L44.7216 375.767ZM40.4602 372.392L41.0811 371.608L40.8083 371.392H40.4602V372.392ZM31 372.392H30V373.392H31V372.392ZM31 364.955H65.9091V362.955H31V364.955ZM64.9091 363.955V372.392H66.9091V363.955H64.9091ZM65.9091 371.392H51.1477V373.392H65.9091V371.392ZM50.1477 372.392V372.852H52.1477V372.392H50.1477ZM50.5318 373.64L65.2932 385.18L66.525 383.604L51.7636 372.064L50.5318 373.64ZM64.9091 384.392V394.33H66.9091V384.392H64.9091ZM66.5311 393.547L50.9515 381.172L49.7076 382.738L65.2871 395.113L66.5311 393.547ZM49.7836 381.117L30.454 393.713L31.546 395.389L50.8755 382.792L49.7836 381.117ZM32 394.551V384.46H30V394.551H32ZM31.5352 385.305L45.2568 376.612L44.1864 374.922L30.4648 383.615L31.5352 385.305ZM45.3425 374.983L41.0811 371.608L39.8394 373.176L44.1007 376.551L45.3425 374.983ZM40.4602 371.392H31V373.392H40.4602V371.392ZM32 372.392V363.955H30V372.392H32Z" fill="white" mask="url(#path-1-outside-1_132_10)"/>
<g opacity="0.3">
<mask id="path-3-outside-2_132_10" maskUnits="userSpaceOnUse" x="17" y="1" width="39" height="396" fill="black">
<rect fill="white" x="17" y="1" width="39" height="396"/>
<path d="M19 15.5455V2.64205L53.9091 2.64205V15.5284C53.9091 19.0852 53.2102 22.1477 51.8125 24.7159C50.4261 27.2955 48.4261 29.2841 45.8125 30.6818C43.2102 32.0795 40.0966 32.7784 36.4716 32.7784C32.8352 32.7784 29.7102 32.0795 27.0966 30.6818C24.483 29.2955 22.4773 27.3125 21.0795 24.733C19.6932 22.1534 19 19.0909 19 15.5455ZM26.1932 11.0795V15.2216C26.1932 17.1761 26.5227 18.8295 27.1818 20.1818C27.8523 21.5455 28.9375 22.5739 30.4375 23.267C31.9489 23.9716 33.9602 24.3239 36.4716 24.3239C38.983 24.3239 40.983 23.9716 42.4716 23.267C43.9716 22.5625 45.0511 21.5227 45.7102 20.1477C46.3807 18.7841 46.7159 17.1023 46.7159 15.1023V11.0795H26.1932ZM19 37.7045H53.9091V62.0455H47.0568V46.142H39.8977V60.8011H33.0284V46.142H25.8523L25.8523 62.0455H19L19 37.7045ZM53.9091 75.2557L28.3409 83.0625V83.3523L53.9091 91.1591V100.602L19 88.8239V77.5909L53.9091 65.8125L53.9091 75.2557ZM19 114.673H53.9091V138.503H47.0568V123.111H39.8977V136.986H33.0284V123.111H19V114.673ZM53.9091 163.871V172.291H31.392C28.7898 172.291 26.5227 171.672 24.5909 170.433C22.6705 169.195 21.1818 167.467 20.125 165.251C19.0795 163.036 18.5568 160.462 18.5568 157.53C18.5568 154.564 19.0795 151.973 20.125 149.757C21.1818 147.541 22.6705 145.82 24.5909 144.592C26.5227 143.365 28.7898 142.751 31.392 142.751H53.9091V151.189H32.125C30.9205 151.189 29.8466 151.45 28.9034 151.973C27.9602 152.507 27.2216 153.251 26.6875 154.206C26.1534 155.161 25.8864 156.268 25.8864 157.53C25.8864 158.791 26.1534 159.893 26.6875 160.837C27.2216 161.791 27.9602 162.536 28.9034 163.07C29.8466 163.604 30.9205 163.871 32.125 163.871H53.9091ZM19 177.58H53.9091V186.017H25.8523V200.54H19V177.58ZM19 204.908H53.9091V213.345H25.8523V227.868H19V204.908ZM43.4432 251.105C44.6932 250.991 45.6648 250.486 46.358 249.588C47.0625 248.702 47.4148 247.435 47.4148 245.787C47.4148 244.696 47.2727 243.787 46.9886 243.06C46.7045 242.332 46.3125 241.787 45.8125 241.423C45.3239 241.06 44.7614 240.872 44.125 240.861C43.6023 240.838 43.142 240.94 42.7443 241.168C42.3466 241.406 41.9943 241.747 41.6875 242.19C41.392 242.645 41.1307 243.19 40.9034 243.827C40.6761 244.463 40.4773 245.179 40.3068 245.974L39.625 248.974C39.25 250.702 38.75 252.224 38.125 253.543C37.5 254.872 36.7557 255.986 35.892 256.884C35.0284 257.793 34.0341 258.48 32.9091 258.946C31.7841 259.412 30.5227 259.651 29.125 259.662C26.9205 259.651 25.0284 259.094 23.4489 257.991C21.8693 256.889 20.6591 255.304 19.8182 253.236C18.9773 251.179 18.5568 248.696 18.5568 245.787C18.5568 242.866 18.9943 240.321 19.8693 238.151C20.7443 235.98 22.0739 234.293 23.858 233.088C25.642 231.884 27.8977 231.264 30.625 231.23V239.31C29.5 239.378 28.5625 239.679 27.8125 240.213C27.0625 240.747 26.4943 241.48 26.108 242.412C25.7216 243.355 25.5284 244.446 25.5284 245.685C25.5284 246.821 25.6818 247.787 25.9886 248.582C26.2955 249.389 26.7216 250.009 27.267 250.44C27.8125 250.872 28.4375 251.094 29.142 251.105C29.8011 251.094 30.3636 250.889 30.8295 250.491C31.3068 250.094 31.7159 249.48 32.0568 248.651C32.4091 247.832 32.733 246.787 33.0284 245.514L33.8807 241.866C34.5739 238.844 35.6932 236.463 37.2386 234.724C38.7955 232.986 40.8977 232.122 43.5455 232.134C45.7045 232.122 47.5966 232.702 49.2216 233.872C50.8466 235.043 52.1136 236.662 53.0227 238.73C53.9318 240.798 54.3864 243.156 54.3864 245.804C54.3864 248.509 53.9261 250.855 53.0057 252.844C52.0966 254.844 50.8182 256.395 49.1705 257.497C47.5227 258.599 45.6136 259.162 43.4432 259.185V251.105ZM47.0568 262.781H53.9091V292.287H47.0568V281.702H19V273.384H47.0568V262.781ZM19 299.599V290.531L53.9091 302.31L53.9091 313.543L19 325.321V316.253L45.1136 308.054V307.781L19 299.599ZM32.7386 298.389V317.344H26.3295V298.389H32.7386ZM41.2614 359.126V350.604C42.1364 350.49 42.9261 350.257 43.6307 349.905C44.3352 349.553 44.9375 349.087 45.4375 348.507C45.9375 347.928 46.3182 347.24 46.5795 346.445C46.8523 345.661 46.9886 344.791 46.9886 343.837C46.9886 342.143 46.5739 340.683 45.7443 339.456C44.9148 338.24 43.7159 337.303 42.1477 336.643C40.5795 335.996 38.6818 335.672 36.4545 335.672C34.1364 335.672 32.1932 336.001 30.625 336.661C29.0682 337.331 27.892 338.268 27.0966 339.473C26.3125 340.689 25.9205 342.126 25.9205 343.786C25.9205 344.717 26.0398 345.564 26.2784 346.325C26.517 347.098 26.8636 347.774 27.3182 348.354C27.7841 348.945 28.3466 349.428 29.0057 349.803C29.6761 350.189 30.4318 350.456 31.2727 350.604L31.2216 359.126C29.6761 358.979 28.1534 358.53 26.6534 357.78C25.1534 357.041 23.7841 356.024 22.5455 354.729C21.3182 353.433 20.3409 351.854 19.6136 349.99C18.8864 348.138 18.5227 346.013 18.5227 343.615C18.5227 340.456 19.2159 337.626 20.6023 335.126C22 332.638 24.0341 330.672 26.7045 329.229C29.375 327.786 32.625 327.064 36.4545 327.064C40.2955 327.064 43.5511 327.797 46.2216 329.263C48.892 330.729 50.9205 332.712 52.3068 335.212C53.6932 337.712 54.3864 340.513 54.3864 343.615C54.3864 345.729 54.0909 347.683 53.5 349.479C52.9205 351.274 52.0682 352.854 50.9432 354.217C49.8295 355.581 48.4602 356.689 46.8352 357.541C45.2102 358.393 43.3523 358.922 41.2614 359.126ZM19 363.955H53.9091V372.392H39.1477V372.852L53.9091 384.392L53.9091 394.33L38.3295 381.955L19 394.551V384.46L32.7216 375.767L28.4602 372.392H19V363.955Z"/>
</mask>
<path d="M19 2.64205V1.64205H18V2.64205H19ZM53.9091 2.64205L54.9091 2.64205V1.64205H53.9091V2.64205ZM51.8125 24.7159L50.9341 24.2379L50.9317 24.2425L51.8125 24.7159ZM45.8125 30.6818L45.3409 29.8L45.3393 29.8009L45.8125 30.6818ZM27.0966 30.6818L27.5682 29.8L27.5652 29.7984L27.0966 30.6818ZM21.0795 24.733L20.1987 25.2064L20.2003 25.2094L21.0795 24.733ZM26.1932 11.0795V10.0795H25.1932V11.0795H26.1932ZM27.1818 20.1818L26.2829 20.6199L26.2844 20.623L27.1818 20.1818ZM30.4375 23.267L30.86 22.3607L30.857 22.3593L30.4375 23.267ZM42.4716 23.267L42.0465 22.3619L42.0438 22.3632L42.4716 23.267ZM45.7102 20.1477L44.8128 19.7065L44.8085 19.7155L45.7102 20.1477ZM46.7159 11.0795H47.7159V10.0795H46.7159V11.0795ZM20 15.5455V2.64205H18V15.5455H20ZM19 3.64205L53.9091 3.64205V1.64205L19 1.64205V3.64205ZM52.9091 2.64205V15.5284H54.9091V2.64205L52.9091 2.64205ZM52.9091 15.5284C52.9091 18.9541 52.2365 21.8449 50.9342 24.2379L52.6908 25.1939C54.1839 22.4505 54.9091 19.2164 54.9091 15.5284H52.9091ZM50.9317 24.2425C49.6397 26.6464 47.7831 28.4939 45.3409 29.8L46.2841 31.5636C49.0691 30.0742 51.2126 27.9445 52.6933 25.1893L50.9317 24.2425ZM45.3393 29.8009C42.912 31.1046 39.9685 31.7784 36.4716 31.7784V33.7784C40.2247 33.7784 43.5084 33.0545 46.2857 31.5628L45.3393 29.8009ZM36.4716 31.7784C32.9629 31.7784 30.0074 31.1044 27.5682 29.8L26.625 31.5636C29.4131 33.0547 32.7076 33.7784 36.4716 33.7784V31.7784ZM27.5652 29.7984C25.124 28.5035 23.2618 26.6614 21.9588 24.2565L20.2003 25.2094C21.6927 27.9636 23.842 30.0874 26.628 31.5652L27.5652 29.7984ZM21.9604 24.2595C20.6671 21.8532 20 18.9602 20 15.5455H18C18 19.2216 18.7193 22.4536 20.1987 25.2064L21.9604 24.2595ZM25.1932 11.0795V15.2216H27.1932V11.0795H25.1932ZM25.1932 15.2216C25.1932 17.2842 25.5405 19.0967 26.2829 20.6199L28.0807 19.7437C27.505 18.5624 27.1932 17.0681 27.1932 15.2216H25.1932ZM26.2844 20.623C27.0651 22.2108 28.3294 23.3945 30.018 24.1748L30.857 22.3593C29.5456 21.7533 28.6395 20.8801 28.0792 19.7406L26.2844 20.623ZM30.015 24.1734C31.7084 24.9628 33.8815 25.3239 36.4716 25.3239V23.3239C34.039 23.3239 32.1893 22.9804 30.86 22.3607L30.015 24.1734ZM36.4716 25.3239C39.0605 25.3239 41.2254 24.9632 42.8994 24.1709L42.0438 22.3632C40.7405 22.98 38.9054 23.3239 36.4716 23.3239V25.3239ZM42.8967 24.1722C44.586 23.3788 45.8444 22.1814 46.612 20.58L44.8085 19.7155C44.2579 20.8641 43.3572 21.7463 42.0465 22.3619L42.8967 24.1722ZM46.6076 20.5889C47.3634 19.0517 47.7159 17.2089 47.7159 15.1023H45.7159C45.7159 16.9957 45.3979 18.5165 44.8128 19.7065L46.6076 20.5889ZM47.7159 15.1023V11.0795H45.7159V15.1023H47.7159ZM46.7159 10.0795H26.1932V12.0795H46.7159V10.0795ZM19 37.7045V36.7045H18V37.7045H19ZM53.9091 37.7045H54.9091V36.7045H53.9091V37.7045ZM53.9091 62.0455V63.0455H54.9091V62.0455H53.9091ZM47.0568 62.0455H46.0568V63.0455H47.0568V62.0455ZM47.0568 46.142H48.0568V45.142H47.0568V46.142ZM39.8977 46.142V45.142H38.8977V46.142H39.8977ZM39.8977 60.8011V61.8011H40.8977V60.8011H39.8977ZM33.0284 60.8011H32.0284V61.8011H33.0284V60.8011ZM33.0284 46.142H34.0284V45.142H33.0284V46.142ZM25.8523 46.142V45.142H24.8523V46.142H25.8523ZM25.8523 62.0455V63.0455H26.8523V62.0455H25.8523ZM19 62.0455H18V63.0455H19V62.0455ZM19 38.7045H53.9091V36.7045H19V38.7045ZM52.9091 37.7045V62.0455H54.9091V37.7045H52.9091ZM53.9091 61.0455H47.0568V63.0455H53.9091V61.0455ZM48.0568 62.0455V46.142H46.0568V62.0455H48.0568ZM47.0568 45.142H39.8977V47.142H47.0568V45.142ZM38.8977 46.142V60.8011H40.8977V46.142H38.8977ZM39.8977 59.8011H33.0284V61.8011H39.8977V59.8011ZM34.0284 60.8011V46.142H32.0284L32.0284 60.8011H34.0284ZM33.0284 45.142H25.8523V47.142H33.0284V45.142ZM24.8523 46.142L24.8523 62.0455H26.8523L26.8523 46.142H24.8523ZM25.8523 61.0455H19V63.0455H25.8523V61.0455ZM20 62.0455L20 37.7045H18L18 62.0455H20ZM53.9091 75.2557L54.2011 76.2121L54.9091 75.9959V75.2557H53.9091ZM28.3409 83.0625L28.0489 82.1061L27.3409 82.3223V83.0625H28.3409ZM28.3409 83.3523H27.3409V84.0925L28.0489 84.3087L28.3409 83.3523ZM53.9091 91.1591H54.9091V90.4188L54.2011 90.2027L53.9091 91.1591ZM53.9091 100.602L53.5894 101.55L54.9091 101.995V100.602H53.9091ZM19 88.8239H18V89.5418L18.6803 89.7714L19 88.8239ZM19 77.5909L18.6803 76.6434L18 76.8729V77.5909H19ZM53.9091 65.8125H54.9091V64.4197L53.5894 64.865L53.9091 65.8125ZM53.6171 74.2993L28.0489 82.1061L28.6329 84.0189L54.2011 76.2121L53.6171 74.2993ZM27.3409 83.0625V83.3523H29.3409V83.0625H27.3409ZM28.0489 84.3087L53.6171 92.1155L54.2011 90.2027L28.6329 82.3959L28.0489 84.3087ZM52.9091 91.1591V100.602H54.9091V91.1591H52.9091ZM54.2288 99.6548L19.3197 87.8763L18.6803 89.7714L53.5894 101.55L54.2288 99.6548ZM20 88.8239V77.5909H18V88.8239H20ZM19.3197 78.5384L54.2288 66.76L53.5894 64.865L18.6803 76.6434L19.3197 78.5384ZM52.9091 65.8125L52.9091 75.2557H54.9091L54.9091 65.8125H52.9091ZM19 114.673V113.673H18V114.673H19ZM53.9091 114.673H54.9091V113.673H53.9091V114.673ZM53.9091 138.503V139.503H54.9091V138.503H53.9091ZM47.0568 138.503H46.0568V139.503H47.0568V138.503ZM47.0568 123.111H48.0568V122.111H47.0568V123.111ZM39.8977 123.111V122.111H38.8977V123.111H39.8977ZM39.8977 136.986V137.986H40.8977V136.986H39.8977ZM33.0284 136.986H32.0284V137.986H33.0284V136.986ZM33.0284 123.111H34.0284V122.111H33.0284V123.111ZM19 123.111H18V124.111H19V123.111ZM19 115.673H53.9091V113.673H19V115.673ZM52.9091 114.673V138.503H54.9091V114.673H52.9091ZM53.9091 137.503H47.0568V139.503H53.9091V137.503ZM48.0568 138.503V123.111H46.0568V138.503H48.0568ZM47.0568 122.111H39.8977V124.111H47.0568V122.111ZM38.8977 123.111V136.986H40.8977V123.111H38.8977ZM39.8977 135.986H33.0284V137.986H39.8977V135.986ZM34.0284 136.986V123.111H32.0284V136.986H34.0284ZM33.0284 122.111H19V124.111H33.0284V122.111ZM20 123.111V114.673H18V123.111H20ZM53.9091 163.871H54.9091V162.871H53.9091V163.871ZM53.9091 172.291V173.291H54.9091V172.291H53.9091ZM24.5909 170.433L24.0489 171.274L24.0512 171.275L24.5909 170.433ZM20.125 165.251L19.2206 165.678L19.2224 165.682L20.125 165.251ZM20.125 149.757L19.2224 149.327L19.2206 149.33L20.125 149.757ZM24.5909 144.592L24.0547 143.748L24.0524 143.75L24.5909 144.592ZM53.9091 142.751H54.9091V141.751H53.9091V142.751ZM53.9091 151.189V152.189H54.9091V151.189H53.9091ZM28.9034 151.973L28.4186 151.098L28.4107 151.103L28.9034 151.973ZM26.6875 154.206L27.5602 154.694L27.5602 154.694L26.6875 154.206ZM26.6875 160.837L27.5602 160.348L27.5577 160.344L26.6875 160.837ZM52.9091 163.871V172.291H54.9091V163.871H52.9091ZM53.9091 171.291H31.392V173.291H53.9091V171.291ZM31.392 171.291C28.9548 171.291 26.8806 170.713 25.1307 169.591L24.0512 171.275C26.1649 172.63 28.6248 173.291 31.392 173.291V171.291ZM25.1329 169.593C23.38 168.462 22.0107 166.882 21.0276 164.821L19.2224 165.682C20.3529 168.052 21.9609 169.927 24.0489 171.274L25.1329 169.593ZM21.0294 164.825C20.0581 162.766 19.5568 160.343 19.5568 157.53H17.5568C17.5568 160.581 18.101 163.305 19.2206 165.678L21.0294 164.825ZM19.5568 157.53C19.5568 154.681 20.0587 152.241 21.0294 150.184L19.2206 149.33C18.1003 151.705 17.5568 154.447 17.5568 157.53H19.5568ZM21.0276 150.188C22.0104 148.127 23.3786 146.554 25.1294 145.435L24.0524 143.75C21.9623 145.085 20.3532 146.956 19.2224 149.327L21.0276 150.188ZM25.1271 145.436C26.8775 144.324 28.953 143.751 31.392 143.751V141.751C28.6266 141.751 26.168 142.406 24.0547 143.748L25.1271 145.436ZM31.392 143.751H53.9091V141.751H31.392V143.751ZM52.9091 142.751V151.189H54.9091V142.751H52.9091ZM53.9091 150.189H32.125V152.189H53.9091V150.189ZM32.125 150.189C30.7711 150.189 29.5269 150.484 28.4187 151.098L29.3882 152.848C30.1663 152.416 31.0698 152.189 32.125 152.189V150.189ZM28.4107 151.103C27.3068 151.728 26.4374 152.605 25.8148 153.718L27.5602 154.694C28.0058 153.898 28.6137 153.286 29.3962 152.843L28.4107 151.103ZM25.8148 153.718C25.1852 154.843 24.8864 156.124 24.8864 157.53H26.8864C26.8864 156.413 27.1216 155.478 27.5602 154.694L25.8148 153.718ZM24.8864 157.53C24.8864 158.935 25.1851 160.213 25.8173 161.329L27.5577 160.344C27.1217 159.574 26.8864 158.647 26.8864 157.53H24.8864ZM25.8148 161.325C26.4374 162.438 27.3068 163.315 28.4107 163.94L29.3962 162.199C28.6137 161.756 28.0058 161.145 27.5602 160.348L25.8148 161.325ZM28.4107 163.94C29.5204 164.568 30.7674 164.871 32.125 164.871V162.871C31.0735 162.871 30.1728 162.639 29.3962 162.199L28.4107 163.94ZM32.125 164.871H53.9091V162.871H32.125V164.871ZM19 177.58V176.58H18V177.58H19ZM53.9091 177.58H54.9091V176.58H53.9091V177.58ZM53.9091 186.017V187.017H54.9091V186.017H53.9091ZM25.8523 186.017V185.017H24.8523V186.017H25.8523ZM25.8523 200.54V201.54H26.8523V200.54H25.8523ZM19 200.54H18V201.54H19V200.54ZM19 178.58H53.9091V176.58H19V178.58ZM52.9091 177.58V186.017H54.9091V177.58H52.9091ZM53.9091 185.017H25.8523V187.017H53.9091V185.017ZM24.8523 186.017V200.54H26.8523V186.017H24.8523ZM25.8523 199.54H19V201.54H25.8523V199.54ZM20 200.54V177.58H18V200.54H20ZM19 204.908V203.908H18V204.908H19ZM53.9091 204.908H54.9091V203.908H53.9091V204.908ZM53.9091 213.345V214.345H54.9091V213.345H53.9091ZM25.8523 213.345V212.345H24.8523V213.345H25.8523ZM25.8523 227.868V228.868H26.8523V227.868H25.8523ZM19 227.868H18V228.868H19V227.868ZM19 205.908H53.9091V203.908H19V205.908ZM52.9091 204.908V213.345H54.9091V204.908H52.9091ZM53.9091 212.345H25.8523V214.345H53.9091V212.345ZM24.8523 213.345V227.868H26.8523V213.345H24.8523ZM25.8523 226.868H19V228.868H25.8523V226.868ZM20 227.868V204.908H18V227.868H20ZM43.4432 251.105L43.3526 250.109L42.4432 250.192V251.105H43.4432ZM46.358 249.588L45.5751 248.966L45.5664 248.977L46.358 249.588ZM46.9886 243.06L47.9201 242.696L47.9201 242.696L46.9886 243.06ZM45.8125 241.423L45.2155 242.226L45.2243 242.232L45.8125 241.423ZM44.125 240.861L44.0816 241.86L44.0943 241.86L44.1071 241.861L44.125 240.861ZM42.7443 241.168L42.2482 240.299L42.2389 240.305L42.2298 240.31L42.7443 241.168ZM41.6875 242.19L40.8653 241.621L40.857 241.633L40.8491 241.645L41.6875 242.19ZM40.9034 243.827L41.8452 244.163L41.8452 244.163L40.9034 243.827ZM40.3068 245.974L41.282 246.196L41.2846 246.184L40.3068 245.974ZM39.625 248.974L38.6498 248.753L38.6478 248.762L39.625 248.974ZM38.125 253.543L37.2214 253.114L37.22 253.117L38.125 253.543ZM35.892 256.884L35.1714 256.19L35.167 256.195L35.892 256.884ZM32.9091 258.946L32.5265 258.022L32.5265 258.022L32.9091 258.946ZM29.125 259.662L29.1198 260.662L29.1331 260.662L29.125 259.662ZM23.4489 257.991L24.0211 257.171L24.0211 257.171L23.4489 257.991ZM19.8182 253.236L20.7445 252.859L20.7438 252.857L19.8182 253.236ZM19.8693 238.151L20.7968 238.524L20.7968 238.524L19.8693 238.151ZM30.625 231.23H31.625V230.218L30.6125 230.23L30.625 231.23ZM30.625 239.31L30.6855 240.308L31.625 240.251V239.31H30.625ZM27.8125 240.213L27.2324 239.399L27.2324 239.399L27.8125 240.213ZM26.108 242.412L25.1842 242.029L25.1826 242.033L26.108 242.412ZM25.9886 248.582L26.9233 248.227L26.9216 248.223L25.9886 248.582ZM27.267 250.44L27.8877 249.656L27.8877 249.656L27.267 250.44ZM29.142 251.105L29.1259 252.105L29.1426 252.105L29.1593 252.105L29.142 251.105ZM30.8295 250.491L30.1893 249.723L30.1803 249.731L30.8295 250.491ZM32.0568 248.651L31.1383 248.255L31.135 248.263L31.1319 248.27L32.0568 248.651ZM33.0284 245.514L32.0546 245.287L32.0543 245.288L33.0284 245.514ZM33.8807 241.866L34.8545 242.094L34.8554 242.09L33.8807 241.866ZM37.2386 234.724L36.4936 234.057L36.4912 234.06L37.2386 234.724ZM43.5455 232.134L43.5412 233.134L43.5507 233.134L43.5455 232.134ZM49.2216 233.872L49.806 233.061L49.806 233.061L49.2216 233.872ZM53.0227 238.73L52.1073 239.133L52.1073 239.133L53.0227 238.73ZM53.0057 252.844L52.0982 252.424L52.0953 252.43L53.0057 252.844ZM49.1705 257.497L49.7265 258.328L49.7265 258.328L49.1705 257.497ZM43.4432 259.185H42.4432V260.195L43.4537 260.185L43.4432 259.185ZM43.5337 252.101C45.0279 251.965 46.2672 251.342 47.1495 250.199L45.5664 248.977C45.0624 249.63 44.3584 250.018 43.3526 250.109L43.5337 252.101ZM47.1408 250.21C48.0374 249.082 48.4148 247.561 48.4148 245.787H46.4148C46.4148 247.308 46.0876 248.321 45.5751 248.966L47.1408 250.21ZM48.4148 245.787C48.4148 244.617 48.2636 243.575 47.9201 242.696L46.0572 243.424C46.2818 243.999 46.4148 244.775 46.4148 245.787H48.4148ZM47.9201 242.696C47.5846 241.837 47.0912 241.117 46.4007 240.615L45.2243 242.232C45.5338 242.457 45.8245 242.828 46.0572 243.424L47.9201 242.696ZM46.4095 240.621C45.7454 240.127 44.9782 239.876 44.1429 239.861L44.1071 241.861C44.5445 241.868 44.9024 241.993 45.2155 242.226L46.4095 240.621ZM44.1684 239.862C43.4846 239.832 42.8322 239.966 42.2482 240.299L43.2405 242.036C43.4519 241.915 43.72 241.844 44.0816 241.86L44.1684 239.862ZM42.2298 240.31C41.692 240.633 41.24 241.08 40.8653 241.621L42.5097 242.76C42.7486 242.414 43.0012 242.18 43.2588 242.025L42.2298 240.31ZM40.8491 241.645C40.5023 242.179 40.209 242.798 39.9617 243.49L41.8452 244.163C42.0524 243.583 42.2818 243.111 42.5259 242.735L40.8491 241.645ZM39.9617 243.49C39.717 244.175 39.5069 244.935 39.329 245.765L41.2846 246.184C41.4476 245.423 41.6353 244.751 41.8452 244.163L39.9617 243.49ZM39.3317 245.753L38.6499 248.753L40.6001 249.196L41.282 246.196L39.3317 245.753ZM38.6478 248.762C38.2857 250.43 37.8077 251.878 37.2214 253.114L39.0286 253.971C39.6923 252.571 40.2143 250.973 40.6022 249.187L38.6478 248.762ZM37.22 253.117C36.6333 254.365 35.9472 255.384 35.1714 256.19L36.6127 257.577C37.5642 256.588 38.3667 255.379 39.03 253.968L37.22 253.117ZM35.167 256.195C34.3969 257.005 33.5182 257.611 32.5265 258.022L33.2917 259.87C34.5499 259.349 35.6599 258.58 36.617 257.572L35.167 256.195ZM32.5265 258.022C31.5365 258.432 30.4049 258.651 29.1169 258.662L29.1331 260.662C30.6406 260.65 32.0317 260.392 33.2917 259.87L32.5265 258.022ZM29.1302 258.662C27.0982 258.651 25.411 258.141 24.0211 257.171L22.8766 258.812C24.6458 260.046 26.7427 260.65 29.1198 260.662L29.1302 258.662ZM24.0211 257.171C22.6239 256.196 21.5245 254.778 20.7445 252.859L18.8918 253.612C19.7936 255.83 21.1147 257.582 22.8766 258.812L24.0211 257.171ZM20.7438 252.857C19.9646 250.952 19.5568 248.604 19.5568 245.787H17.5568C17.5568 248.788 17.9899 251.406 18.8926 253.614L20.7438 252.857ZM19.5568 245.787C19.5568 242.964 19.98 240.551 20.7968 238.524L18.9418 237.777C18.0087 240.091 17.5568 242.769 17.5568 245.787H19.5568ZM20.7968 238.524C21.604 236.522 22.8131 235 24.4175 233.917L23.2984 232.259C21.3346 233.585 19.8846 235.438 18.9418 237.777L20.7968 238.524ZM24.4175 233.917C26.0016 232.847 28.0535 232.262 30.6375 232.23L30.6125 230.23C27.742 230.266 25.2825 230.92 23.2984 232.259L24.4175 233.917ZM29.625 231.23V239.31H31.625V231.23H29.625ZM30.5645 238.311C29.2945 238.388 28.166 238.734 27.2324 239.399L28.3926 241.028C28.959 240.624 29.7055 240.367 30.6855 240.308L30.5645 238.311ZM27.2324 239.399C26.3152 240.052 25.6353 240.941 25.1842 242.029L27.0317 242.795C27.3533 242.019 27.8098 241.443 28.3926 241.028L27.2324 239.399ZM25.1826 242.033C24.7376 243.119 24.5284 244.343 24.5284 245.685H26.5284C26.5284 244.549 26.7056 243.591 27.0333 242.791L25.1826 242.033ZM24.5284 245.685C24.5284 246.905 24.6925 248.001 25.0556 248.942L26.9216 248.223C26.6711 247.573 26.5284 246.737 26.5284 245.685H24.5284ZM25.0539 248.938C25.4095 249.873 25.9291 250.657 26.6463 251.224L27.8877 249.656C27.5141 249.36 27.1814 248.906 26.9233 248.227L25.0539 248.938ZM26.6463 251.224C27.3665 251.795 28.2047 252.09 29.1259 252.105L29.1582 250.105C28.6703 250.097 28.2585 249.95 27.8877 249.656L26.6463 251.224ZM29.1593 252.105C30.0315 252.09 30.8225 251.812 31.4788 251.252L30.1803 249.731C29.9048 249.966 29.5708 250.098 29.1248 250.105L29.1593 252.105ZM31.4697 251.26C32.1153 250.722 32.6046 249.949 32.9818 249.031L31.1319 248.27C30.8273 249.012 30.4984 249.466 30.1894 249.723L31.4697 251.26ZM32.9753 249.046C33.3592 248.154 33.6992 247.047 34.0025 245.74L32.0543 245.288C31.7667 246.527 31.459 247.51 31.1383 248.255L32.9753 249.046ZM34.0022 245.742L34.8545 242.094L32.9069 241.639L32.0546 245.287L34.0022 245.742ZM34.8554 242.09C35.5231 239.178 36.5832 236.967 37.986 235.389L36.4912 234.06C34.8032 235.959 33.6247 238.509 32.906 241.643L34.8554 242.09ZM37.9836 235.392C39.323 233.896 41.1366 233.123 43.5412 233.134L43.5497 231.134C40.6589 231.121 38.2679 232.076 36.4937 234.057L37.9836 235.392ZM43.5507 233.134C45.5157 233.123 47.1975 233.647 48.6371 234.684L49.806 233.061C47.9957 231.757 45.8934 231.121 43.5402 231.134L43.5507 233.134ZM48.6371 234.684C50.0994 235.737 51.2606 237.206 52.1073 239.133L53.9382 238.328C52.9667 236.117 51.5938 234.348 49.806 233.061L48.6371 234.684ZM52.1073 239.133C52.9518 241.054 53.3864 243.271 53.3864 245.804H55.3864C55.3864 243.041 54.9118 240.543 53.9382 238.328L52.1073 239.133ZM53.3864 245.804C53.3864 248.397 52.9452 250.594 52.0982 252.424L53.9132 253.264C54.9071 251.116 55.3864 248.62 55.3864 245.804H53.3864ZM52.0953 252.43C51.2546 254.279 50.0911 255.678 48.6144 256.666L49.7265 258.328C51.5452 257.112 52.9386 255.408 53.9161 253.258L52.0953 252.43ZM48.6144 256.666C47.1435 257.65 45.428 258.164 43.4327 258.185L43.4537 260.185C45.7993 260.16 47.9019 259.549 49.7265 258.328L48.6144 256.666ZM44.4432 259.185V251.105H42.4432V259.185H44.4432ZM47.0568 262.781V261.781H46.0568V262.781H47.0568ZM53.9091 262.781H54.9091V261.781H53.9091V262.781ZM53.9091 292.287V293.287H54.9091V292.287H53.9091ZM47.0568 292.287H46.0568V293.287H47.0568V292.287ZM47.0568 281.702H48.0568V280.702H47.0568V281.702ZM19 281.702H18V282.702H19V281.702ZM19 273.384V272.384H18V273.384H19ZM47.0568 273.384V274.384H48.0568V273.384H47.0568ZM47.0568 263.781H53.9091V261.781H47.0568V263.781ZM52.9091 262.781V292.287H54.9091V262.781H52.9091ZM53.9091 291.287H47.0568V293.287H53.9091V291.287ZM48.0568 292.287V281.702H46.0568V292.287H48.0568ZM47.0568 280.702H19V282.702H47.0568V280.702ZM20 281.702V273.384H18V281.702H20ZM19 274.384H47.0568V272.384H19V274.384ZM48.0568 273.384V262.781H46.0568V273.384H48.0568ZM19 299.599H18V300.334L18.701 300.554L19 299.599ZM19 290.531L19.3197 289.584L18 289.138L18 290.531H19ZM53.9091 302.31H54.9091V301.592L54.2288 301.362L53.9091 302.31ZM53.9091 313.543L54.2288 314.49L54.9091 314.261V313.543H53.9091ZM19 325.321H18V326.714L19.3197 326.269L19 325.321ZM19 316.253L18.7004 315.299L18 315.519V316.253H19ZM45.1136 308.054L45.4132 309.008L46.1136 308.788V308.054H45.1136ZM45.1136 307.781H46.1136V307.047L45.4126 306.827L45.1136 307.781ZM32.7386 298.389H33.7386V297.389H32.7386V298.389ZM32.7386 317.344V318.344H33.7386V317.344H32.7386ZM26.3295 317.344H25.3295V318.344H26.3295V317.344ZM26.3295 298.389V297.389H25.3295V298.389H26.3295ZM20 299.599V290.531H18V299.599H20ZM18.6803 291.479L53.5894 303.257L54.2288 301.362L19.3197 289.584L18.6803 291.479ZM52.9091 302.31L52.9091 313.543H54.9091L54.9091 302.31H52.9091ZM53.5894 312.595L18.6803 324.374L19.3197 326.269L54.2288 314.49L53.5894 312.595ZM20 325.321V316.253H18V325.321H20ZM19.2996 317.207L45.4132 309.008L44.8141 307.1L18.7004 315.299L19.2996 317.207ZM46.1136 308.054V307.781H44.1136V308.054H46.1136ZM45.4126 306.827L19.299 298.645L18.701 300.554L44.8147 308.736L45.4126 306.827ZM31.7386 298.389V317.344H33.7386V298.389H31.7386ZM32.7386 316.344H26.3295V318.344H32.7386V316.344ZM27.3295 317.344V298.389H25.3295V317.344H27.3295ZM26.3295 299.389H32.7386V297.389H26.3295V299.389ZM41.2614 359.126H40.2614V360.229L41.3587 360.122L41.2614 359.126ZM41.2614 350.604L41.1326 349.612L40.2614 349.725V350.604H41.2614ZM43.6307 349.905L43.1835 349.01L43.1835 349.01L43.6307 349.905ZM45.4375 348.507L46.1947 349.16L46.1947 349.16L45.4375 348.507ZM46.5795 346.445L45.635 346.116L45.6322 346.124L45.6295 346.132L46.5795 346.445ZM45.7443 339.456L46.5728 338.896L46.5704 338.892L45.7443 339.456ZM42.1477 336.643L42.5352 335.722L42.5295 335.719L42.1477 336.643ZM30.625 336.661L30.2375 335.739L30.2295 335.742L30.625 336.661ZM27.0966 339.473L26.2621 338.922L26.2562 338.931L27.0966 339.473ZM26.2784 346.325L27.2339 346.03L27.2326 346.026L26.2784 346.325ZM27.3182 348.354L26.5313 348.971L26.5329 348.973L27.3182 348.354ZM29.0057 349.803L29.505 348.936L29.5002 348.933L29.0057 349.803ZM31.2727 350.604L32.2727 350.61L32.2778 349.765L31.4458 349.619L31.2727 350.604ZM31.2216 359.126L31.1264 360.122L32.215 360.226L32.2216 359.132L31.2216 359.126ZM26.6534 357.78L27.1006 356.885L27.0952 356.883L26.6534 357.78ZM22.5455 354.729L21.8195 355.416L21.8227 355.42L22.5455 354.729ZM19.6136 349.99L20.5452 349.627L20.5445 349.625L19.6136 349.99ZM20.6023 335.126L19.7304 334.637L19.7277 334.641L20.6023 335.126ZM26.7045 329.229L27.18 330.108L26.7045 329.229ZM46.2216 329.263L46.7028 328.386L46.7028 328.386L46.2216 329.263ZM53.5 349.479L52.5501 349.166L52.5483 349.172L53.5 349.479ZM50.9432 354.217L50.1718 353.581L50.1687 353.585L50.9432 354.217ZM42.2614 359.126V350.604H40.2614V359.126H42.2614ZM41.3902 351.595C42.3628 351.469 43.2621 351.207 44.0779 350.799L43.1835 349.01C42.5901 349.307 41.9099 349.511 41.1326 349.612L41.3902 351.595ZM44.0779 350.799C44.8972 350.39 45.6058 349.843 46.1947 349.16L44.6803 347.854C44.2692 348.33 43.7733 348.715 43.1835 349.01L44.0779 350.799ZM46.1947 349.16C46.7886 348.472 47.2309 347.666 47.5296 346.757L45.6295 346.132C45.4054 346.814 45.0864 347.383 44.6803 347.854L46.1947 349.16ZM47.524 346.773C47.8386 345.869 47.9886 344.887 47.9886 343.837H45.9886C45.9886 344.696 45.866 345.452 45.635 346.116L47.524 346.773ZM47.9886 343.837C47.9886 341.973 47.5296 340.311 46.5728 338.896L44.9158 340.016C45.6182 341.055 45.9886 342.314 45.9886 343.837H47.9886ZM46.5704 338.892C45.6161 337.494 44.2527 336.443 42.5352 335.722L41.7603 337.565C43.1791 338.162 44.2134 338.986 44.9183 340.02L46.5704 338.892ZM42.5295 335.719C40.8088 335.008 38.7739 334.672 36.4545 334.672V336.672C38.5897 336.672 40.3503 336.983 41.766 337.568L42.5295 335.719ZM36.4545 334.672C34.0486 334.672 31.9642 335.013 30.2375 335.739L31.0125 337.582C32.4222 336.99 34.2241 336.672 36.4545 336.672V334.672ZM30.2295 335.742C28.5255 336.476 27.1826 337.528 26.2621 338.922L27.9311 340.024C28.6015 339.009 29.6109 338.186 31.0205 337.579L30.2295 335.742ZM26.2562 338.931C25.3533 340.331 24.9205 341.963 24.9205 343.786H26.9205C26.9205 342.29 27.2717 341.047 27.937 340.015L26.2562 338.931ZM24.9205 343.786C24.9205 344.802 25.0506 345.752 25.3242 346.624L27.2326 346.026C27.0289 345.376 26.9205 344.632 26.9205 343.786H24.9205ZM25.3229 346.62C25.5941 347.498 25.9943 348.286 26.5313 348.971L28.105 347.737C27.733 347.262 27.44 346.698 27.2339 346.03L25.3229 346.62ZM26.5329 348.973C27.0793 349.666 27.7408 350.233 28.5112 350.672L29.5002 348.933C28.9524 348.622 28.4888 348.223 28.1035 347.735L26.5329 348.973ZM28.5064 350.669C29.2878 351.119 30.1558 351.423 31.0997 351.589L31.4458 349.619C30.7078 349.489 30.0645 349.259 29.505 348.936L28.5064 350.669ZM30.2727 350.598L30.2216 359.12L32.2216 359.132L32.2727 350.61L30.2727 350.598ZM31.3167 358.131C29.9034 357.996 28.4994 357.585 27.1006 356.885L26.2062 358.674C27.8074 359.475 29.4489 359.962 31.1264 360.122L31.3167 358.131ZM27.0952 356.883C25.7075 356.199 24.4318 355.255 23.2682 354.038L21.8227 355.42C23.1364 356.794 24.5993 357.883 26.2116 358.677L27.0952 356.883ZM23.2714 354.041C22.1431 352.85 21.2312 351.384 20.5452 349.627L18.6821 350.354C19.4506 352.323 20.4933 354.017 21.8195 355.416L23.2714 354.041ZM20.5445 349.625C19.8712 347.91 19.5227 345.913 19.5227 343.615H17.5227C17.5227 346.113 17.9015 348.366 18.6828 350.356L20.5445 349.625ZM19.5227 343.615C19.5227 340.607 20.1811 337.948 21.4768 335.611L19.7277 334.641C18.2507 337.305 17.5227 340.305 17.5227 343.615H19.5227ZM21.4742 335.616C22.7733 333.303 24.6649 331.468 27.18 330.108L26.2291 328.349C23.4033 329.876 21.2267 331.973 19.7304 334.637L21.4742 335.616ZM27.18 330.108C29.6711 328.762 32.7485 328.064 36.4545 328.064V326.064C32.5015 326.064 29.0789 326.809 26.2291 328.349L27.18 330.108ZM36.4545 328.064C40.1703 328.064 43.251 328.773 45.7404 330.139L46.7028 328.386C43.8512 326.821 40.4206 326.064 36.4545 326.064V328.064ZM45.7404 330.139C48.2568 331.521 50.1435 333.373 51.4323 335.697L53.1814 334.727C51.6974 332.051 49.5273 329.937 46.7028 328.386L45.7404 330.139ZM51.4323 335.697C52.7294 338.036 53.3864 340.668 53.3864 343.615H55.3864C55.3864 340.358 54.6569 337.388 53.1814 334.727L51.4323 335.697ZM53.3864 343.615C53.3864 345.635 53.1042 347.483 52.5501 349.166L54.4499 349.791C55.0777 347.884 55.3864 345.822 55.3864 343.615H53.3864ZM52.5483 349.172C52.0049 350.855 51.2112 352.321 50.1718 353.581L51.7146 354.854C52.9252 353.386 53.836 351.693 54.4517 349.786L52.5483 349.172ZM50.1687 353.585C49.1439 354.84 47.8815 355.863 46.3708 356.656L47.2997 358.427C49.0389 357.515 50.5152 356.322 51.7177 354.85L50.1687 353.585ZM46.3708 356.656C44.8752 357.44 43.1451 357.937 41.164 358.131L41.3587 360.122C43.5595 359.906 45.5452 359.347 47.2997 358.427L46.3708 356.656ZM19 363.955V362.955H18V363.955H19ZM53.9091 363.955H54.9091V362.955H53.9091V363.955ZM53.9091 372.392V373.392H54.9091V372.392H53.9091ZM39.1477 372.392V371.392H38.1477V372.392H39.1477ZM39.1477 372.852H38.1477V373.34L38.5318 373.64L39.1477 372.852ZM53.9091 384.392H54.9091V383.904L54.525 383.604L53.9091 384.392ZM53.9091 394.33L53.2871 395.113L54.9091 396.401V394.33H53.9091ZM38.3295 381.955L38.9515 381.172L38.3873 380.723L37.7836 381.117L38.3295 381.955ZM19 394.551H18V396.396L19.546 395.389L19 394.551ZM19 384.46L18.4648 383.615L18 383.91V384.46H19ZM32.7216 375.767L33.2568 376.612L34.4469 375.858L33.3425 374.983L32.7216 375.767ZM28.4602 372.392L29.0811 371.608L28.8083 371.392H28.4602V372.392ZM19 372.392H18V373.392H19V372.392ZM19 364.955H53.9091V362.955H19V364.955ZM52.9091 363.955V372.392H54.9091V363.955H52.9091ZM53.9091 371.392H39.1477V373.392H53.9091V371.392ZM38.1477 372.392V372.852H40.1477V372.392H38.1477ZM38.5318 373.64L53.2932 385.18L54.525 383.604L39.7636 372.064L38.5318 373.64ZM52.9091 384.392L52.9091 394.33H54.9091L54.9091 384.392H52.9091ZM54.5311 393.547L38.9515 381.172L37.7076 382.738L53.2871 395.113L54.5311 393.547ZM37.7836 381.117L18.454 393.713L19.546 395.389L38.8755 382.792L37.7836 381.117ZM20 394.551V384.46H18V394.551H20ZM19.5352 385.305L33.2568 376.612L32.1864 374.922L18.4648 383.615L19.5352 385.305ZM33.3425 374.983L29.0811 371.608L27.8394 373.176L32.1007 376.551L33.3425 374.983ZM28.4602 371.392H19V373.392H28.4602V371.392ZM20 372.392V363.955H18V372.392H20Z" fill="white" mask="url(#path-3-outside-2_132_10)"/>
</g>
<g opacity="0.1">
<mask id="path-5-outside-3_132_10" maskUnits="userSpaceOnUse" x="10" y="1" width="39" height="396" fill="black">
<rect fill="white" x="10" y="1" width="39" height="396"/>
<path d="M12 15.5455V2.64205L46.9091 2.64205V15.5284C46.9091 19.0852 46.2102 22.1477 44.8125 24.7159C43.4261 27.2955 41.4261 29.2841 38.8125 30.6818C36.2102 32.0795 33.0966 32.7784 29.4716 32.7784C25.8352 32.7784 22.7102 32.0795 20.0966 30.6818C17.483 29.2955 15.4773 27.3125 14.0795 24.733C12.6932 22.1534 12 19.0909 12 15.5455ZM19.1932 11.0795V15.2216C19.1932 17.1761 19.5227 18.8295 20.1818 20.1818C20.8523 21.5455 21.9375 22.5739 23.4375 23.267C24.9489 23.9716 26.9602 24.3239 29.4716 24.3239C31.983 24.3239 33.983 23.9716 35.4716 23.267C36.9716 22.5625 38.0511 21.5227 38.7102 20.1477C39.3807 18.7841 39.7159 17.1023 39.7159 15.1023V11.0795H19.1932ZM12 37.7045H46.9091V62.0455H40.0568V46.142H32.8977V60.8011H26.0284V46.142H18.8523L18.8523 62.0455H12L12 37.7045ZM46.9091 75.2557L21.3409 83.0625V83.3523L46.9091 91.1591V100.602L12 88.8239V77.5909L46.9091 65.8125L46.9091 75.2557ZM12 114.673H46.9091V138.503H40.0568V123.111H32.8977V136.986H26.0284V123.111H12V114.673ZM46.9091 163.871V172.291H24.392C21.7898 172.291 19.5227 171.672 17.5909 170.433C15.6705 169.195 14.1818 167.467 13.125 165.251C12.0795 163.036 11.5568 160.462 11.5568 157.53C11.5568 154.564 12.0795 151.973 13.125 149.757C14.1818 147.541 15.6705 145.82 17.5909 144.592C19.5227 143.365 21.7898 142.751 24.392 142.751H46.9091V151.189H25.125C23.9205 151.189 22.8466 151.45 21.9034 151.973C20.9602 152.507 20.2216 153.251 19.6875 154.206C19.1534 155.161 18.8864 156.268 18.8864 157.53C18.8864 158.791 19.1534 159.893 19.6875 160.837C20.2216 161.791 20.9602 162.536 21.9034 163.07C22.8466 163.604 23.9205 163.871 25.125 163.871H46.9091ZM12 177.58H46.9091V186.017H18.8523V200.54H12V177.58ZM12 204.908H46.9091V213.345H18.8523V227.868H12V204.908ZM36.4432 251.105C37.6932 250.991 38.6648 250.486 39.358 249.588C40.0625 248.702 40.4148 247.435 40.4148 245.787C40.4148 244.696 40.2727 243.787 39.9886 243.06C39.7045 242.332 39.3125 241.787 38.8125 241.423C38.3239 241.06 37.7614 240.872 37.125 240.861C36.6023 240.838 36.142 240.94 35.7443 241.168C35.3466 241.406 34.9943 241.747 34.6875 242.19C34.392 242.645 34.1307 243.19 33.9034 243.827C33.6761 244.463 33.4773 245.179 33.3068 245.974L32.625 248.974C32.25 250.702 31.75 252.224 31.125 253.543C30.5 254.872 29.7557 255.986 28.892 256.884C28.0284 257.793 27.0341 258.48 25.9091 258.946C24.7841 259.412 23.5227 259.651 22.125 259.662C19.9205 259.651 18.0284 259.094 16.4489 257.991C14.8693 256.889 13.6591 255.304 12.8182 253.236C11.9773 251.179 11.5568 248.696 11.5568 245.787C11.5568 242.866 11.9943 240.321 12.8693 238.151C13.7443 235.98 15.0739 234.293 16.858 233.088C18.642 231.884 20.8977 231.264 23.625 231.23V239.31C22.5 239.378 21.5625 239.679 20.8125 240.213C20.0625 240.747 19.4943 241.48 19.108 242.412C18.7216 243.355 18.5284 244.446 18.5284 245.685C18.5284 246.821 18.6818 247.787 18.9886 248.582C19.2955 249.389 19.7216 250.009 20.267 250.44C20.8125 250.872 21.4375 251.094 22.142 251.105C22.8011 251.094 23.3636 250.889 23.8295 250.491C24.3068 250.094 24.7159 249.48 25.0568 248.651C25.4091 247.832 25.733 246.787 26.0284 245.514L26.8807 241.866C27.5739 238.844 28.6932 236.463 30.2386 234.724C31.7955 232.986 33.8977 232.122 36.5455 232.134C38.7045 232.122 40.5966 232.702 42.2216 233.872C43.8466 235.043 45.1136 236.662 46.0227 238.73C46.9318 240.798 47.3864 243.156 47.3864 245.804C47.3864 248.509 46.9261 250.855 46.0057 252.844C45.0966 254.844 43.8182 256.395 42.1705 257.497C40.5227 258.599 38.6136 259.162 36.4432 259.185V251.105ZM40.0568 262.781H46.9091V292.287H40.0568V281.702H12V273.384H40.0568V262.781ZM12 299.599V290.531L46.9091 302.31L46.9091 313.543L12 325.321V316.253L38.1136 308.054V307.781L12 299.599ZM25.7386 298.389V317.344H19.3295V298.389H25.7386ZM34.2614 359.126V350.604C35.1364 350.49 35.9261 350.257 36.6307 349.905C37.3352 349.553 37.9375 349.087 38.4375 348.507C38.9375 347.928 39.3182 347.24 39.5795 346.445C39.8523 345.661 39.9886 344.791 39.9886 343.837C39.9886 342.143 39.5739 340.683 38.7443 339.456C37.9148 338.24 36.7159 337.303 35.1477 336.643C33.5795 335.996 31.6818 335.672 29.4545 335.672C27.1364 335.672 25.1932 336.001 23.625 336.661C22.0682 337.331 20.892 338.268 20.0966 339.473C19.3125 340.689 18.9205 342.126 18.9205 343.786C18.9205 344.717 19.0398 345.564 19.2784 346.325C19.517 347.098 19.8636 347.774 20.3182 348.354C20.7841 348.945 21.3466 349.428 22.0057 349.803C22.6761 350.189 23.4318 350.456 24.2727 350.604L24.2216 359.126C22.6761 358.979 21.1534 358.53 19.6534 357.78C18.1534 357.041 16.7841 356.024 15.5455 354.729C14.3182 353.433 13.3409 351.854 12.6136 349.99C11.8864 348.138 11.5227 346.013 11.5227 343.615C11.5227 340.456 12.2159 337.626 13.6023 335.126C15 332.638 17.0341 330.672 19.7045 329.229C22.375 327.786 25.625 327.064 29.4545 327.064C33.2955 327.064 36.5511 327.797 39.2216 329.263C41.892 330.729 43.9205 332.712 45.3068 335.212C46.6932 337.712 47.3864 340.513 47.3864 343.615C47.3864 345.729 47.0909 347.683 46.5 349.479C45.9205 351.274 45.0682 352.854 43.9432 354.217C42.8295 355.581 41.4602 356.689 39.8352 357.541C38.2102 358.393 36.3523 358.922 34.2614 359.126ZM12 363.955H46.9091V372.392H32.1477V372.852L46.9091 384.392L46.9091 394.33L31.3295 381.955L12 394.551V384.46L25.7216 375.767L21.4602 372.392H12V363.955Z"/>
</mask>
<path d="M12 2.64205V1.64205H11V2.64205H12ZM46.9091 2.64205L47.9091 2.64205V1.64205H46.9091V2.64205ZM44.8125 24.7159L43.9341 24.2379L43.9317 24.2425L44.8125 24.7159ZM38.8125 30.6818L38.3409 29.8L38.3393 29.8009L38.8125 30.6818ZM20.0966 30.6818L20.5682 29.8L20.5652 29.7984L20.0966 30.6818ZM14.0795 24.733L13.1987 25.2064L13.2003 25.2094L14.0795 24.733ZM19.1932 11.0795V10.0795H18.1932V11.0795H19.1932ZM20.1818 20.1818L19.2829 20.6199L19.2844 20.623L20.1818 20.1818ZM23.4375 23.267L23.86 22.3607L23.857 22.3593L23.4375 23.267ZM35.4716 23.267L35.0465 22.3619L35.0438 22.3632L35.4716 23.267ZM38.7102 20.1477L37.8128 19.7065L37.8085 19.7155L38.7102 20.1477ZM39.7159 11.0795H40.7159V10.0795H39.7159V11.0795ZM13 15.5455V2.64205H11V15.5455H13ZM12 3.64205L46.9091 3.64205V1.64205L12 1.64205V3.64205ZM45.9091 2.64205V15.5284H47.9091V2.64205L45.9091 2.64205ZM45.9091 15.5284C45.9091 18.9541 45.2365 21.8449 43.9342 24.2379L45.6908 25.1939C47.1839 22.4505 47.9091 19.2164 47.9091 15.5284H45.9091ZM43.9317 24.2425C42.6397 26.6464 40.7831 28.4939 38.3409 29.8L39.2841 31.5636C42.0691 30.0742 44.2126 27.9445 45.6933 25.1893L43.9317 24.2425ZM38.3393 29.8009C35.912 31.1046 32.9685 31.7784 29.4716 31.7784V33.7784C33.2247 33.7784 36.5084 33.0545 39.2857 31.5628L38.3393 29.8009ZM29.4716 31.7784C25.9629 31.7784 23.0074 31.1044 20.5682 29.8L19.625 31.5636C22.4131 33.0547 25.7076 33.7784 29.4716 33.7784V31.7784ZM20.5652 29.7984C18.124 28.5035 16.2618 26.6614 14.9588 24.2565L13.2003 25.2094C14.6927 27.9636 16.842 30.0874 19.628 31.5652L20.5652 29.7984ZM14.9604 24.2595C13.6671 21.8532 13 18.9602 13 15.5455H11C11 19.2216 11.7193 22.4536 13.1987 25.2064L14.9604 24.2595ZM18.1932 11.0795V15.2216H20.1932V11.0795H18.1932ZM18.1932 15.2216C18.1932 17.2842 18.5405 19.0967 19.2829 20.6199L21.0807 19.7437C20.505 18.5624 20.1932 17.0681 20.1932 15.2216H18.1932ZM19.2844 20.623C20.0651 22.2108 21.3294 23.3945 23.018 24.1748L23.857 22.3593C22.5456 21.7533 21.6395 20.8801 21.0792 19.7406L19.2844 20.623ZM23.015 24.1734C24.7084 24.9628 26.8815 25.3239 29.4716 25.3239V23.3239C27.039 23.3239 25.1893 22.9804 23.86 22.3607L23.015 24.1734ZM29.4716 25.3239C32.0605 25.3239 34.2254 24.9632 35.8994 24.1709L35.0438 22.3632C33.7405 22.98 31.9054 23.3239 29.4716 23.3239V25.3239ZM35.8967 24.1722C37.586 23.3788 38.8444 22.1814 39.612 20.58L37.8085 19.7155C37.2579 20.8641 36.3572 21.7463 35.0465 22.3619L35.8967 24.1722ZM39.6076 20.5889C40.3634 19.0517 40.7159 17.2089 40.7159 15.1023H38.7159C38.7159 16.9957 38.3979 18.5165 37.8128 19.7065L39.6076 20.5889ZM40.7159 15.1023V11.0795H38.7159V15.1023H40.7159ZM39.7159 10.0795H19.1932V12.0795H39.7159V10.0795ZM12 37.7045V36.7045H11V37.7045H12ZM46.9091 37.7045H47.9091V36.7045H46.9091V37.7045ZM46.9091 62.0455V63.0455H47.9091V62.0455H46.9091ZM40.0568 62.0455H39.0568V63.0455H40.0568V62.0455ZM40.0568 46.142H41.0568V45.142H40.0568V46.142ZM32.8977 46.142V45.142H31.8977V46.142H32.8977ZM32.8977 60.8011V61.8011H33.8977V60.8011H32.8977ZM26.0284 60.8011H25.0284V61.8011H26.0284V60.8011ZM26.0284 46.142H27.0284V45.142H26.0284V46.142ZM18.8523 46.142V45.142H17.8523V46.142H18.8523ZM18.8523 62.0455V63.0455H19.8523V62.0455H18.8523ZM12 62.0455H11V63.0455H12V62.0455ZM12 38.7045H46.9091V36.7045H12V38.7045ZM45.9091 37.7045V62.0455H47.9091V37.7045H45.9091ZM46.9091 61.0455H40.0568V63.0455H46.9091V61.0455ZM41.0568 62.0455V46.142H39.0568V62.0455H41.0568ZM40.0568 45.142H32.8977V47.142H40.0568V45.142ZM31.8977 46.142V60.8011H33.8977V46.142H31.8977ZM32.8977 59.8011H26.0284V61.8011H32.8977V59.8011ZM27.0284 60.8011V46.142H25.0284L25.0284 60.8011H27.0284ZM26.0284 45.142H18.8523V47.142H26.0284V45.142ZM17.8523 46.142L17.8523 62.0455H19.8523L19.8523 46.142H17.8523ZM18.8523 61.0455H12V63.0455H18.8523V61.0455ZM13 62.0455L13 37.7045H11L11 62.0455H13ZM46.9091 75.2557L47.2011 76.2121L47.9091 75.9959V75.2557H46.9091ZM21.3409 83.0625L21.0489 82.1061L20.3409 82.3223V83.0625H21.3409ZM21.3409 83.3523H20.3409V84.0925L21.0489 84.3087L21.3409 83.3523ZM46.9091 91.1591H47.9091V90.4188L47.2011 90.2027L46.9091 91.1591ZM46.9091 100.602L46.5894 101.55L47.9091 101.995V100.602H46.9091ZM12 88.8239H11V89.5418L11.6803 89.7714L12 88.8239ZM12 77.5909L11.6803 76.6434L11 76.8729V77.5909H12ZM46.9091 65.8125H47.9091V64.4197L46.5894 64.865L46.9091 65.8125ZM46.6171 74.2993L21.0489 82.1061L21.6329 84.0189L47.2011 76.2121L46.6171 74.2993ZM20.3409 83.0625V83.3523H22.3409V83.0625H20.3409ZM21.0489 84.3087L46.6171 92.1155L47.2011 90.2027L21.6329 82.3959L21.0489 84.3087ZM45.9091 91.1591V100.602H47.9091V91.1591H45.9091ZM47.2288 99.6548L12.3197 87.8763L11.6803 89.7714L46.5894 101.55L47.2288 99.6548ZM13 88.8239V77.5909H11V88.8239H13ZM12.3197 78.5384L47.2288 66.76L46.5894 64.865L11.6803 76.6434L12.3197 78.5384ZM45.9091 65.8125L45.9091 75.2557H47.9091L47.9091 65.8125H45.9091ZM12 114.673V113.673H11V114.673H12ZM46.9091 114.673H47.9091V113.673H46.9091V114.673ZM46.9091 138.503V139.503H47.9091V138.503H46.9091ZM40.0568 138.503H39.0568V139.503H40.0568V138.503ZM40.0568 123.111H41.0568V122.111H40.0568V123.111ZM32.8977 123.111V122.111H31.8977V123.111H32.8977ZM32.8977 136.986V137.986H33.8977V136.986H32.8977ZM26.0284 136.986H25.0284V137.986H26.0284V136.986ZM26.0284 123.111H27.0284V122.111H26.0284V123.111ZM12 123.111H11V124.111H12V123.111ZM12 115.673H46.9091V113.673H12V115.673ZM45.9091 114.673V138.503H47.9091V114.673H45.9091ZM46.9091 137.503H40.0568V139.503H46.9091V137.503ZM41.0568 138.503V123.111H39.0568V138.503H41.0568ZM40.0568 122.111H32.8977V124.111H40.0568V122.111ZM31.8977 123.111V136.986H33.8977V123.111H31.8977ZM32.8977 135.986H26.0284V137.986H32.8977V135.986ZM27.0284 136.986V123.111H25.0284V136.986H27.0284ZM26.0284 122.111H12V124.111H26.0284V122.111ZM13 123.111V114.673H11V123.111H13ZM46.9091 163.871H47.9091V162.871H46.9091V163.871ZM46.9091 172.291V173.291H47.9091V172.291H46.9091ZM17.5909 170.433L17.0489 171.274L17.0512 171.275L17.5909 170.433ZM13.125 165.251L12.2206 165.678L12.2224 165.682L13.125 165.251ZM13.125 149.757L12.2224 149.327L12.2206 149.33L13.125 149.757ZM17.5909 144.592L17.0547 143.748L17.0524 143.75L17.5909 144.592ZM46.9091 142.751H47.9091V141.751H46.9091V142.751ZM46.9091 151.189V152.189H47.9091V151.189H46.9091ZM21.9034 151.973L21.4186 151.098L21.4107 151.103L21.9034 151.973ZM19.6875 154.206L20.5602 154.694L20.5602 154.694L19.6875 154.206ZM19.6875 160.837L20.5602 160.348L20.5577 160.344L19.6875 160.837ZM45.9091 163.871V172.291H47.9091V163.871H45.9091ZM46.9091 171.291H24.392V173.291H46.9091V171.291ZM24.392 171.291C21.9548 171.291 19.8806 170.713 18.1307 169.591L17.0512 171.275C19.1649 172.63 21.6248 173.291 24.392 173.291V171.291ZM18.1329 169.593C16.38 168.462 15.0107 166.882 14.0276 164.821L12.2224 165.682C13.3529 168.052 14.9609 169.927 17.0489 171.274L18.1329 169.593ZM14.0294 164.825C13.0581 162.766 12.5568 160.343 12.5568 157.53H10.5568C10.5568 160.581 11.101 163.305 12.2206 165.678L14.0294 164.825ZM12.5568 157.53C12.5568 154.681 13.0587 152.241 14.0294 150.184L12.2206 149.33C11.1003 151.705 10.5568 154.447 10.5568 157.53H12.5568ZM14.0276 150.188C15.0104 148.127 16.3786 146.554 18.1294 145.435L17.0524 143.75C14.9623 145.085 13.3532 146.956 12.2224 149.327L14.0276 150.188ZM18.1271 145.436C19.8775 144.324 21.953 143.751 24.392 143.751V141.751C21.6266 141.751 19.168 142.406 17.0547 143.748L18.1271 145.436ZM24.392 143.751H46.9091V141.751H24.392V143.751ZM45.9091 142.751V151.189H47.9091V142.751H45.9091ZM46.9091 150.189H25.125V152.189H46.9091V150.189ZM25.125 150.189C23.7711 150.189 22.5269 150.484 21.4187 151.098L22.3882 152.848C23.1663 152.416 24.0698 152.189 25.125 152.189V150.189ZM21.4107 151.103C20.3068 151.728 19.4374 152.605 18.8148 153.718L20.5602 154.694C21.0058 153.898 21.6137 153.286 22.3962 152.843L21.4107 151.103ZM18.8148 153.718C18.1852 154.843 17.8864 156.124 17.8864 157.53H19.8864C19.8864 156.413 20.1216 155.478 20.5602 154.694L18.8148 153.718ZM17.8864 157.53C17.8864 158.935 18.1851 160.213 18.8173 161.329L20.5577 160.344C20.1217 159.574 19.8864 158.647 19.8864 157.53H17.8864ZM18.8148 161.325C19.4374 162.438 20.3068 163.315 21.4107 163.94L22.3962 162.199C21.6137 161.756 21.0058 161.145 20.5602 160.348L18.8148 161.325ZM21.4107 163.94C22.5204 164.568 23.7674 164.871 25.125 164.871V162.871C24.0735 162.871 23.1728 162.639 22.3962 162.199L21.4107 163.94ZM25.125 164.871H46.9091V162.871H25.125V164.871ZM12 177.58V176.58H11V177.58H12ZM46.9091 177.58H47.9091V176.58H46.9091V177.58ZM46.9091 186.017V187.017H47.9091V186.017H46.9091ZM18.8523 186.017V185.017H17.8523V186.017H18.8523ZM18.8523 200.54V201.54H19.8523V200.54H18.8523ZM12 200.54H11V201.54H12V200.54ZM12 178.58H46.9091V176.58H12V178.58ZM45.9091 177.58V186.017H47.9091V177.58H45.9091ZM46.9091 185.017H18.8523V187.017H46.9091V185.017ZM17.8523 186.017V200.54H19.8523V186.017H17.8523ZM18.8523 199.54H12V201.54H18.8523V199.54ZM13 200.54V177.58H11V200.54H13ZM12 204.908V203.908H11V204.908H12ZM46.9091 204.908H47.9091V203.908H46.9091V204.908ZM46.9091 213.345V214.345H47.9091V213.345H46.9091ZM18.8523 213.345V212.345H17.8523V213.345H18.8523ZM18.8523 227.868V228.868H19.8523V227.868H18.8523ZM12 227.868H11V228.868H12V227.868ZM12 205.908H46.9091V203.908H12V205.908ZM45.9091 204.908V213.345H47.9091V204.908H45.9091ZM46.9091 212.345H18.8523V214.345H46.9091V212.345ZM17.8523 213.345V227.868H19.8523V213.345H17.8523ZM18.8523 226.868H12V228.868H18.8523V226.868ZM13 227.868V204.908H11V227.868H13ZM36.4432 251.105L36.3526 250.109L35.4432 250.192V251.105H36.4432ZM39.358 249.588L38.5751 248.966L38.5664 248.977L39.358 249.588ZM39.9886 243.06L40.9201 242.696L40.9201 242.696L39.9886 243.06ZM38.8125 241.423L38.2155 242.226L38.2243 242.232L38.8125 241.423ZM37.125 240.861L37.0816 241.86L37.0943 241.86L37.1071 241.861L37.125 240.861ZM35.7443 241.168L35.2482 240.299L35.2389 240.305L35.2298 240.31L35.7443 241.168ZM34.6875 242.19L33.8653 241.621L33.857 241.633L33.8491 241.645L34.6875 242.19ZM33.9034 243.827L34.8452 244.163L34.8452 244.163L33.9034 243.827ZM33.3068 245.974L34.282 246.196L34.2846 246.184L33.3068 245.974ZM32.625 248.974L31.6498 248.753L31.6478 248.762L32.625 248.974ZM31.125 253.543L30.2214 253.114L30.22 253.117L31.125 253.543ZM28.892 256.884L28.1714 256.19L28.167 256.195L28.892 256.884ZM25.9091 258.946L25.5265 258.022L25.5265 258.022L25.9091 258.946ZM22.125 259.662L22.1198 260.662L22.1331 260.662L22.125 259.662ZM16.4489 257.991L17.0211 257.171L17.0211 257.171L16.4489 257.991ZM12.8182 253.236L13.7445 252.859L13.7438 252.857L12.8182 253.236ZM12.8693 238.151L13.7968 238.524L13.7968 238.524L12.8693 238.151ZM23.625 231.23H24.625V230.218L23.6125 230.23L23.625 231.23ZM23.625 239.31L23.6855 240.308L24.625 240.251V239.31H23.625ZM20.8125 240.213L20.2324 239.399L20.2324 239.399L20.8125 240.213ZM19.108 242.412L18.1842 242.029L18.1826 242.033L19.108 242.412ZM18.9886 248.582L19.9233 248.227L19.9216 248.223L18.9886 248.582ZM20.267 250.44L20.8877 249.656L20.8877 249.656L20.267 250.44ZM22.142 251.105L22.1259 252.105L22.1426 252.105L22.1593 252.105L22.142 251.105ZM23.8295 250.491L23.1893 249.723L23.1803 249.731L23.8295 250.491ZM25.0568 248.651L24.1383 248.255L24.135 248.263L24.1319 248.27L25.0568 248.651ZM26.0284 245.514L25.0546 245.287L25.0543 245.288L26.0284 245.514ZM26.8807 241.866L27.8545 242.094L27.8554 242.09L26.8807 241.866ZM30.2386 234.724L29.4936 234.057L29.4912 234.06L30.2386 234.724ZM36.5455 232.134L36.5412 233.134L36.5507 233.134L36.5455 232.134ZM42.2216 233.872L42.806 233.061L42.806 233.061L42.2216 233.872ZM46.0227 238.73L45.1073 239.133L45.1073 239.133L46.0227 238.73ZM46.0057 252.844L45.0982 252.424L45.0953 252.43L46.0057 252.844ZM42.1705 257.497L42.7265 258.328L42.7265 258.328L42.1705 257.497ZM36.4432 259.185H35.4432V260.195L36.4537 260.185L36.4432 259.185ZM36.5337 252.101C38.0279 251.965 39.2672 251.342 40.1495 250.199L38.5664 248.977C38.0624 249.63 37.3584 250.018 36.3526 250.109L36.5337 252.101ZM40.1408 250.21C41.0374 249.082 41.4148 247.561 41.4148 245.787H39.4148C39.4148 247.308 39.0876 248.321 38.5751 248.966L40.1408 250.21ZM41.4148 245.787C41.4148 244.617 41.2636 243.575 40.9201 242.696L39.0572 243.424C39.2818 243.999 39.4148 244.775 39.4148 245.787H41.4148ZM40.9201 242.696C40.5846 241.837 40.0912 241.117 39.4007 240.615L38.2243 242.232C38.5338 242.457 38.8245 242.828 39.0572 243.424L40.9201 242.696ZM39.4095 240.621C38.7454 240.127 37.9782 239.876 37.1429 239.861L37.1071 241.861C37.5445 241.868 37.9024 241.993 38.2155 242.226L39.4095 240.621ZM37.1684 239.862C36.4846 239.832 35.8322 239.966 35.2482 240.299L36.2405 242.036C36.4519 241.915 36.72 241.844 37.0816 241.86L37.1684 239.862ZM35.2298 240.31C34.692 240.633 34.24 241.08 33.8653 241.621L35.5097 242.76C35.7486 242.414 36.0012 242.18 36.2588 242.025L35.2298 240.31ZM33.8491 241.645C33.5023 242.179 33.209 242.798 32.9617 243.49L34.8452 244.163C35.0524 243.583 35.2818 243.111 35.5259 242.735L33.8491 241.645ZM32.9617 243.49C32.717 244.175 32.5069 244.935 32.329 245.765L34.2846 246.184C34.4476 245.423 34.6353 244.751 34.8452 244.163L32.9617 243.49ZM32.3317 245.753L31.6499 248.753L33.6001 249.196L34.282 246.196L32.3317 245.753ZM31.6478 248.762C31.2857 250.43 30.8077 251.878 30.2214 253.114L32.0286 253.971C32.6923 252.571 33.2143 250.973 33.6022 249.187L31.6478 248.762ZM30.22 253.117C29.6333 254.365 28.9472 255.384 28.1714 256.19L29.6127 257.577C30.5642 256.588 31.3667 255.379 32.03 253.968L30.22 253.117ZM28.167 256.195C27.3969 257.005 26.5182 257.611 25.5265 258.022L26.2917 259.87C27.5499 259.349 28.6599 258.58 29.617 257.572L28.167 256.195ZM25.5265 258.022C24.5365 258.432 23.4049 258.651 22.1169 258.662L22.1331 260.662C23.6406 260.65 25.0317 260.392 26.2917 259.87L25.5265 258.022ZM22.1302 258.662C20.0982 258.651 18.411 258.141 17.0211 257.171L15.8766 258.812C17.6458 260.046 19.7427 260.65 22.1198 260.662L22.1302 258.662ZM17.0211 257.171C15.6239 256.196 14.5245 254.778 13.7445 252.859L11.8918 253.612C12.7936 255.83 14.1147 257.582 15.8766 258.812L17.0211 257.171ZM13.7438 252.857C12.9646 250.952 12.5568 248.604 12.5568 245.787H10.5568C10.5568 248.788 10.9899 251.406 11.8926 253.614L13.7438 252.857ZM12.5568 245.787C12.5568 242.964 12.98 240.551 13.7968 238.524L11.9418 237.777C11.0087 240.091 10.5568 242.769 10.5568 245.787H12.5568ZM13.7968 238.524C14.604 236.522 15.8131 235 17.4175 233.917L16.2984 232.259C14.3346 233.585 12.8846 235.438 11.9418 237.777L13.7968 238.524ZM17.4175 233.917C19.0016 232.847 21.0535 232.262 23.6375 232.23L23.6125 230.23C20.742 230.266 18.2825 230.92 16.2984 232.259L17.4175 233.917ZM22.625 231.23V239.31H24.625V231.23H22.625ZM23.5645 238.311C22.2945 238.388 21.166 238.734 20.2324 239.399L21.3926 241.028C21.959 240.624 22.7055 240.367 23.6855 240.308L23.5645 238.311ZM20.2324 239.399C19.3152 240.052 18.6353 240.941 18.1842 242.029L20.0317 242.795C20.3533 242.019 20.8098 241.443 21.3926 241.028L20.2324 239.399ZM18.1826 242.033C17.7376 243.119 17.5284 244.343 17.5284 245.685H19.5284C19.5284 244.549 19.7056 243.591 20.0333 242.791L18.1826 242.033ZM17.5284 245.685C17.5284 246.905 17.6925 248.001 18.0556 248.942L19.9216 248.223C19.6711 247.573 19.5284 246.737 19.5284 245.685H17.5284ZM18.0539 248.938C18.4095 249.873 18.9291 250.657 19.6463 251.224L20.8877 249.656C20.5141 249.36 20.1814 248.906 19.9233 248.227L18.0539 248.938ZM19.6463 251.224C20.3665 251.795 21.2047 252.09 22.1259 252.105L22.1582 250.105C21.6703 250.097 21.2585 249.95 20.8877 249.656L19.6463 251.224ZM22.1593 252.105C23.0315 252.09 23.8225 251.812 24.4788 251.252L23.1803 249.731C22.9048 249.966 22.5708 250.098 22.1248 250.105L22.1593 252.105ZM24.4697 251.26C25.1153 250.722 25.6046 249.949 25.9818 249.031L24.1319 248.27C23.8273 249.012 23.4984 249.466 23.1894 249.723L24.4697 251.26ZM25.9753 249.046C26.3592 248.154 26.6992 247.047 27.0025 245.74L25.0543 245.288C24.7667 246.527 24.459 247.51 24.1383 248.255L25.9753 249.046ZM27.0022 245.742L27.8545 242.094L25.9069 241.639L25.0546 245.287L27.0022 245.742ZM27.8554 242.09C28.5231 239.178 29.5832 236.967 30.986 235.389L29.4912 234.06C27.8032 235.959 26.6247 238.509 25.906 241.643L27.8554 242.09ZM30.9836 235.392C32.323 233.896 34.1366 233.123 36.5412 233.134L36.5497 231.134C33.6589 231.121 31.2679 232.076 29.4937 234.057L30.9836 235.392ZM36.5507 233.134C38.5157 233.123 40.1975 233.647 41.6371 234.684L42.806 233.061C40.9957 231.757 38.8934 231.121 36.5402 231.134L36.5507 233.134ZM41.6371 234.684C43.0994 235.737 44.2606 237.206 45.1073 239.133L46.9382 238.328C45.9667 236.117 44.5938 234.348 42.806 233.061L41.6371 234.684ZM45.1073 239.133C45.9518 241.054 46.3864 243.271 46.3864 245.804H48.3864C48.3864 243.041 47.9118 240.543 46.9382 238.328L45.1073 239.133ZM46.3864 245.804C46.3864 248.397 45.9452 250.594 45.0982 252.424L46.9132 253.264C47.9071 251.116 48.3864 248.62 48.3864 245.804H46.3864ZM45.0953 252.43C44.2546 254.279 43.0911 255.678 41.6144 256.666L42.7265 258.328C44.5452 257.112 45.9386 255.408 46.9161 253.258L45.0953 252.43ZM41.6144 256.666C40.1435 257.65 38.428 258.164 36.4327 258.185L36.4537 260.185C38.7993 260.16 40.9019 259.549 42.7265 258.328L41.6144 256.666ZM37.4432 259.185V251.105H35.4432V259.185H37.4432ZM40.0568 262.781V261.781H39.0568V262.781H40.0568ZM46.9091 262.781H47.9091V261.781H46.9091V262.781ZM46.9091 292.287V293.287H47.9091V292.287H46.9091ZM40.0568 292.287H39.0568V293.287H40.0568V292.287ZM40.0568 281.702H41.0568V280.702H40.0568V281.702ZM12 281.702H11V282.702H12V281.702ZM12 273.384V272.384H11V273.384H12ZM40.0568 273.384V274.384H41.0568V273.384H40.0568ZM40.0568 263.781H46.9091V261.781H40.0568V263.781ZM45.9091 262.781V292.287H47.9091V262.781H45.9091ZM46.9091 291.287H40.0568V293.287H46.9091V291.287ZM41.0568 292.287V281.702H39.0568V292.287H41.0568ZM40.0568 280.702H12V282.702H40.0568V280.702ZM13 281.702V273.384H11V281.702H13ZM12 274.384H40.0568V272.384H12V274.384ZM41.0568 273.384V262.781H39.0568V273.384H41.0568ZM12 299.599H11V300.334L11.701 300.554L12 299.599ZM12 290.531L12.3197 289.584L11 289.138L11 290.531H12ZM46.9091 302.31H47.9091V301.592L47.2288 301.362L46.9091 302.31ZM46.9091 313.543L47.2288 314.49L47.9091 314.261V313.543H46.9091ZM12 325.321H11V326.714L12.3197 326.269L12 325.321ZM12 316.253L11.7004 315.299L11 315.519V316.253H12ZM38.1136 308.054L38.4132 309.008L39.1136 308.788V308.054H38.1136ZM38.1136 307.781H39.1136V307.047L38.4126 306.827L38.1136 307.781ZM25.7386 298.389H26.7386V297.389H25.7386V298.389ZM25.7386 317.344V318.344H26.7386V317.344H25.7386ZM19.3295 317.344H18.3295V318.344H19.3295V317.344ZM19.3295 298.389V297.389H18.3295V298.389H19.3295ZM13 299.599V290.531H11V299.599H13ZM11.6803 291.479L46.5894 303.257L47.2288 301.362L12.3197 289.584L11.6803 291.479ZM45.9091 302.31L45.9091 313.543H47.9091L47.9091 302.31H45.9091ZM46.5894 312.595L11.6803 324.374L12.3197 326.269L47.2288 314.49L46.5894 312.595ZM13 325.321V316.253H11V325.321H13ZM12.2996 317.207L38.4132 309.008L37.8141 307.1L11.7004 315.299L12.2996 317.207ZM39.1136 308.054V307.781H37.1136V308.054H39.1136ZM38.4126 306.827L12.299 298.645L11.701 300.554L37.8147 308.736L38.4126 306.827ZM24.7386 298.389V317.344H26.7386V298.389H24.7386ZM25.7386 316.344H19.3295V318.344H25.7386V316.344ZM20.3295 317.344V298.389H18.3295V317.344H20.3295ZM19.3295 299.389H25.7386V297.389H19.3295V299.389ZM34.2614 359.126H33.2614V360.229L34.3587 360.122L34.2614 359.126ZM34.2614 350.604L34.1326 349.612L33.2614 349.725V350.604H34.2614ZM36.6307 349.905L36.1835 349.01L36.1835 349.01L36.6307 349.905ZM38.4375 348.507L39.1947 349.16L39.1947 349.16L38.4375 348.507ZM39.5795 346.445L38.635 346.116L38.6322 346.124L38.6295 346.132L39.5795 346.445ZM38.7443 339.456L39.5728 338.896L39.5704 338.892L38.7443 339.456ZM35.1477 336.643L35.5352 335.722L35.5295 335.719L35.1477 336.643ZM23.625 336.661L23.2375 335.739L23.2295 335.742L23.625 336.661ZM20.0966 339.473L19.2621 338.922L19.2562 338.931L20.0966 339.473ZM19.2784 346.325L20.2339 346.03L20.2326 346.026L19.2784 346.325ZM20.3182 348.354L19.5313 348.971L19.5329 348.973L20.3182 348.354ZM22.0057 349.803L22.505 348.936L22.5002 348.933L22.0057 349.803ZM24.2727 350.604L25.2727 350.61L25.2778 349.765L24.4458 349.619L24.2727 350.604ZM24.2216 359.126L24.1264 360.122L25.215 360.226L25.2216 359.132L24.2216 359.126ZM19.6534 357.78L20.1006 356.885L20.0952 356.883L19.6534 357.78ZM15.5455 354.729L14.8195 355.416L14.8227 355.42L15.5455 354.729ZM12.6136 349.99L13.5452 349.627L13.5445 349.625L12.6136 349.99ZM13.6023 335.126L12.7304 334.637L12.7277 334.641L13.6023 335.126ZM19.7045 329.229L20.18 330.108L19.7045 329.229ZM39.2216 329.263L39.7028 328.386L39.7028 328.386L39.2216 329.263ZM46.5 349.479L45.5501 349.166L45.5483 349.172L46.5 349.479ZM43.9432 354.217L43.1718 353.581L43.1687 353.585L43.9432 354.217ZM35.2614 359.126V350.604H33.2614V359.126H35.2614ZM34.3902 351.595C35.3628 351.469 36.2621 351.207 37.0779 350.799L36.1835 349.01C35.5901 349.307 34.9099 349.511 34.1326 349.612L34.3902 351.595ZM37.0779 350.799C37.8972 350.39 38.6058 349.843 39.1947 349.16L37.6803 347.854C37.2692 348.33 36.7733 348.715 36.1835 349.01L37.0779 350.799ZM39.1947 349.16C39.7886 348.472 40.2309 347.666 40.5296 346.757L38.6295 346.132C38.4054 346.814 38.0864 347.383 37.6803 347.854L39.1947 349.16ZM40.524 346.773C40.8386 345.869 40.9886 344.887 40.9886 343.837H38.9886C38.9886 344.696 38.866 345.452 38.635 346.116L40.524 346.773ZM40.9886 343.837C40.9886 341.973 40.5296 340.311 39.5728 338.896L37.9158 340.016C38.6182 341.055 38.9886 342.314 38.9886 343.837H40.9886ZM39.5704 338.892C38.6161 337.494 37.2527 336.443 35.5352 335.722L34.7603 337.565C36.1791 338.162 37.2134 338.986 37.9183 340.02L39.5704 338.892ZM35.5295 335.719C33.8088 335.008 31.7739 334.672 29.4545 334.672V336.672C31.5897 336.672 33.3503 336.983 34.766 337.568L35.5295 335.719ZM29.4545 334.672C27.0486 334.672 24.9642 335.013 23.2375 335.739L24.0125 337.582C25.4222 336.99 27.2241 336.672 29.4545 336.672V334.672ZM23.2295 335.742C21.5255 336.476 20.1826 337.528 19.2621 338.922L20.9311 340.024C21.6015 339.009 22.6109 338.186 24.0205 337.579L23.2295 335.742ZM19.2562 338.931C18.3533 340.331 17.9205 341.963 17.9205 343.786H19.9205C19.9205 342.29 20.2717 341.047 20.937 340.015L19.2562 338.931ZM17.9205 343.786C17.9205 344.802 18.0506 345.752 18.3242 346.624L20.2326 346.026C20.0289 345.376 19.9205 344.632 19.9205 343.786H17.9205ZM18.3229 346.62C18.5941 347.498 18.9943 348.286 19.5313 348.971L21.105 347.737C20.733 347.262 20.44 346.698 20.2339 346.03L18.3229 346.62ZM19.5329 348.973C20.0793 349.666 20.7408 350.233 21.5112 350.672L22.5002 348.933C21.9524 348.622 21.4888 348.223 21.1035 347.735L19.5329 348.973ZM21.5064 350.669C22.2878 351.119 23.1558 351.423 24.0997 351.589L24.4458 349.619C23.7078 349.489 23.0645 349.259 22.505 348.936L21.5064 350.669ZM23.2727 350.598L23.2216 359.12L25.2216 359.132L25.2727 350.61L23.2727 350.598ZM24.3167 358.131C22.9034 357.996 21.4994 357.585 20.1006 356.885L19.2062 358.674C20.8074 359.475 22.4489 359.962 24.1264 360.122L24.3167 358.131ZM20.0952 356.883C18.7075 356.199 17.4318 355.255 16.2682 354.038L14.8227 355.42C16.1364 356.794 17.5993 357.883 19.2116 358.677L20.0952 356.883ZM16.2714 354.041C15.1431 352.85 14.2312 351.384 13.5452 349.627L11.6821 350.354C12.4506 352.323 13.4933 354.017 14.8195 355.416L16.2714 354.041ZM13.5445 349.625C12.8712 347.91 12.5227 345.913 12.5227 343.615H10.5227C10.5227 346.113 10.9015 348.366 11.6828 350.356L13.5445 349.625ZM12.5227 343.615C12.5227 340.607 13.1811 337.948 14.4768 335.611L12.7277 334.641C11.2507 337.305 10.5227 340.305 10.5227 343.615H12.5227ZM14.4742 335.616C15.7733 333.303 17.6649 331.468 20.18 330.108L19.2291 328.349C16.4033 329.876 14.2267 331.973 12.7304 334.637L14.4742 335.616ZM20.18 330.108C22.6711 328.762 25.7485 328.064 29.4545 328.064V326.064C25.5015 326.064 22.0789 326.809 19.2291 328.349L20.18 330.108ZM29.4545 328.064C33.1703 328.064 36.251 328.773 38.7404 330.139L39.7028 328.386C36.8512 326.821 33.4206 326.064 29.4545 326.064V328.064ZM38.7404 330.139C41.2568 331.521 43.1435 333.373 44.4323 335.697L46.1814 334.727C44.6974 332.051 42.5273 329.937 39.7028 328.386L38.7404 330.139ZM44.4323 335.697C45.7294 338.036 46.3864 340.668 46.3864 343.615H48.3864C48.3864 340.358 47.6569 337.388 46.1814 334.727L44.4323 335.697ZM46.3864 343.615C46.3864 345.635 46.1042 347.483 45.5501 349.166L47.4499 349.791C48.0777 347.884 48.3864 345.822 48.3864 343.615H46.3864ZM45.5483 349.172C45.0049 350.855 44.2112 352.321 43.1718 353.581L44.7146 354.854C45.9252 353.386 46.836 351.693 47.4517 349.786L45.5483 349.172ZM43.1687 353.585C42.1439 354.84 40.8815 355.863 39.3708 356.656L40.2997 358.427C42.0389 357.515 43.5152 356.322 44.7177 354.85L43.1687 353.585ZM39.3708 356.656C37.8752 357.44 36.1451 357.937 34.164 358.131L34.3587 360.122C36.5595 359.906 38.5452 359.347 40.2997 358.427L39.3708 356.656ZM12 363.955V362.955H11V363.955H12ZM46.9091 363.955H47.9091V362.955H46.9091V363.955ZM46.9091 372.392V373.392H47.9091V372.392H46.9091ZM32.1477 372.392V371.392H31.1477V372.392H32.1477ZM32.1477 372.852H31.1477V373.34L31.5318 373.64L32.1477 372.852ZM46.9091 384.392H47.9091V383.904L47.525 383.604L46.9091 384.392ZM46.9091 394.33L46.2871 395.113L47.9091 396.401V394.33H46.9091ZM31.3295 381.955L31.9515 381.172L31.3873 380.723L30.7836 381.117L31.3295 381.955ZM12 394.551H11V396.396L12.546 395.389L12 394.551ZM12 384.46L11.4648 383.615L11 383.91V384.46H12ZM25.7216 375.767L26.2568 376.612L27.4469 375.858L26.3425 374.983L25.7216 375.767ZM21.4602 372.392L22.0811 371.608L21.8083 371.392H21.4602V372.392ZM12 372.392H11V373.392H12V372.392ZM12 364.955H46.9091V362.955H12V364.955ZM45.9091 363.955V372.392H47.9091V363.955H45.9091ZM46.9091 371.392H32.1477V373.392H46.9091V371.392ZM31.1477 372.392V372.852H33.1477V372.392H31.1477ZM31.5318 373.64L46.2932 385.18L47.525 383.604L32.7636 372.064L31.5318 373.64ZM45.9091 384.392L45.9091 394.33H47.9091L47.9091 384.392H45.9091ZM47.5311 393.547L31.9515 381.172L30.7076 382.738L46.2871 395.113L47.5311 393.547ZM30.7836 381.117L11.454 393.713L12.546 395.389L31.8755 382.792L30.7836 381.117ZM13 394.551V384.46H11V394.551H13ZM12.5352 385.305L26.2568 376.612L25.1864 374.922L11.4648 383.615L12.5352 385.305ZM26.3425 374.983L22.0811 371.608L20.8394 373.176L25.1007 376.551L26.3425 374.983ZM21.4602 371.392H12V373.392H21.4602V371.392ZM13 372.392V363.955H11V372.392H13Z" fill="white" mask="url(#path-5-outside-3_132_10)"/>
</g>
<path d="M41 15.5455V2.64205L75.9091 2.64205V15.5284C75.9091 19.0852 75.2102 22.1477 73.8125 24.7159C72.4261 27.2955 70.4261 29.2841 67.8125 30.6818C65.2102 32.0795 62.0966 32.7784 58.4716 32.7784C54.8352 32.7784 51.7102 32.0795 49.0966 30.6818C46.483 29.2955 44.4773 27.3125 43.0795 24.733C41.6932 22.1534 41 19.0909 41 15.5455ZM48.1932 11.0795V15.2216C48.1932 17.1761 48.5227 18.8295 49.1818 20.1818C49.8523 21.5455 50.9375 22.5739 52.4375 23.267C53.9489 23.9716 55.9602 24.3239 58.4716 24.3239C60.983 24.3239 62.983 23.9716 64.4716 23.267C65.9716 22.5625 67.0511 21.5227 67.7102 20.1477C68.3807 18.7841 68.7159 17.1023 68.7159 15.1023V11.0795H48.1932ZM41 37.7045H75.9091V62.0455H69.0568V46.142H61.8977V60.8011H55.0284V46.142H47.8523L47.8523 62.0455H41L41 37.7045ZM75.9091 75.2557L50.3409 83.0625V83.3523L75.9091 91.1591V100.602L41 88.8239V77.5909L75.9091 65.8125V75.2557ZM41 114.673H75.9091L75.9091 138.503H69.0568V123.111H61.8977V136.986H55.0284V123.111H41V114.673ZM75.9091 163.871V172.291H53.392C50.7898 172.291 48.5227 171.672 46.5909 170.433C44.6705 169.195 43.1818 167.467 42.125 165.251C41.0795 163.036 40.5568 160.462 40.5568 157.53C40.5568 154.564 41.0795 151.973 42.125 149.757C43.1818 147.541 44.6705 145.82 46.5909 144.592C48.5227 143.365 50.7898 142.751 53.392 142.751H75.9091V151.189H54.125C52.9205 151.189 51.8466 151.45 50.9034 151.973C49.9602 152.507 49.2216 153.251 48.6875 154.206C48.1534 155.161 47.8864 156.268 47.8864 157.53C47.8864 158.791 48.1534 159.893 48.6875 160.837C49.2216 161.791 49.9602 162.536 50.9034 163.07C51.8466 163.604 52.9205 163.871 54.125 163.871H75.9091ZM41 177.58H75.9091V186.017H47.8523V200.54H41V177.58ZM41 204.908H75.9091V213.345H47.8523V227.868H41V204.908ZM65.4432 251.105C66.6932 250.991 67.6648 250.486 68.358 249.588C69.0625 248.702 69.4148 247.435 69.4148 245.787C69.4148 244.696 69.2727 243.787 68.9886 243.06C68.7045 242.332 68.3125 241.787 67.8125 241.423C67.3239 241.06 66.7614 240.872 66.125 240.861C65.6023 240.838 65.142 240.94 64.7443 241.168C64.3466 241.406 63.9943 241.747 63.6875 242.19C63.392 242.645 63.1307 243.19 62.9034 243.827C62.6761 244.463 62.4773 245.179 62.3068 245.974L61.625 248.974C61.25 250.702 60.75 252.224 60.125 253.543C59.5 254.872 58.7557 255.986 57.892 256.884C57.0284 257.793 56.0341 258.48 54.9091 258.946C53.7841 259.412 52.5227 259.651 51.125 259.662C48.9205 259.651 47.0284 259.094 45.4489 257.991C43.8693 256.889 42.6591 255.304 41.8182 253.236C40.9773 251.179 40.5568 248.696 40.5568 245.787C40.5568 242.866 40.9943 240.321 41.8693 238.151C42.7443 235.98 44.0739 234.293 45.858 233.088C47.642 231.884 49.8977 231.264 52.625 231.23V239.31C51.5 239.378 50.5625 239.679 49.8125 240.213C49.0625 240.747 48.4943 241.48 48.108 242.412C47.7216 243.355 47.5284 244.446 47.5284 245.685C47.5284 246.821 47.6818 247.787 47.9886 248.582C48.2955 249.389 48.7216 250.009 49.267 250.44C49.8125 250.872 50.4375 251.094 51.142 251.105C51.8011 251.094 52.3636 250.889 52.8295 250.491C53.3068 250.094 53.7159 249.48 54.0568 248.651C54.4091 247.832 54.733 246.787 55.0284 245.514L55.8807 241.866C56.5739 238.844 57.6932 236.463 59.2386 234.724C60.7955 232.986 62.8977 232.122 65.5455 232.134C67.7045 232.122 69.5966 232.702 71.2216 233.872C72.8466 235.043 74.1136 236.662 75.0227 238.73C75.9318 240.798 76.3864 243.156 76.3864 245.804C76.3864 248.509 75.9261 250.855 75.0057 252.844C74.0966 254.844 72.8182 256.395 71.1705 257.497C69.5227 258.599 67.6136 259.162 65.4432 259.185V251.105ZM69.0568 262.781H75.9091V292.287H69.0568V281.702H41V273.384H69.0568V262.781ZM41 299.599V290.531L75.9091 302.31V313.543L41 325.321V316.253L67.1136 308.054V307.781L41 299.599ZM54.7386 298.389V317.344H48.3295V298.389H54.7386ZM63.2614 359.126V350.604C64.1364 350.49 64.9261 350.257 65.6307 349.905C66.3352 349.553 66.9375 349.087 67.4375 348.507C67.9375 347.928 68.3182 347.24 68.5795 346.445C68.8523 345.661 68.9886 344.791 68.9886 343.837C68.9886 342.143 68.5739 340.683 67.7443 339.456C66.9148 338.24 65.7159 337.303 64.1477 336.643C62.5795 335.996 60.6818 335.672 58.4545 335.672C56.1364 335.672 54.1932 336.001 52.625 336.661C51.0682 337.331 49.892 338.268 49.0966 339.473C48.3125 340.689 47.9205 342.126 47.9205 343.786C47.9205 344.717 48.0398 345.564 48.2784 346.325C48.517 347.098 48.8636 347.774 49.3182 348.354C49.7841 348.945 50.3466 349.428 51.0057 349.803C51.6761 350.189 52.4318 350.456 53.2727 350.604L53.2216 359.126C51.6761 358.979 50.1534 358.53 48.6534 357.78C47.1534 357.041 45.7841 356.024 44.5455 354.729C43.3182 353.433 42.3409 351.854 41.6136 349.99C40.8864 348.138 40.5227 346.013 40.5227 343.615C40.5227 340.456 41.2159 337.626 42.6023 335.126C44 332.638 46.0341 330.672 48.7045 329.229C51.375 327.786 54.625 327.064 58.4545 327.064C62.2955 327.064 65.5511 327.797 68.2216 329.263C70.892 330.729 72.9205 332.712 74.3068 335.212C75.6932 337.712 76.3864 340.513 76.3864 343.615C76.3864 345.729 76.0909 347.683 75.5 349.479C74.9205 351.274 74.0682 352.854 72.9432 354.217C71.8295 355.581 70.4602 356.689 68.8352 357.541C67.2102 358.393 65.3523 358.922 63.2614 359.126ZM41 363.955H75.9091V372.392H61.1477V372.852L75.9091 384.392V394.33L60.3295 381.955L41 394.551V384.46L54.7216 375.767L50.4602 372.392H41V363.955Z" fill="white"/>
</svg>
