<svg width="730" height="47" viewBox="0 0 730 47" fill="none" xmlns="http://www.w3.org/2000/svg">
<path d="M1.44 31.08H3.712V12.584H1.44V10.664H8.8L14.176 22.312H14.304L19.68 10.664H26.976V12.584H24.704V31.08H26.976V33H17.952V31.08H20.224V14.408H20.064L18.336 18.6L13.12 29.48L7.904 18.6L6.176 14.408H6.016V31.08H8.288V33H1.44V31.08ZM34.6463 33.384C32.9183 33.384 31.6383 32.968 30.8063 32.136C29.9743 31.304 29.5583 30.152 29.5583 28.68C29.5583 27.0587 30.1449 25.832 31.3183 25C32.5129 24.168 34.3689 23.752 36.8863 23.752H39.1583V21.736C39.1583 20.4347 38.8916 19.4533 38.3583 18.792C37.8249 18.1093 36.9503 17.768 35.7343 17.768C34.7956 17.768 34.0703 17.9067 33.5583 18.184V18.312C33.7716 18.44 33.9743 18.6427 34.1663 18.92C34.3796 19.176 34.4863 19.5387 34.4863 20.008C34.4863 20.6267 34.2943 21.1387 33.9103 21.544C33.5476 21.928 33.0036 22.12 32.2783 22.12C31.6596 22.12 31.1476 21.9173 30.7423 21.512C30.3583 21.1067 30.1663 20.5733 30.1663 19.912C30.1663 19.4 30.3049 18.9093 30.5823 18.44C30.8809 17.9493 31.3183 17.5227 31.8943 17.16C32.4703 16.776 33.1743 16.4773 34.0063 16.264C34.8596 16.0293 35.8409 15.912 36.9503 15.912C39.0836 15.912 40.6836 16.4027 41.7503 17.384C42.8169 18.344 43.3503 19.6987 43.3503 21.448V31.112H45.3983V32.712C45.0783 32.9253 44.6516 33.0853 44.1183 33.192C43.5849 33.32 43.0409 33.384 42.4863 33.384C41.4196 33.384 40.6516 33.128 40.1823 32.616C39.7129 32.0827 39.4783 31.4107 39.4783 30.6V30.504H39.3183C39.1689 30.8667 38.9769 31.2187 38.7423 31.56C38.5076 31.9013 38.2089 32.2107 37.8463 32.488C37.4836 32.744 37.0356 32.9573 36.5023 33.128C35.9903 33.2987 35.3716 33.384 34.6463 33.384ZM36.2783 30.824C37.1316 30.824 37.8249 30.6213 38.3583 30.216C38.8916 29.8107 39.1583 29.128 39.1583 28.168V25.48H37.3343C36.0543 25.48 35.1369 25.7147 34.5823 26.184C34.0489 26.632 33.7823 27.2827 33.7823 28.136V28.712C33.7823 29.4373 34.0063 29.9707 34.4543 30.312C34.9236 30.6533 35.5316 30.824 36.2783 30.824ZM54.3765 33.384C53.3525 33.384 52.4245 33.1813 51.5925 32.776C50.7818 32.3707 50.0778 31.7947 49.4805 31.048C48.9045 30.28 48.4565 29.3627 48.1365 28.296C47.8378 27.208 47.6885 25.992 47.6885 24.648C47.6885 23.304 47.8378 22.0987 48.1365 21.032C48.4565 19.944 48.9045 19.0267 49.4805 18.28C50.0778 17.512 50.7818 16.9253 51.5925 16.52C52.4245 16.1147 53.3525 15.912 54.3765 15.912C55.5925 15.912 56.5738 16.2 57.3205 16.776C58.0672 17.352 58.6005 18.0133 58.9205 18.76H59.0805V11.976L57.0325 11.56V9.96L63.2725 8.68V30.088L65.3205 30.504V32.104L59.0805 33.384V30.504H58.9205C58.6005 31.272 58.0565 31.944 57.2885 32.52C56.5418 33.096 55.5712 33.384 54.3765 33.384ZM55.7525 30.76C56.6485 30.76 57.4272 30.4933 58.0885 29.96C58.7498 29.4053 59.0805 28.6587 59.0805 27.72V21.576C59.0805 20.6373 58.7498 19.9013 58.0885 19.368C57.4272 18.8133 56.6485 18.536 55.7525 18.536C54.6858 18.536 53.8218 18.8987 53.1605 19.624C52.4992 20.3493 52.1685 21.3733 52.1685 22.696V26.6C52.1685 27.9227 52.4992 28.9467 53.1605 29.672C53.8218 30.3973 54.6858 30.76 55.7525 30.76ZM75.53 33.384C74.25 33.384 73.1087 33.1707 72.106 32.744C71.1247 32.3173 70.2927 31.72 69.61 30.952C68.9273 30.1627 68.4047 29.2347 68.042 28.168C67.7007 27.08 67.53 25.896 67.53 24.616C67.53 23.2933 67.7113 22.0987 68.074 21.032C68.458 19.944 68.9913 19.0267 69.674 18.28C70.3567 17.512 71.1673 16.9253 72.106 16.52C73.066 16.1147 74.122 15.912 75.274 15.912C76.426 15.912 77.4607 16.104 78.378 16.488C79.3167 16.8507 80.106 17.3733 80.746 18.056C81.4073 18.7387 81.9087 19.56 82.25 20.52C82.6127 21.4587 82.794 22.5147 82.794 23.688V24.68H72.042V25.832C72.042 27.368 72.4367 28.552 73.226 29.384C74.0367 30.1947 75.0927 30.6 76.394 30.6C77.5887 30.6 78.5487 30.3333 79.274 29.8C79.9993 29.2667 80.5327 28.6053 80.874 27.816L82.442 28.776C82.25 29.3093 81.962 29.8533 81.578 30.408C81.2153 30.9413 80.746 31.432 80.17 31.88C79.6153 32.328 78.954 32.6907 78.186 32.968C77.418 33.2453 76.5327 33.384 75.53 33.384ZM72.042 22.824H78.442V22.408C78.442 20.872 78.1647 19.7413 77.61 19.016C77.0767 18.2907 76.298 17.928 75.274 17.928C74.25 17.928 73.45 18.2907 72.874 19.016C72.3193 19.72 72.042 20.84 72.042 22.376V22.824ZM93.6448 12.584H92.0128V10.664H100.845V12.584H98.1888L101.869 28.872H102.029L106.733 10.664H110.605L115.309 28.872H115.469L119.149 12.584H116.493V10.664H123.277V12.584H121.645L116.589 33H112.301L107.725 16.104H107.565L102.989 33H98.7008L93.6448 12.584ZM128.753 13.64C127.963 13.64 127.345 13.416 126.897 12.968C126.47 12.52 126.257 11.9333 126.257 11.208V11.048C126.257 10.3227 126.47 9.736 126.897 9.288C127.345 8.84 127.963 8.616 128.753 8.616C129.542 8.616 130.15 8.84 130.577 9.288C131.025 9.736 131.249 10.3227 131.249 11.048V11.208C131.249 11.9333 131.025 12.52 130.577 12.968C130.15 13.416 129.542 13.64 128.753 13.64ZM124.625 31.08H126.673V19.208L124.625 18.792V17.192L130.865 15.912V31.08H132.913V33H124.625V31.08ZM140.436 33.288C139.177 33.288 138.27 33.0213 137.716 32.488C137.182 31.9547 136.916 31.1333 136.916 30.024V18.344H134.708V16.296H135.412C136.158 16.296 136.692 16.1573 137.012 15.88C137.332 15.5813 137.609 15.144 137.844 14.568L138.996 11.784H141.108V16.296H144.948V18.344H141.108V31.016H144.948V32.648C144.606 32.8187 144.02 32.968 143.188 33.096C142.356 33.224 141.438 33.288 140.436 33.288ZM146.522 31.08H148.57V11.976L146.522 11.56V9.96L152.762 8.68V19.016H152.922C153.071 18.6107 153.274 18.2267 153.53 17.864C153.807 17.48 154.138 17.1493 154.522 16.872C154.906 16.5733 155.354 16.3387 155.866 16.168C156.378 15.9973 156.954 15.912 157.594 15.912C159.62 15.912 161.06 16.4347 161.914 17.48C162.767 18.504 163.194 20.0507 163.194 22.12V31.08H165.242V33H157.05V31.08H159.002V22.312C159.002 21.0533 158.767 20.1467 158.298 19.592C157.828 19.016 157.071 18.728 156.026 18.728C155.62 18.728 155.226 18.7813 154.842 18.888C154.458 18.9947 154.106 19.1653 153.786 19.4C153.487 19.6133 153.242 19.8907 153.05 20.232C152.858 20.5733 152.762 20.9787 152.762 21.448V31.08H154.714V33H146.522V31.08Z" fill="#3F69FF"/>
<g clip-path="url(#clip0_128_2)">
<path d="M204.801 45.336C208.391 40.9501 211.749 36.3763 214.805 31.602C217.67 27.1243 220.621 22.3239 221.443 16.9802C222.176 12.214 221.199 7.07372 217.818 3.46821C214.862 0.315399 210.087 -0.858001 206.015 0.657369C203.844 1.46521 201.89 2.95364 200.868 5.07736C199.389 8.15144 199.823 11.4735 200.377 14.7148L204.947 12.7884C203.326 9.08493 201.191 5.21642 197.08 3.9036C193.305 2.69799 188.97 4.21096 186.313 7.03686C183.176 10.3727 182.509 15.1044 183.31 19.4674C184.151 24.0473 186.848 27.9776 189.668 31.5688C193.267 36.1523 197.029 40.6149 200.716 45.1286C201.57 46.1752 203.364 46.0158 204.251 45.1286C205.286 44.0938 205.108 42.6422 204.251 41.5931C201.466 38.1823 198.68 34.7716 195.895 31.3608C193.493 28.4196 191.016 25.4872 189.367 22.0357C187.991 19.1537 187.356 15.4999 188.636 12.4685C189.62 10.1383 192.09 8.30958 194.651 8.49127C197.936 8.72428 199.485 12.6968 200.629 15.312C201.121 16.4366 202.728 16.7845 203.751 16.3349C204.961 15.8031 205.415 14.6502 205.199 13.3856C204.885 11.5537 204.456 9.38896 205.185 7.60095C205.64 6.48594 206.607 5.74172 207.625 5.37664C210.211 4.44931 213.031 5.22021 214.789 7.60203C219.853 14.4595 214.163 23.3572 210.363 29.2725C207.571 33.6187 204.537 37.8031 201.265 41.8005C200.411 42.8445 200.244 44.3145 201.265 45.336C202.147 46.2178 203.941 46.3861 204.801 45.336Z" fill="#3F69FF"/>
</g>
<path d="M239.113 31.08H241.385V12.584H239.113V10.664H250.409C251.582 10.664 252.606 10.8027 253.481 11.08C254.377 11.336 255.113 11.6987 255.689 12.168C256.265 12.616 256.691 13.16 256.969 13.8C257.267 14.44 257.417 15.144 257.417 15.912C257.417 16.7013 257.289 17.3947 257.033 17.992C256.777 18.5893 256.425 19.1013 255.977 19.528C255.55 19.9547 255.059 20.3067 254.505 20.584C253.95 20.84 253.374 21.032 252.777 21.16V21.32C253.395 21.384 254.035 21.544 254.697 21.8C255.358 22.0347 255.955 22.376 256.489 22.824C257.022 23.272 257.459 23.8267 257.801 24.488C258.142 25.1493 258.313 25.9173 258.313 26.792C258.313 28.7547 257.694 30.28 256.457 31.368C255.241 32.456 253.47 33 251.145 33H239.113V31.08ZM245.865 30.92H249.993C251.187 30.92 252.105 30.6213 252.745 30.024C253.385 29.4053 253.705 28.552 253.705 27.464V26.024C253.705 24.936 253.385 24.0933 252.745 23.496C252.105 22.8773 251.187 22.568 249.993 22.568H245.865V30.92ZM245.865 20.488H249.449C250.558 20.488 251.39 20.2213 251.945 19.688C252.521 19.1333 252.809 18.344 252.809 17.32V15.912C252.809 14.888 252.521 14.1093 251.945 13.576C251.39 13.0213 250.558 12.744 249.449 12.744H245.865V20.488ZM263.671 39.784C262.455 39.784 261.527 39.4853 260.887 38.888C260.247 38.312 259.927 37.608 259.927 36.776C259.927 36.072 260.119 35.5173 260.503 35.112C260.908 34.728 261.463 34.536 262.167 34.536C262.828 34.536 263.34 34.7387 263.703 35.144C264.087 35.5493 264.279 36.0507 264.279 36.648C264.279 36.9467 264.215 37.2133 264.087 37.448C263.98 37.704 263.863 37.8853 263.735 37.992L263.767 38.184C263.874 38.2053 264.044 38.216 264.279 38.216C265.388 38.216 266.38 37.1067 267.255 34.888L267.703 33.768L261.527 18.216H259.959V16.296H267.927V18.216H265.975L269.655 28.648H269.815L273.495 18.216H271.543V16.296H277.431V18.216H275.895L269.175 35.016C268.94 35.592 268.663 36.168 268.343 36.744C268.044 37.32 267.671 37.832 267.223 38.28C266.796 38.728 266.284 39.0907 265.687 39.368C265.111 39.6453 264.439 39.784 263.671 39.784Z" fill="#3F69FF"/>
<path d="M286.36 30.888H288.6V12.776H286.36V10.664H304.184V16.616H300.472V12.968H293.784V20.2H298.008V18.28H300.376V24.424H298.008V22.504H293.784V30.696H300.728V26.408H304.44V33H286.36V30.888ZM313.798 33.384C312.774 33.384 311.846 33.1813 311.014 32.776C310.203 32.3493 309.51 31.752 308.934 30.984C308.358 30.216 307.91 29.2987 307.59 28.232C307.291 27.144 307.142 25.9387 307.142 24.616C307.142 23.2933 307.291 22.0987 307.59 21.032C307.91 19.944 308.358 19.016 308.934 18.248C309.51 17.48 310.203 16.8933 311.014 16.488C311.846 16.0613 312.774 15.848 313.798 15.848C314.395 15.848 314.928 15.9333 315.398 16.104C315.888 16.2533 316.315 16.456 316.678 16.712C317.062 16.968 317.382 17.2667 317.638 17.608C317.894 17.9493 318.096 18.3013 318.246 18.664H318.406V12.296L316.486 11.88V10.056L323.27 8.68V29.768L325.19 30.184V32.008L318.406 33.384V30.504H318.246C317.947 31.2507 317.414 31.9227 316.646 32.52C315.899 33.096 314.95 33.384 313.798 33.384ZM315.43 30.44C316.283 30.44 316.987 30.1733 317.542 29.64C318.118 29.1067 318.406 28.392 318.406 27.496V21.704C318.406 20.808 318.118 20.0933 317.542 19.56C316.987 19.0267 316.283 18.76 315.43 18.76C314.534 18.76 313.787 19.0693 313.19 19.688C312.592 20.3067 312.294 21.2133 312.294 22.408V26.792C312.294 27.9867 312.592 28.8933 313.19 29.512C313.787 30.1307 314.534 30.44 315.43 30.44ZM335.424 33.384C334.102 33.384 332.928 33.1707 331.904 32.744C330.902 32.296 330.048 31.688 329.344 30.92C328.662 30.1307 328.139 29.2027 327.776 28.136C327.414 27.048 327.232 25.864 327.232 24.584C327.232 23.24 327.414 22.024 327.776 20.936C328.16 19.848 328.694 18.9307 329.376 18.184C330.08 17.4373 330.912 16.8613 331.872 16.456C332.854 16.0507 333.942 15.848 335.136 15.848C336.331 15.848 337.408 16.0293 338.368 16.392C339.328 16.7547 340.139 17.2773 340.8 17.96C341.483 18.6213 342.006 19.432 342.368 20.392C342.731 21.352 342.912 22.4187 342.912 23.592V24.68H332.384V25.96C332.384 27.3893 332.758 28.4667 333.504 29.192C334.251 29.9173 335.243 30.28 336.48 30.28C337.632 30.28 338.56 30.024 339.264 29.512C339.968 28.9787 340.47 28.3387 340.768 27.592L342.528 28.648C342.336 29.1813 342.059 29.7253 341.696 30.28C341.334 30.8347 340.864 31.3467 340.288 31.816C339.712 32.264 339.019 32.6373 338.208 32.936C337.398 33.2347 336.47 33.384 335.424 33.384ZM332.384 22.664H337.888V22.216C337.888 20.68 337.643 19.6027 337.152 18.984C336.662 18.3653 335.99 18.056 335.136 18.056C334.283 18.056 333.611 18.3653 333.12 18.984C332.63 19.6027 332.384 20.68 332.384 22.216V22.664ZM345.325 30.888H347.245V19.464L345.325 19.048V17.224L352.013 15.848V19.016H352.141C352.44 18.12 352.92 17.3733 353.581 16.776C354.243 16.1573 355.107 15.848 356.173 15.848C357.219 15.848 358.04 16.136 358.637 16.712C359.235 17.2667 359.533 18.0347 359.533 19.016C359.533 19.8693 359.309 20.5413 358.861 21.032C358.413 21.5227 357.784 21.768 356.973 21.768C356.205 21.768 355.619 21.5653 355.213 21.16C354.808 20.7333 354.605 20.232 354.605 19.656C354.605 19.4 354.659 19.1653 354.765 18.952C354.872 18.7387 355 18.6 355.149 18.536L355.117 18.376C355.053 18.3547 354.957 18.344 354.829 18.344C354.488 18.344 354.157 18.44 353.837 18.632C353.517 18.824 353.229 19.0693 352.973 19.368C352.717 19.6667 352.504 19.9973 352.333 20.36C352.184 20.7227 352.109 21.0747 352.109 21.416V30.888H354.669V33H345.325V30.888ZM368.371 33.384C367.197 33.384 366.301 33.1707 365.683 32.744C365.064 32.296 364.669 31.8053 364.499 31.272H364.371V33H361.235V28.008H364.371V28.52C364.371 29.352 364.627 29.9813 365.139 30.408C365.651 30.8347 366.483 31.048 367.635 31.048C368.659 31.048 369.405 30.888 369.875 30.568C370.344 30.248 370.579 29.7573 370.579 29.096C370.579 28.5627 370.408 28.1573 370.067 27.88C369.725 27.5813 369.16 27.3147 368.371 27.08L366.867 26.664C365.011 26.152 363.635 25.4693 362.739 24.616C361.864 23.7413 361.427 22.568 361.427 21.096C361.427 19.4107 361.981 18.12 363.091 17.224C364.2 16.3067 365.661 15.848 367.475 15.848C368.605 15.848 369.469 16.0613 370.067 16.488C370.664 16.9147 371.048 17.3947 371.219 17.928H371.347V16.232H374.483V21.224H371.347V20.648C371.347 19.8373 371.091 19.2293 370.579 18.824C370.088 18.3973 369.277 18.184 368.147 18.184C366.525 18.184 365.715 18.7707 365.715 19.944C365.715 20.4987 365.875 20.9467 366.195 21.288C366.536 21.6293 367.144 21.9067 368.019 22.12L369.395 22.472C370.291 22.7067 371.08 22.9733 371.763 23.272C372.445 23.5707 373.011 23.9333 373.459 24.36C373.928 24.7653 374.28 25.2667 374.515 25.864C374.749 26.44 374.867 27.1333 374.867 27.944C374.867 29.7147 374.269 31.0693 373.075 32.008C371.88 32.9253 370.312 33.384 368.371 33.384ZM385.485 31.08C387.447 31.08 388.429 29.9067 388.429 27.56V21.672C388.429 19.3253 387.447 18.152 385.485 18.152C383.522 18.152 382.541 19.3253 382.541 21.672V27.56C382.541 29.9067 383.522 31.08 385.485 31.08ZM385.485 33.384C384.269 33.384 383.159 33.192 382.157 32.808C381.175 32.4027 380.322 31.8267 379.597 31.08C378.893 30.3333 378.349 29.416 377.965 28.328C377.581 27.24 377.389 26.0027 377.389 24.616C377.389 23.2293 377.581 21.992 377.965 20.904C378.349 19.816 378.893 18.8987 379.597 18.152C380.322 17.4053 381.175 16.84 382.157 16.456C383.159 16.0507 384.269 15.848 385.485 15.848C386.701 15.848 387.799 16.0507 388.781 16.456C389.783 16.84 390.637 17.4053 391.341 18.152C392.066 18.8987 392.621 19.816 393.005 20.904C393.389 21.992 393.581 23.2293 393.581 24.616C393.581 26.0027 393.389 27.24 393.005 28.328C392.621 29.416 392.066 30.3333 391.341 31.08C390.637 31.8267 389.783 32.4027 388.781 32.808C387.799 33.192 386.701 33.384 385.485 33.384ZM395.982 30.888H397.902V19.464L395.982 19.048V17.224L402.67 15.848V19.016H402.83C403.128 18.1627 403.662 17.4267 404.43 16.808C405.198 16.168 406.254 15.848 407.598 15.848C409.646 15.848 411.086 16.3707 411.918 17.416C412.771 18.44 413.198 19.9867 413.198 22.056V30.888H415.118V33H406.574V30.888H408.334V22.216C408.334 21.0853 408.131 20.2853 407.726 19.816C407.342 19.3253 406.68 19.08 405.742 19.08C405.379 19.08 405.016 19.1333 404.654 19.24C404.291 19.3253 403.971 19.4747 403.694 19.688C403.416 19.88 403.192 20.136 403.022 20.456C402.851 20.7547 402.766 21.128 402.766 21.576V30.888H404.526V33H395.982V30.888ZM424.735 30.888H426.975V12.776H424.735V10.664H442.559V16.616H438.847V12.968H432.159V20.68H436.383V18.76H438.751V24.904H436.383V22.984H432.159V30.888H435.199V33H424.735V30.888ZM444.232 30.888H446.152V19.464L444.232 19.048V17.224L450.92 15.848V19.016H451.048C451.346 18.12 451.826 17.3733 452.488 16.776C453.149 16.1573 454.013 15.848 455.08 15.848C456.125 15.848 456.946 16.136 457.544 16.712C458.141 17.2667 458.44 18.0347 458.44 19.016C458.44 19.8693 458.216 20.5413 457.768 21.032C457.32 21.5227 456.69 21.768 455.88 21.768C455.112 21.768 454.525 21.5653 454.12 21.16C453.714 20.7333 453.512 20.232 453.512 19.656C453.512 19.4 453.565 19.1653 453.672 18.952C453.778 18.7387 453.906 18.6 454.056 18.536L454.024 18.376C453.96 18.3547 453.864 18.344 453.736 18.344C453.394 18.344 453.064 18.44 452.744 18.632C452.424 18.824 452.136 19.0693 451.88 19.368C451.624 19.6667 451.41 19.9973 451.24 20.36C451.09 20.7227 451.016 21.0747 451.016 21.416V30.888H453.576V33H444.232V30.888ZM465.069 33.384C463.256 33.384 461.933 32.968 461.101 32.136C460.29 31.2827 459.885 30.0987 459.885 28.584C459.885 25.2773 462.328 23.624 467.213 23.624H469.453V21.8C469.453 20.4987 469.208 19.5173 468.717 18.856C468.226 18.1947 467.373 17.864 466.157 17.864C465.709 17.864 465.325 17.896 465.005 17.96C464.685 18.024 464.408 18.1093 464.173 18.216V18.376C464.386 18.4827 464.589 18.6747 464.781 18.952C464.994 19.2293 465.101 19.6027 465.101 20.072C465.101 20.712 464.898 21.256 464.493 21.704C464.088 22.1307 463.48 22.344 462.669 22.344C462.029 22.344 461.496 22.12 461.069 21.672C460.642 21.224 460.429 20.6587 460.429 19.976C460.429 19.464 460.578 18.9627 460.877 18.472C461.176 17.96 461.624 17.512 462.221 17.128C462.818 16.744 463.554 16.4347 464.429 16.2C465.325 15.9653 466.349 15.848 467.501 15.848C469.826 15.848 471.544 16.3493 472.653 17.352C473.762 18.3333 474.317 19.7307 474.317 21.544V30.888H476.237V32.712C475.874 32.9253 475.405 33.0853 474.829 33.192C474.253 33.32 473.656 33.384 473.037 33.384C471.864 33.384 471.032 33.1173 470.541 32.584C470.072 32.0293 469.837 31.3467 469.837 30.536V30.472H469.645C469.496 30.8347 469.304 31.1867 469.069 31.528C468.856 31.8693 468.568 32.1787 468.205 32.456C467.864 32.7333 467.437 32.9573 466.925 33.128C466.413 33.2987 465.794 33.384 465.069 33.384ZM466.893 30.504C467.682 30.504 468.301 30.3227 468.749 29.96C469.218 29.5973 469.453 28.968 469.453 28.072V25.544H467.725C466.701 25.544 465.933 25.7573 465.421 26.184C464.93 26.6107 464.685 27.2187 464.685 28.008V28.52C464.685 29.2027 464.888 29.704 465.293 30.024C465.698 30.344 466.232 30.504 466.893 30.504ZM478.294 30.888H480.214V19.464L478.294 19.048V17.224L484.982 15.848V19.016H485.142C485.441 18.1627 485.974 17.4267 486.742 16.808C487.51 16.168 488.566 15.848 489.91 15.848C491.958 15.848 493.398 16.3707 494.23 17.416C495.083 18.44 495.51 19.9867 495.51 22.056V30.888H497.43V33H488.886V30.888H490.646V22.216C490.646 21.0853 490.443 20.2853 490.038 19.816C489.654 19.3253 488.993 19.08 488.054 19.08C487.691 19.08 487.329 19.1333 486.966 19.24C486.603 19.3253 486.283 19.4747 486.006 19.688C485.729 19.88 485.505 20.136 485.334 20.456C485.163 20.7547 485.078 21.128 485.078 21.576V30.888H486.838V33H478.294V30.888ZM499.29 31.016L507.802 18.472H502.682V21.224H499.546V16.232H513.498V18.344L504.986 30.76H510.618V28.008H513.754V33H499.29V31.016ZM523.737 33.384C522.414 33.384 521.241 33.1707 520.217 32.744C519.214 32.296 518.361 31.688 517.657 30.92C516.974 30.1307 516.452 29.2027 516.089 28.136C515.726 27.048 515.545 25.864 515.545 24.584C515.545 23.24 515.726 22.024 516.089 20.936C516.473 19.848 517.006 18.9307 517.689 18.184C518.393 17.4373 519.225 16.8613 520.185 16.456C521.166 16.0507 522.254 15.848 523.449 15.848C524.644 15.848 525.721 16.0293 526.681 16.392C527.641 16.7547 528.452 17.2773 529.113 17.96C529.796 18.6213 530.318 19.432 530.681 20.392C531.044 21.352 531.225 22.4187 531.225 23.592V24.68H520.697V25.96C520.697 27.3893 521.07 28.4667 521.817 29.192C522.564 29.9173 523.556 30.28 524.793 30.28C525.945 30.28 526.873 30.024 527.577 29.512C528.281 28.9787 528.782 28.3387 529.081 27.592L530.841 28.648C530.649 29.1813 530.372 29.7253 530.009 30.28C529.646 30.8347 529.177 31.3467 528.601 31.816C528.025 32.264 527.332 32.6373 526.521 32.936C525.71 33.2347 524.782 33.384 523.737 33.384ZM520.697 22.664H526.201V22.216C526.201 20.68 525.956 19.6027 525.465 18.984C524.974 18.3653 524.302 18.056 523.449 18.056C522.596 18.056 521.924 18.3653 521.433 18.984C520.942 19.6027 520.697 20.68 520.697 22.216V22.664ZM533.638 30.888H535.558V19.464L533.638 19.048V17.224L540.326 15.848V19.016H540.486C540.785 18.1627 541.318 17.4267 542.086 16.808C542.854 16.168 543.91 15.848 545.254 15.848C547.302 15.848 548.742 16.3707 549.574 17.416C550.427 18.44 550.854 19.9867 550.854 22.056V30.888H552.774V33H544.23V30.888H545.99V22.216C545.99 21.0853 545.787 20.2853 545.382 19.816C544.998 19.3253 544.337 19.08 543.398 19.08C543.035 19.08 542.673 19.1333 542.31 19.24C541.947 19.3253 541.627 19.4747 541.35 19.688C541.073 19.88 540.849 20.136 540.678 20.456C540.507 20.7547 540.422 21.128 540.422 21.576V30.888H542.182V33H533.638V30.888ZM562.391 30.888H564.631V12.776H562.391V10.664H580.215V16.616H576.503V12.968H569.815V20.68H574.039V18.76H576.407V24.904H574.039V22.984H569.815V30.888H572.855V33H562.391V30.888ZM586.475 33.384C584.662 33.384 583.339 32.968 582.507 32.136C581.696 31.2827 581.291 30.0987 581.291 28.584C581.291 25.2773 583.734 23.624 588.619 23.624H590.859V21.8C590.859 20.4987 590.614 19.5173 590.123 18.856C589.632 18.1947 588.779 17.864 587.563 17.864C587.115 17.864 586.731 17.896 586.411 17.96C586.091 18.024 585.814 18.1093 585.579 18.216V18.376C585.792 18.4827 585.995 18.6747 586.187 18.952C586.4 19.2293 586.507 19.6027 586.507 20.072C586.507 20.712 586.304 21.256 585.899 21.704C585.494 22.1307 584.886 22.344 584.075 22.344C583.435 22.344 582.902 22.12 582.475 21.672C582.048 21.224 581.835 20.6587 581.835 19.976C581.835 19.464 581.984 18.9627 582.283 18.472C582.582 17.96 583.03 17.512 583.627 17.128C584.224 16.744 584.96 16.4347 585.835 16.2C586.731 15.9653 587.755 15.848 588.907 15.848C591.232 15.848 592.95 16.3493 594.059 17.352C595.168 18.3333 595.723 19.7307 595.723 21.544V30.888H597.643V32.712C597.28 32.9253 596.811 33.0853 596.235 33.192C595.659 33.32 595.062 33.384 594.443 33.384C593.27 33.384 592.438 33.1173 591.947 32.584C591.478 32.0293 591.243 31.3467 591.243 30.536V30.472H591.051C590.902 30.8347 590.71 31.1867 590.475 31.528C590.262 31.8693 589.974 32.1787 589.611 32.456C589.27 32.7333 588.843 32.9573 588.331 33.128C587.819 33.2987 587.2 33.384 586.475 33.384ZM588.299 30.504C589.088 30.504 589.707 30.3227 590.155 29.96C590.624 29.5973 590.859 28.968 590.859 28.072V25.544H589.131C588.107 25.544 587.339 25.7573 586.827 26.184C586.336 26.6107 586.091 27.2187 586.091 28.008V28.52C586.091 29.2027 586.294 29.704 586.699 30.024C587.104 30.344 587.638 30.504 588.299 30.504ZM607.256 39.784C605.677 39.784 604.365 39.6987 603.32 39.528C602.275 39.3573 601.432 39.112 600.792 38.792C600.173 38.472 599.736 38.088 599.48 37.64C599.224 37.192 599.096 36.68 599.096 36.104C599.096 35.2933 599.437 34.632 600.12 34.12C600.824 33.6293 601.688 33.2987 602.712 33.128V33C601.965 32.8293 601.357 32.4773 600.888 31.944C600.44 31.3893 600.216 30.6853 600.216 29.832C600.216 28.8507 600.536 28.0933 601.176 27.56C601.837 27.0053 602.627 26.6213 603.544 26.408V26.28C602.456 25.8533 601.613 25.2347 601.016 24.424C600.44 23.6133 600.152 22.6 600.152 21.384C600.152 20.488 600.323 19.6987 600.664 19.016C601.005 18.3333 601.485 17.7573 602.104 17.288C602.723 16.8187 603.469 16.4667 604.344 16.232C605.219 15.976 606.189 15.848 607.256 15.848C608.024 15.848 608.739 15.912 609.4 16.04C610.083 16.168 610.733 16.3813 611.352 16.68C611.587 14.3333 612.643 13.16 614.52 13.16C615.139 13.16 615.651 13.3413 616.056 13.704C616.483 14.0453 616.696 14.5467 616.696 15.208C616.696 15.8267 616.504 16.328 616.12 16.712C615.757 17.0747 615.235 17.256 614.552 17.256C613.763 17.256 613.144 16.9893 612.696 16.456H612.568V17.416C613.144 17.8853 613.592 18.44 613.912 19.08C614.253 19.72 614.424 20.488 614.424 21.384C614.424 22.28 614.253 23.0693 613.912 23.752C613.571 24.4347 613.08 25.0107 612.44 25.48C611.821 25.9493 611.075 26.312 610.2 26.568C609.325 26.8027 608.355 26.92 607.288 26.92C606.84 26.92 606.413 26.8987 606.008 26.856C605.603 26.8133 605.208 26.7493 604.824 26.664C604.227 27.048 603.928 27.5387 603.928 28.136C603.928 28.584 604.099 28.9253 604.44 29.16C604.781 29.3733 605.325 29.48 606.072 29.48H609.784C610.936 29.48 611.917 29.5973 612.728 29.832C613.56 30.0453 614.232 30.3547 614.744 30.76C615.256 31.1653 615.629 31.656 615.864 32.232C616.099 32.7867 616.216 33.416 616.216 34.12C616.216 35.8907 615.48 37.2773 614.008 38.28C612.536 39.2827 610.285 39.784 607.256 39.784ZM607.288 24.712C608.888 24.712 609.688 23.7307 609.688 21.768V21C609.688 19.0373 608.888 18.056 607.288 18.056C605.688 18.056 604.888 19.0373 604.888 21V21.768C604.888 23.7307 605.688 24.712 607.288 24.712ZM603.032 35.688C603.032 36.3707 603.299 36.872 603.832 37.192C604.387 37.5333 605.272 37.704 606.488 37.704H608.536C610.989 37.704 612.216 36.9787 612.216 35.528C612.216 34.824 611.971 34.3547 611.48 34.12C611.011 33.8853 610.317 33.768 609.4 33.768H603.96C603.661 34.0027 603.427 34.2587 603.256 34.536C603.107 34.8347 603.032 35.2187 603.032 35.688ZM625.147 33.384C623.099 33.384 621.648 32.872 620.795 31.848C619.963 30.8027 619.547 29.2453 619.547 27.176V19.464L617.627 19.048V17.224L624.411 15.848V27.016C624.411 28.1467 624.603 28.9573 624.987 29.448C625.392 29.9173 626.064 30.152 627.003 30.152C627.365 30.152 627.728 30.1093 628.091 30.024C628.453 29.9173 628.773 29.768 629.051 29.576C629.328 29.3627 629.552 29.1067 629.723 28.808C629.893 28.488 629.979 28.104 629.979 27.656V19.464L628.059 19.048V17.224L634.843 15.848V29.768L636.763 30.184V32.008L630.075 33.384V30.216H629.915C629.616 31.0693 629.083 31.816 628.315 32.456C627.547 33.0747 626.491 33.384 625.147 33.384ZM638.825 30.888H640.745V19.464L638.825 19.048V17.224L645.513 15.848V19.016H645.673C645.972 18.1627 646.505 17.4267 647.273 16.808C648.041 16.168 649.097 15.848 650.441 15.848C652.489 15.848 653.929 16.3707 654.761 17.416C655.615 18.44 656.041 19.9867 656.041 22.056V30.888H657.961V33H649.417V30.888H651.177V22.216C651.177 21.0853 650.975 20.2853 650.569 19.816C650.185 19.3253 649.524 19.08 648.585 19.08C648.223 19.08 647.86 19.1333 647.497 19.24C647.135 19.3253 646.815 19.4747 646.537 19.688C646.26 19.88 646.036 20.136 645.865 20.456C645.695 20.7547 645.609 21.128 645.609 21.576V30.888H647.369V33H638.825V30.888ZM666.829 33.384C665.805 33.384 664.877 33.1813 664.045 32.776C663.234 32.3493 662.541 31.752 661.965 30.984C661.389 30.216 660.941 29.2987 660.621 28.232C660.322 27.144 660.173 25.9387 660.173 24.616C660.173 23.2933 660.322 22.0987 660.621 21.032C660.941 19.944 661.389 19.016 661.965 18.248C662.541 17.48 663.234 16.8933 664.045 16.488C664.877 16.0613 665.805 15.848 666.829 15.848C667.426 15.848 667.96 15.9333 668.429 16.104C668.92 16.2533 669.346 16.456 669.709 16.712C670.093 16.968 670.413 17.2667 670.669 17.608C670.925 17.9493 671.128 18.3013 671.277 18.664H671.437V12.296L669.517 11.88V10.056L676.301 8.68V29.768L678.221 30.184V32.008L671.437 33.384V30.504H671.277C670.978 31.2507 670.445 31.9227 669.677 32.52C668.93 33.096 667.981 33.384 666.829 33.384ZM668.461 30.44C669.314 30.44 670.018 30.1733 670.573 29.64C671.149 29.1067 671.437 28.392 671.437 27.496V21.704C671.437 20.808 671.149 20.0933 670.573 19.56C670.018 19.0267 669.314 18.76 668.461 18.76C667.565 18.76 666.818 19.0693 666.221 19.688C665.624 20.3067 665.325 21.2133 665.325 22.408V26.792C665.325 27.9867 665.624 28.8933 666.221 29.512C666.818 30.1307 667.565 30.44 668.461 30.44ZM688.456 33.384C687.133 33.384 685.96 33.1707 684.936 32.744C683.933 32.296 683.08 31.688 682.376 30.92C681.693 30.1307 681.17 29.2027 680.808 28.136C680.445 27.048 680.264 25.864 680.264 24.584C680.264 23.24 680.445 22.024 680.808 20.936C681.192 19.848 681.725 18.9307 682.408 18.184C683.112 17.4373 683.944 16.8613 684.904 16.456C685.885 16.0507 686.973 15.848 688.168 15.848C689.362 15.848 690.44 16.0293 691.4 16.392C692.36 16.7547 693.17 17.2773 693.832 17.96C694.514 18.6213 695.037 19.432 695.4 20.392C695.762 21.352 695.944 22.4187 695.944 23.592V24.68H685.416V25.96C685.416 27.3893 685.789 28.4667 686.536 29.192C687.282 29.9173 688.274 30.28 689.512 30.28C690.664 30.28 691.592 30.024 692.296 29.512C693 28.9787 693.501 28.3387 693.8 27.592L695.56 28.648C695.368 29.1813 695.09 29.7253 694.728 30.28C694.365 30.8347 693.896 31.3467 693.32 31.816C692.744 32.264 692.05 32.6373 691.24 32.936C690.429 33.2347 689.501 33.384 688.456 33.384ZM685.416 22.664H690.92V22.216C690.92 20.68 690.674 19.6027 690.184 18.984C689.693 18.3653 689.021 18.056 688.168 18.056C687.314 18.056 686.642 18.3653 686.152 18.984C685.661 19.6027 685.416 20.68 685.416 22.216V22.664ZM705.621 33.384C704.447 33.384 703.551 33.1707 702.933 32.744C702.314 32.296 701.919 31.8053 701.749 31.272H701.621V33H698.485V28.008H701.621V28.52C701.621 29.352 701.877 29.9813 702.389 30.408C702.901 30.8347 703.733 31.048 704.885 31.048C705.909 31.048 706.655 30.888 707.125 30.568C707.594 30.248 707.829 29.7573 707.829 29.096C707.829 28.5627 707.658 28.1573 707.317 27.88C706.975 27.5813 706.41 27.3147 705.621 27.08L704.117 26.664C702.261 26.152 700.885 25.4693 699.989 24.616C699.114 23.7413 698.677 22.568 698.677 21.096C698.677 19.4107 699.231 18.12 700.341 17.224C701.45 16.3067 702.911 15.848 704.725 15.848C705.855 15.848 706.719 16.0613 707.317 16.488C707.914 16.9147 708.298 17.3947 708.469 17.928H708.597V16.232H711.733V21.224H708.597V20.648C708.597 19.8373 708.341 19.2293 707.829 18.824C707.338 18.3973 706.527 18.184 705.397 18.184C703.775 18.184 702.965 18.7707 702.965 19.944C702.965 20.4987 703.125 20.9467 703.445 21.288C703.786 21.6293 704.394 21.9067 705.269 22.12L706.645 22.472C707.541 22.7067 708.33 22.9733 709.013 23.272C709.695 23.5707 710.261 23.9333 710.709 24.36C711.178 24.7653 711.53 25.2667 711.765 25.864C711.999 26.44 712.117 27.1333 712.117 27.944C712.117 29.7147 711.519 31.0693 710.325 32.008C709.13 32.9253 707.562 33.384 705.621 33.384Z" fill="#31D499"/>
<defs>
<clipPath id="clip0_128_2">
<rect width="38.6726" height="46.0619" fill="white" transform="translate(183)"/>
</clipPath>
</defs>
</svg>
